<?xml version="1.0" standalone="no"?>
<!DOCTYPE svg PUBLIC "-//W3C//DTD SVG 20010904//EN"
 "http://www.w3.org/TR/2001/REC-SVG-20010904/DTD/svg10.dtd">
<svg version="1.0" xmlns="http://www.w3.org/2000/svg"
 width="872.000000pt" height="872.000000pt" viewBox="0 0 872.000000 872.000000"
 preserveAspectRatio="xMidYMid meet">
<metadata>
Created by potrace 1.14, written by Peter Selinger 2001-2017
</metadata>
<g transform="translate(0.000000,872.000000) scale(0.100000,-0.100000)"
fill="#000000" stroke="none">
<path d="M2173 8700 c-39 -23 -55 -53 -77 -145 -19 -78 -51 -127 -98 -151 -34
-18 -304 -63 -376 -64 -80 0 -132 40 -197 154 -16 26 -42 57 -59 68 -57 35
-93 23 -307 -106 -107 -65 -206 -131 -221 -147 -42 -44 -38 -96 12 -182 85
-147 80 -176 -71 -378 -143 -191 -162 -200 -334 -165 -87 18 -92 18 -128 1
-21 -10 -44 -30 -52 -45 -17 -32 -125 -459 -125 -492 0 -33 34 -85 67 -101 15
-8 60 -22 98 -31 78 -19 127 -51 151 -98 18 -34 63 -304 64 -376 0 -80 -40
-132 -154 -197 -26 -16 -57 -42 -68 -59 -35 -56 -22 -92 110 -311 66 -110 130
-209 141 -219 11 -10 41 -21 66 -23 40 -5 54 -1 124 40 143 83 171 78 372 -71
159 -119 183 -149 182 -232 0 -25 -8 -73 -18 -107 -22 -80 -15 -122 29 -161
29 -25 67 -38 267 -87 222 -54 236 -57 273 -44 52 19 73 50 97 145 23 87 53
135 102 160 34 18 304 64 374 64 84 0 123 -28 186 -134 49 -82 86 -109 142
-103 47 5 431 231 465 274 33 42 26 93 -24 186 -53 100 -60 126 -45 180 11 42
163 260 225 322 50 51 106 60 212 35 105 -25 141 -21 180 24 25 28 38 68 87
267 63 253 64 268 17 319 -21 24 -45 35 -112 51 -93 23 -141 53 -166 101 -17
34 -63 304 -64 375 0 84 28 123 134 186 38 22 77 55 87 71 37 60 28 85 -102
303 -67 112 -135 215 -151 228 -46 38 -94 34 -191 -19 -45 -24 -95 -47 -110
-50 -55 -13 -108 13 -259 125 -188 141 -204 172 -168 313 11 44 20 88 20 99 0
33 -32 87 -60 102 -32 17 -459 125 -492 125 -13 0 -37 -9 -55 -20z m41 -885
c106 -20 233 -70 327 -127 113 -68 267 -224 331 -333 199 -343 191 -739 -23
-1065 -267 -408 -802 -560 -1244 -356 -101 47 -187 107 -277 194 -203 196
-303 435 -301 717 2 265 90 486 270 676 175 184 370 280 633 313 54 6 205 -3
284 -19z"/>
<path d="M4014 6085 c-44 -53 -80 -101 -81 -108 -2 -10 292 -265 316 -275 6
-2 171 191 171 201 0 4 -255 220 -311 265 -14 11 -27 -1 -95 -83z"/>
<path d="M4821 5400 c-45 -55 -80 -104 -76 -109 3 -6 76 -69 162 -141 127
-107 158 -129 168 -118 36 38 155 183 155 190 0 6 -289 254 -316 270 -6 4 -47
-37 -93 -92z"/>
<path d="M2177 5094 c-54 -48 -97 -90 -95 -94 2 -5 56 -69 120 -142 64 -74
125 -145 136 -158 l19 -23 101 88 c100 86 101 88 84 109 -22 29 -264 306 -266
306 0 -1 -45 -39 -99 -86z"/>
<path d="M5631 4714 c-45 -52 -79 -99 -76 -104 14 -23 318 -270 325 -265 17
11 160 183 160 194 0 11 -305 271 -319 271 -5 0 -45 -43 -90 -96z"/>
<path d="M6425 4671 c-51 -31 -66 -56 -91 -157 -14 -54 -32 -110 -39 -125 -22
-41 -91 -95 -138 -108 -80 -21 -402 -63 -448 -59 -83 8 -131 46 -200 159 -67
109 -105 139 -175 139 -41 0 -87 -25 -399 -213 -192 -116 -215 -139 -215 -221
0 -43 8 -63 57 -145 63 -106 76 -166 53 -237 -16 -49 -257 -377 -300 -409 -18
-13 -57 -30 -86 -36 -47 -11 -64 -9 -163 15 -130 31 -167 27 -220 -28 -30 -31
-38 -54 -107 -331 -66 -265 -73 -302 -64 -337 20 -72 53 -96 175 -129 205 -56
221 -79 266 -369 18 -120 29 -227 27 -258 -6 -66 -45 -125 -111 -167 -25 -16
-68 -43 -94 -60 -69 -44 -96 -88 -91 -150 4 -44 23 -82 148 -290 177 -295 166
-280 218 -306 61 -30 102 -22 213 44 171 101 208 93 459 -96 240 -181 252
-204 205 -407 l-28 -118 24 -49 c17 -34 35 -54 64 -69 22 -12 164 -52 316 -89
305 -75 324 -76 383 -25 38 34 46 51 77 173 25 100 71 164 136 190 21 8 134
29 252 47 184 28 219 31 255 20 76 -22 111 -54 172 -155 65 -110 102 -139 174
-139 42 0 71 15 304 155 281 168 306 189 313 267 4 43 -1 57 -59 157 -59 103
-63 114 -62 170 0 35 8 73 18 92 9 18 73 109 142 203 111 148 133 173 177 195
63 31 123 32 227 5 90 -24 132 -25 169 -5 64 32 74 57 149 359 40 157 72 297
72 311 0 35 -35 101 -64 120 -13 9 -73 29 -132 45 -185 50 -209 84 -250 355
-50 325 -40 362 133 466 45 28 91 62 103 76 32 41 43 95 27 140 -19 56 -291
504 -327 538 -23 22 -41 29 -85 33 -52 4 -60 2 -156 -54 -111 -63 -174 -77
-243 -54 -34 11 -314 210 -380 269 -66 60 -81 149 -46 281 24 92 25 132 4 176
-28 60 -60 73 -348 145 -289 73 -343 80 -391 50z m92 -1115 c487 -121 831
-481 939 -981 25 -119 23 -340 -5 -472 -105 -496 -470 -866 -963 -975 -146
-32 -360 -32 -508 1 -491 108 -860 476 -966 964 -25 116 -30 325 -9 448 57
346 248 645 531 835 155 103 350 179 527 204 114 16 340 4 454 -24z"/>
<path d="M2872 4294 c-86 -74 -100 -90 -89 -103 7 -9 70 -82 140 -163 l129
-148 51 42 c28 24 73 64 101 89 l50 46 -134 154 c-73 85 -137 158 -140 162 -4
4 -52 -31 -108 -79z"/>
<path d="M3568 3494 c-54 -47 -98 -88 -98 -91 0 -4 112 -135 271 -317 4 -4 53
31 108 80 86 76 99 90 87 104 -29 35 -269 310 -270 310 0 0 -45 -39 -98 -86z"/>
</g>
</svg>
