<?xml version="1.0" encoding="UTF-8" standalone="no"?>
<!-- Generator: Adobe Illustrator 24.3.0, SVG Export Plug-In . SVG Version: 6.00 Build 0)  -->

<svg
   version="1.1"
   id="Layer_1"
   x="0px"
   y="0px"
   viewBox="0 0 766.02002 314.63001"
   xml:space="preserve"
   sodipodi:docname="dsLogoWhite.svg"
   inkscape:version="1.1.2 (0a00cf5339, 2022-02-04)"
   width="766.02002"
   height="314.63"
   xmlns:inkscape="http://www.inkscape.org/namespaces/inkscape"
   xmlns:sodipodi="http://sodipodi.sourceforge.net/DTD/sodipodi-0.dtd"
   xmlns:xlink="http://www.w3.org/1999/xlink"
   xmlns="http://www.w3.org/2000/svg"
   xmlns:svg="http://www.w3.org/2000/svg"><defs
   id="defs83" /><sodipodi:namedview
   id="namedview81"
   pagecolor="#ffffff"
   bordercolor="#666666"
   borderopacity="1.0"
   inkscape:pageshadow="2"
   inkscape:pageopacity="0.0"
   inkscape:pagecheckerboard="0"
   showgrid="false"
   inkscape:zoom="0.761875"
   inkscape:cx="169.97539"
   inkscape:cy="206.07055"
   inkscape:window-width="1920"
   inkscape:window-height="1007"
   inkscape:window-x="1920"
   inkscape:window-y="0"
   inkscape:window-maximized="1"
   inkscape:current-layer="Layer_1" />
<style
   type="text/css"
   id="style2">
	.st0{clip-path:url(#SVGID_2_);}
	.st1{clip-path:url(#SVGID_4_);}
	.st2{clip-path:url(#SVGID_6_);}
	.st3{clip-path:url(#SVGID_8_);}
	.st4{clip-path:url(#SVGID_10_);}
</style>
<g
   id="g12"
   style="fill:#ffffff"
   transform="translate(-14.45,-15.08)">
	<defs
   id="defs5">
		<rect
   id="SVGID_1_"
   x="14.44"
   y="15.08"
   width="766.03998"
   height="314.88" />
	</defs>
	<clipPath
   id="SVGID_2_">
		<use
   xlink:href="#SVGID_1_"
   style="overflow:visible"
   id="use7"
   x="0"
   y="0"
   width="100%"
   height="100%" />
	</clipPath>
	<path
   class="st0"
   d="m 510.62,307.9 c -0.91,-0.48 -1.72,-1.11 -2.43,-1.91 -0.71,-0.8 -1.28,-1.71 -1.72,-2.74 v -6.31 c 0.32,-0.64 0.71,-1.21 1.19,-1.7 0.47,-0.49 1,-0.92 1.57,-1.28 0.57,-0.36 1.18,-0.63 1.84,-0.82 0.65,-0.19 1.29,-0.28 1.93,-0.28 1.07,0 2.05,0.19 2.96,0.58 0.91,0.38 1.7,0.93 2.37,1.64 0.67,0.71 1.19,1.52 1.57,2.45 0.38,0.92 0.56,1.94 0.56,3.05 0,1.07 -0.17,2.1 -0.5,3.08 -0.34,0.98 -0.82,1.83 -1.45,2.56 -0.63,0.73 -1.37,1.31 -2.22,1.75 -0.85,0.44 -1.79,0.66 -2.81,0.66 -1,-0.02 -1.95,-0.25 -2.86,-0.73 m 13.01,6.61 c 2.03,-1.4 3.62,-3.31 4.77,-5.72 1.15,-2.41 1.72,-5.14 1.72,-8.17 0,-2.22 -0.36,-4.28 -1.07,-6.19 -0.71,-1.91 -1.72,-3.58 -3.02,-5.02 -1.3,-1.44 -2.84,-2.57 -4.59,-3.39 -1.76,-0.82 -3.68,-1.23 -5.78,-1.23 -2.33,0 -4.37,0.49 -6.1,1.46 -1.74,0.97 -3.18,2.34 -4.33,4.09 v -5.07 h -8.24 v 43.38 h 9.48 v -17.58 c 0.99,1.71 2.35,3.07 4.09,4.06 1.74,0.99 3.77,1.49 6.1,1.49 2.61,-0.01 4.93,-0.71 6.97,-2.11 m -51.14,-17.92 c 0.61,-1.19 1.43,-2.11 2.46,-2.76 1.03,-0.65 2.21,-0.98 3.56,-0.98 1.3,0 2.48,0.33 3.53,0.98 1.05,0.65 1.87,1.57 2.46,2.76 0.59,1.19 0.89,2.57 0.89,4.14 0,1.53 -0.3,2.9 -0.89,4.08 -0.59,1.19 -1.41,2.12 -2.46,2.79 -1.05,0.67 -2.22,1.01 -3.53,1.01 -1.34,0 -2.53,-0.33 -3.56,-0.98 -1.03,-0.65 -1.85,-1.57 -2.46,-2.76 -0.61,-1.19 -0.92,-2.57 -0.92,-4.14 0,-1.57 0.31,-2.95 0.92,-4.14 m 13.07,18.74 c 2.05,-0.86 3.79,-2.02 5.21,-3.5 1.42,-1.48 2.51,-3.17 3.26,-5.08 0.75,-1.91 1.13,-3.91 1.13,-6.01 0,-2.14 -0.38,-4.17 -1.13,-6.07 -0.75,-1.91 -1.84,-3.6 -3.26,-5.08 -1.42,-1.48 -3.16,-2.65 -5.21,-3.5 -2.05,-0.86 -4.41,-1.29 -7.05,-1.29 -2.65,0 -5.01,0.43 -7.08,1.29 -2.07,0.86 -3.82,2.02 -5.24,3.5 -1.42,1.48 -2.5,3.17 -3.23,5.08 -0.73,1.91 -1.1,3.93 -1.1,6.07 0,2.1 0.36,4.11 1.1,6.01 0.73,1.91 1.81,3.6 3.23,5.08 1.42,1.48 3.17,2.65 5.24,3.5 2.07,0.86 4.43,1.28 7.08,1.28 2.64,0 4.99,-0.42 7.05,-1.28 m -25.78,-18.92 c 0,-1.32 -0.12,-2.67 -0.36,-4.03 -0.24,-1.36 -0.69,-2.62 -1.36,-3.76 -0.67,-1.15 -1.65,-2.07 -2.93,-2.77 -1.28,-0.7 -2.99,-1.05 -5.13,-1.05 -2.25,0 -4.32,0.5 -6.19,1.49 -1.88,0.99 -3.39,2.4 -4.53,4.23 v -17.75 h -9.48 v 43.26 h 9.48 v -17.57 c 0.39,-1.06 0.97,-2 1.72,-2.79 0.75,-0.8 1.57,-1.42 2.46,-1.85 0.89,-0.44 1.69,-0.66 2.4,-0.66 1.34,0 2.42,0.46 3.23,1.39 0.81,0.93 1.21,2.38 1.21,4.35 v 17.13 h 9.48 z m -36.59,17.56 c 2.27,-1.76 3.41,-4.2 3.41,-7.3 0,-1.82 -0.43,-3.28 -1.27,-4.39 -0.85,-1.11 -2.12,-2.04 -3.82,-2.79 -1.7,-0.76 -3.83,-1.5 -6.4,-2.24 -1.11,-0.35 -2.02,-0.65 -2.76,-0.9 -0.73,-0.25 -1.26,-0.55 -1.6,-0.9 -0.34,-0.35 -0.5,-0.81 -0.5,-1.4 0,-0.59 0.17,-1.06 0.5,-1.42 0.33,-0.37 0.78,-0.63 1.33,-0.79 0.55,-0.15 1.16,-0.23 1.84,-0.23 1.3,0 2.65,0.28 4.03,0.83 1.38,0.55 2.96,1.44 4.74,2.67 l 3.67,-5.93 c -1.78,-1.58 -3.68,-2.71 -5.72,-3.38 -2.04,-0.67 -4.12,-1.01 -6.25,-1.01 -2.69,0 -5,0.43 -6.93,1.29 -1.94,0.86 -3.43,2.05 -4.47,3.59 -1.05,1.54 -1.57,3.34 -1.57,5.4 0,1.71 0.39,3.1 1.19,4.17 0.79,1.07 1.97,1.98 3.56,2.71 1.58,0.74 3.56,1.5 5.93,2.28 1.19,0.31 2.18,0.6 2.99,0.88 0.81,0.27 1.41,0.57 1.81,0.9 0.39,0.33 0.59,0.79 0.59,1.37 0,0.78 -0.34,1.36 -1.01,1.73 -0.67,0.37 -1.62,0.56 -2.84,0.56 -1.58,0 -3.27,-0.36 -5.07,-1.07 -1.8,-0.71 -3.64,-1.76 -5.54,-3.14 l -3.26,5.98 c 1.74,1.7 3.87,2.98 6.4,3.85 2.53,0.87 5.12,1.3 7.76,1.3 3.9,0.02 6.99,-0.86 9.26,-2.62 m -23.02,2.05 -12.15,-17.51 11.2,-13.24 h -10.01 l -10.55,12.71 v -25.21 h -9.48 v 43.26 h 9.48 v -8.96 l 3.32,-3.34 8.12,12.3 h 10.07 z M 365.56,284.5 c -0.16,-0.04 -0.35,-0.06 -0.56,-0.06 h -0.98 c -1.86,0.04 -3.63,0.65 -5.33,1.84 -1.7,1.19 -3.08,2.82 -4.15,4.92 v -5.93 h -8.71 v 30.75 h 9.48 v -18.67 c 0.83,-1.42 2.17,-2.5 4.03,-3.23 1.86,-0.73 3.93,-1.1 6.22,-1.1 z m -44.47,12.09 c 0.61,-1.19 1.43,-2.11 2.46,-2.76 1.03,-0.65 2.21,-0.98 3.56,-0.98 1.3,0 2.48,0.33 3.53,0.98 1.05,0.65 1.87,1.57 2.46,2.76 0.59,1.19 0.89,2.57 0.89,4.14 0,1.53 -0.3,2.9 -0.89,4.08 -0.59,1.19 -1.41,2.12 -2.46,2.79 -1.05,0.67 -2.22,1.01 -3.53,1.01 -1.34,0 -2.53,-0.33 -3.56,-0.98 -1.03,-0.65 -1.85,-1.57 -2.46,-2.76 -0.61,-1.19 -0.92,-2.57 -0.92,-4.14 0,-1.57 0.31,-2.95 0.92,-4.14 m 13.07,18.74 c 2.05,-0.86 3.79,-2.02 5.21,-3.5 1.42,-1.48 2.51,-3.17 3.26,-5.08 0.75,-1.91 1.13,-3.91 1.13,-6.01 0,-2.14 -0.38,-4.17 -1.13,-6.07 -0.75,-1.91 -1.84,-3.6 -3.26,-5.08 -1.42,-1.48 -3.16,-2.65 -5.21,-3.5 -2.05,-0.86 -4.41,-1.29 -7.05,-1.29 -2.65,0 -5.01,0.43 -7.08,1.29 -2.07,0.86 -3.82,2.02 -5.24,3.5 -1.42,1.48 -2.5,3.17 -3.23,5.08 -0.73,1.91 -1.1,3.93 -1.1,6.07 0,2.1 0.36,4.11 1.1,6.01 0.73,1.91 1.81,3.6 3.23,5.08 1.42,1.48 3.17,2.65 5.24,3.5 2.07,0.86 4.43,1.28 7.08,1.28 2.64,0 4.99,-0.42 7.05,-1.28 m -38.81,-8.15 -2.96,-8.55 5.51,-13.36 h -7.7 l -2.96,9.26 -2.96,-9.26 h -7.76 l 5.57,13.36 -2.96,8.55 -8.36,-21.91 h -8.95 l 12.86,30.75 h 7.82 l 4.74,-12.54 4.74,12.54 h 7.82 l 12.86,-30.75 h -9.01 z m -70.1,-12.66 c 0.59,-0.92 1.37,-1.64 2.34,-2.15 0.97,-0.51 2.06,-0.76 3.29,-0.76 1.19,0 2.27,0.25 3.26,0.76 0.99,0.51 1.78,1.23 2.37,2.15 0.59,0.92 0.97,2.01 1.13,3.25 h -13.51 c 0.15,-1.24 0.53,-2.33 1.12,-3.25 m 12.23,21.03 c 1.96,-0.71 3.65,-1.69 5.1,-2.93 1.44,-1.24 2.56,-2.68 3.35,-4.3 l -8.06,-2.25 c -0.47,1.15 -1.33,2.05 -2.58,2.73 -1.24,0.67 -2.58,1.01 -4,1.01 -1.15,0 -2.23,-0.24 -3.26,-0.72 -1.03,-0.48 -1.87,-1.18 -2.52,-2.1 -0.65,-0.92 -1.04,-2.05 -1.16,-3.4 h 22.99 c 0.04,-0.39 0.09,-0.85 0.15,-1.37 0.06,-0.52 0.09,-1.06 0.09,-1.6 0,-2.8 -0.65,-5.4 -1.96,-7.79 -1.3,-2.39 -3.19,-4.33 -5.66,-5.8 -2.47,-1.48 -5.46,-2.22 -8.98,-2.22 -3.52,0 -6.52,0.75 -9.01,2.24 -2.49,1.49 -4.4,3.45 -5.72,5.88 -1.32,2.42 -1.99,5.11 -1.99,8.06 0,2.07 0.38,4.05 1.13,5.95 0.75,1.89 1.85,3.56 3.29,5.01 1.44,1.45 3.19,2.59 5.24,3.43 2.05,0.84 4.4,1.26 7.05,1.26 2.4,-0.03 4.56,-0.38 6.51,-1.09 m -39.55,-7.24 c 0,2.65 0.74,4.7 2.22,6.14 1.48,1.44 3.56,2.17 6.25,2.17 1.34,0 2.79,-0.16 4.33,-0.47 1.54,-0.32 2.9,-0.75 4.09,-1.3 l -1.24,-7.11 c -0.47,0.24 -1.02,0.44 -1.63,0.62 -0.61,0.18 -1.21,0.27 -1.81,0.27 -0.87,0 -1.54,-0.28 -2.01,-0.83 -0.47,-0.55 -0.71,-1.48 -0.71,-2.79 v -32.23 h -9.48 v 35.53 z m -11.02,7.24 c 1.9,-0.71 3.55,-1.69 4.95,-2.93 1.4,-1.24 2.48,-2.66 3.23,-4.24 l -9.24,-2.84 c -0.32,0.59 -0.76,1.13 -1.33,1.6 -0.57,0.47 -1.21,0.84 -1.9,1.1 -0.69,0.26 -1.43,0.38 -2.22,0.38 -1.3,0 -2.47,-0.33 -3.5,-1.01 -1.03,-0.67 -1.86,-1.6 -2.49,-2.79 -0.63,-1.19 -0.95,-2.57 -0.95,-4.14 0,-1.61 0.31,-2.99 0.92,-4.14 0.61,-1.15 1.44,-2.05 2.49,-2.7 1.05,-0.65 2.22,-0.98 3.53,-0.98 1.15,0 2.18,0.26 3.11,0.77 0.93,0.51 1.69,1.24 2.28,2.19 l 9.24,-2.79 c -1.22,-2.45 -3.07,-4.43 -5.54,-5.96 -2.47,-1.52 -5.48,-2.28 -9.04,-2.28 -3.52,0 -6.52,0.74 -9.01,2.22 -2.49,1.48 -4.4,3.43 -5.72,5.84 -1.32,2.41 -1.99,5.02 -1.99,7.82 0,2.14 0.37,4.17 1.13,6.07 0.75,1.91 1.85,3.6 3.29,5.08 1.44,1.48 3.19,2.65 5.24,3.5 2.05,0.86 4.4,1.28 7.05,1.28 2.42,0.01 4.57,-0.34 6.47,-1.05 m -50.6,13.27 c 0.83,0.32 1.64,0.54 2.43,0.68 0.79,0.14 1.6,0.21 2.43,0.21 1.94,0 3.71,-0.36 5.33,-1.09 1.62,-0.73 3,-1.74 4.15,-3.03 1.15,-1.29 1.99,-2.78 2.55,-4.47 l 11.85,-35.85 h -8.95 l -6.16,21.22 -7.23,-21.22 h -9.78 l 11.85,30.86 c -0.32,1.31 -0.67,2.37 -1.07,3.16 -0.4,0.79 -0.86,1.35 -1.39,1.69 -0.53,0.33 -1.18,0.5 -1.93,0.5 -0.55,0 -1.18,-0.07 -1.87,-0.21 -0.69,-0.14 -1.43,-0.33 -2.22,-0.56 v 8.11 z m -10.08,-13.27 c 1.9,-0.71 3.55,-1.69 4.95,-2.93 1.4,-1.24 2.48,-2.66 3.23,-4.24 l -9.24,-2.84 c -0.32,0.59 -0.76,1.13 -1.33,1.6 -0.57,0.47 -1.21,0.84 -1.9,1.1 -0.69,0.26 -1.43,0.38 -2.22,0.38 -1.3,0 -2.47,-0.33 -3.5,-1.01 -1.03,-0.67 -1.86,-1.6 -2.49,-2.79 -0.63,-1.19 -0.95,-2.57 -0.95,-4.14 0,-1.61 0.31,-2.99 0.92,-4.14 0.61,-1.15 1.44,-2.05 2.49,-2.7 1.05,-0.65 2.22,-0.98 3.53,-0.98 1.15,0 2.18,0.26 3.11,0.77 0.93,0.51 1.69,1.24 2.28,2.19 l 9.24,-2.79 c -1.22,-2.45 -3.07,-4.43 -5.54,-5.96 -2.47,-1.52 -5.48,-2.28 -9.04,-2.28 -3.52,0 -6.52,0.74 -9.01,2.22 -2.49,1.48 -4.4,3.43 -5.72,5.84 -1.32,2.41 -1.99,5.02 -1.99,7.82 0,2.14 0.37,4.17 1.13,6.07 0.75,1.91 1.85,3.6 3.29,5.08 1.44,1.48 3.19,2.65 5.24,3.5 2.05,0.86 4.4,1.28 7.05,1.28 2.42,0.01 4.58,-0.34 6.47,-1.05"
   clip-path="url(#SVGID_2_)"
   id="path10"
   style="fill:#ffffff" />
</g>
<rect
   x="154.81476"
   y="249.52341"
   transform="rotate(-42.020857)"
   width="6.7199888"
   height="10.809983"
   id="rect14"
   style="fill:#ffffff;stroke-width:0.999998" />
<rect
   x="141.16412"
   y="263.23322"
   transform="rotate(-33.005132)"
   width="6.7198253"
   height="10.80972"
   id="rect16"
   style="fill:#ffffff;stroke-width:0.999974" />
<rect
   x="141.29456"
   y="236.62914"
   transform="rotate(-32.971743)"
   width="6.719687"
   height="10.809497"
   id="rect18"
   style="fill:#ffffff;stroke-width:0.999953" />
<g
   id="g28"
   style="fill:#ffffff"
   transform="translate(-14.45,-15.08)">
	<defs
   id="defs21">
		<rect
   id="SVGID_3_"
   x="14.44"
   y="15.08"
   width="766.03998"
   height="314.88" />
	</defs>
	<clipPath
   id="SVGID_4_">
		<use
   xlink:href="#SVGID_3_"
   style="overflow:visible"
   id="use23"
   x="0"
   y="0"
   width="100%"
   height="100%" />
	</clipPath>
	<path
   class="st1"
   d="m 319.2,105.56 c 4.74,5.24 10.38,9.43 16.91,12.57 6.54,3.14 13.74,4.71 21.63,4.71 6.08,0 12.22,-0.97 18.41,-2.92 6.19,-1.94 11.72,-4.76 16.62,-8.46 4.89,-3.69 8.38,-8.13 10.48,-13.32 l -23.8,-14.22 c -1.2,3.19 -2.94,5.74 -5.24,7.64 -2.3,1.89 -4.84,3.27 -7.63,4.11 -2.79,0.85 -5.54,1.27 -8.23,1.27 -3.79,0 -7.21,-0.75 -10.25,-2.25 -3.05,-1.5 -5.62,-3.57 -7.71,-6.21 -2.09,-2.64 -3.69,-5.66 -4.79,-9.05 -1.1,-3.39 -1.65,-6.94 -1.65,-10.63 0,-3.29 0.47,-6.58 1.42,-9.88 0.95,-3.29 2.4,-6.29 4.34,-8.98 1.95,-2.69 4.44,-4.87 7.48,-6.51 3.04,-1.65 6.66,-2.47 10.85,-2.47 2.69,0 5.46,0.37 8.31,1.12 2.85,0.75 5.49,2.07 7.93,3.97 2.45,1.9 4.31,4.59 5.61,8.08 l 22.3,-15.87 c -3.69,-6.98 -9.33,-12.6 -16.91,-16.84 -7.59,-4.24 -16.46,-6.36 -26.64,-6.36 -8.48,0 -16.09,1.52 -22.82,4.56 -6.74,3.05 -12.45,7.11 -17.14,12.2 -4.69,5.09 -8.26,10.76 -10.7,16.99 -2.45,6.24 -3.67,12.6 -3.67,19.09 0,6.78 1.3,13.45 3.89,19.98 2.59,6.55 6.26,12.44 11,17.68"
   clip-path="url(#SVGID_4_)"
   id="path26"
   style="fill:#ffffff" />
</g>
<rect
   x="154.94135"
   y="275.97092"
   transform="rotate(-41.996582)"
   width="6.7201376"
   height="10.810223"
   id="rect30"
   style="fill:#ffffff;stroke-width:1.00002" />
<g
   id="g40"
   style="fill:#ffffff"
   transform="translate(-14.45,-15.08)">
	<defs
   id="defs33">
		<rect
   id="SVGID_5_"
   x="14.44"
   y="15.08"
   width="766.03998"
   height="314.88" />
	</defs>
	<clipPath
   id="SVGID_6_">
		<use
   xlink:href="#SVGID_5_"
   style="overflow:visible"
   id="use35"
   x="0"
   y="0"
   width="100%"
   height="100%" />
	</clipPath>
	<path
   class="st2"
   d="m 227.54,66.47 0.09,-0.72 c 0,-0.02 0,-0.04 0.01,-0.06 0.09,-0.71 0.2,-1.41 0.35,-2.11 0,-0.01 0.01,-0.03 0.01,-0.04 0.61,-2.83 1.7,-5.53 3.22,-7.98 0.01,-0.02 0.02,-0.03 0.02,-0.04 0.37,-0.6 0.78,-1.19 1.2,-1.76 0.02,-0.02 0.03,-0.04 0.04,-0.05 0.43,-0.57 0.89,-1.13 1.37,-1.66 l 0.47,-0.53 c 0.56,-0.55 1.46,-1.39 2,-1.87 l 0.52,-0.41 c 0.06,-0.05 0.13,-0.1 0.19,-0.15 0.5,-0.39 1.02,-0.76 1.55,-1.11 0.09,-0.06 0.18,-0.12 0.28,-0.18 0.54,-0.35 1.09,-0.68 1.66,-0.99 0.08,-0.04 0.16,-0.08 0.24,-0.13 0.6,-0.31 1.22,-0.61 1.86,-0.88 0.64,-0.27 1.28,-0.51 1.93,-0.72 0.08,-0.02 0.17,-0.06 0.25,-0.08 0.62,-0.2 1.25,-0.37 1.88,-0.52 0.1,-0.02 0.2,-0.04 0.3,-0.07 0.63,-0.14 1.26,-0.26 1.9,-0.35 0.07,-0.01 0.14,-0.02 0.21,-0.02 l 0.67,-0.09 c 0.73,-0.05 1.32,-0.1 1.32,-0.1 0,0 0.32,-0.01 0.71,-0.02 0.39,-0.01 1.42,0 1.42,0 0,0 0.65,0.04 1.46,0.09 l 0.72,0.09 h 0.02 c 4.33,0.54 8.47,2.21 11.96,4.83 0.01,0 0.01,0.01 0.02,0.01 l 0.58,0.44 c 0.61,0.52 1.1,0.95 1.1,0.95 0,0 0.24,0.22 0.52,0.48 0.29,0.27 1.01,1.01 1.01,1.01 0,0 0.4,0.45 0.89,1 l 0.42,0.53 c 0.04,0.05 0.09,0.1 0.13,0.16 0.39,0.51 0.77,1.04 1.13,1.58 0.05,0.09 0.11,0.17 0.16,0.25 0.35,0.55 0.68,1.11 0.99,1.69 0.04,0.07 0.07,0.14 0.11,0.22 0.32,0.61 0.62,1.23 0.9,1.87 0.27,0.64 0.51,1.29 0.72,1.94 0.02,0.08 0.06,0.15 0.08,0.23 0.2,0.63 0.37,1.26 0.52,1.89 0.02,0.1 0.05,0.2 0.07,0.29 0.14,0.64 0.26,1.27 0.35,1.91 0.01,0.07 0.02,0.14 0.02,0.2 l 0.09,0.67 c 0.06,0.73 0.1,1.33 0.1,1.33 0,0 0.04,1.03 0.03,1.42 0,0.39 -0.01,0.71 -0.01,0.71 0,0 -0.04,0.65 -0.08,1.46 l -0.09,0.72 c 0,0.01 0,0.02 0,0.02 -0.09,0.72 -0.21,1.43 -0.36,2.14 v 0.01 c -0.61,2.84 -1.71,5.55 -3.24,8.02 0,0 -0.01,0.01 -0.01,0.02 -0.38,0.61 -0.79,1.2 -1.22,1.78 -0.01,0.01 -0.02,0.02 -0.02,0.03 l -0.43,0.58 c -0.52,0.6 -1.16,1.33 -1.43,1.62 -0.27,0.29 -1,1.01 -1.01,1.01 0,0 -0.44,0.4 -0.99,0.88 l -0.52,0.41 c -0.06,0.05 -0.12,0.1 -0.18,0.15 -0.5,0.39 -1.02,0.76 -1.55,1.11 -0.09,0.06 -0.19,0.12 -0.28,0.18 -0.54,0.34 -1.08,0.68 -1.66,0.98 -0.08,0.04 -0.17,0.09 -0.26,0.13 -0.6,0.31 -1.21,0.61 -1.84,0.88 -0.63,0.27 -1.27,0.5 -1.91,0.72 -0.09,0.03 -0.19,0.06 -0.29,0.09 -0.61,0.2 -1.22,0.36 -1.84,0.51 -0.11,0.03 -0.23,0.05 -0.35,0.08 -0.62,0.14 -1.24,0.25 -1.86,0.34 -0.09,0.01 -0.18,0.02 -0.27,0.03 -0.65,0.09 -1.3,0.15 -1.95,0.18 -0.72,0.04 -1.43,0.04 -2.14,0.01 -0.72,-0.02 -1.43,-0.08 -2.13,-0.17 -0.03,0 -0.06,-0.01 -0.09,-0.01 -0.7,-0.09 -1.4,-0.2 -2.09,-0.35 -0.02,-0.01 -0.04,-0.01 -0.06,-0.02 -2.82,-0.61 -5.52,-1.7 -7.97,-3.22 -0.02,-0.01 -0.03,-0.02 -0.05,-0.03 -0.6,-0.37 -1.19,-0.78 -1.75,-1.21 -0.02,-0.01 -0.04,-0.02 -0.05,-0.04 l -0.57,-0.43 c -0.6,-0.52 -1.33,-1.16 -1.61,-1.42 -0.29,-0.27 -1.4,-1.45 -1.88,-1.99 l -0.41,-0.52 c -0.05,-0.07 -0.11,-0.13 -0.16,-0.2 -0.39,-0.49 -0.76,-1.01 -1.11,-1.54 -0.06,-0.1 -0.12,-0.19 -0.19,-0.29 -0.34,-0.54 -0.67,-1.08 -0.97,-1.65 -0.05,-0.09 -0.09,-0.18 -0.13,-0.26 -0.32,-0.6 -0.61,-1.21 -0.88,-1.85 -0.27,-0.63 -0.5,-1.27 -0.72,-1.91 -0.03,-0.09 -0.06,-0.19 -0.09,-0.28 -0.2,-0.61 -0.36,-1.23 -0.51,-1.85 -0.02,-0.11 -0.05,-0.23 -0.08,-0.34 -0.14,-0.62 -0.25,-1.24 -0.34,-1.87 -0.01,-0.09 -0.02,-0.17 -0.03,-0.25 l -0.08,-0.65 c -0.06,-0.72 -0.11,-1.63 -0.12,-2.02 -0.01,-0.4 0.05,-2.08 0.09,-2.87 m -19.07,-6.24 2.74,1.11 c 1.6,0.65 2.8,2.58 2.66,4.3 l 0.07,6.89 c 0.15,1.72 -1.01,3.68 -2.6,4.35 l -2.71,1.15 c -1.59,0.67 -2.34,2.53 -1.66,4.11 l 4.23,9.97 c 0.68,1.59 2.52,2.33 4.11,1.66 l 2.71,-1.15 c 1.59,-0.68 3.81,-0.16 4.94,1.15 l 4.91,4.84 c 1.33,1.1 1.89,3.3 1.24,4.9 l -1.1,2.74 c -0.65,1.6 0.14,3.43 1.73,4.08 l 10.04,4.06 c 1.6,0.65 3.44,-0.13 4.08,-1.73 l 1.1,-2.73 c 0.65,-1.6 2.58,-2.8 4.3,-2.66 l 6.9,-0.07 c 1.72,-0.16 3.68,1.01 4.35,2.6 l 1.15,2.71 c 0.67,1.59 2.53,2.33 4.11,1.66 l 9.97,-4.23 c 1.59,-0.67 2.33,-2.52 1.66,-4.11 l -1.15,-2.71 c -0.68,-1.59 -0.16,-3.81 1.15,-4.93 l 4.85,-4.91 c 1.1,-1.33 3.3,-1.89 4.9,-1.25 l 2.74,1.1 c 1.6,0.65 3.43,-0.14 4.08,-1.73 l 4.06,-10.04 c 0.65,-1.6 -0.13,-3.44 -1.73,-4.08 l -2.74,-1.11 c -1.6,-0.64 -2.8,-2.58 -2.66,-4.3 l -0.07,-6.9 c -0.16,-1.72 1.01,-3.68 2.6,-4.35 l 2.71,-1.15 c 1.59,-0.67 2.34,-2.53 1.66,-4.11 l -4.23,-9.97 c -0.67,-1.59 -2.53,-2.34 -4.11,-1.66 l -2.71,1.15 c -1.59,0.67 -3.81,0.16 -4.94,-1.15 l -4.91,-4.84 c -1.33,-1.1 -1.89,-3.3 -1.24,-4.9 l 1.1,-2.74 c 0.65,-1.6 -0.14,-3.44 -1.73,-4.08 l -10.05,-4.06 c -1.59,-0.65 -3.43,0.14 -4.08,1.73 l -1.1,2.74 c -0.65,1.59 -2.58,2.79 -4.3,2.66 l -6.9,0.07 c -1.72,0.16 -3.67,-1.01 -4.35,-2.6 L 243.1,25 c -0.67,-1.59 -2.52,-2.34 -4.11,-1.66 l -9.97,4.23 c -1.59,0.68 -2.34,2.52 -1.66,4.11 l 1.15,2.71 c 0.67,1.59 0.16,3.81 -1.15,4.93 l -4.84,4.91 c -1.1,1.33 -3.3,1.89 -4.9,1.25 l -2.74,-1.1 c -1.6,-0.65 -3.44,0.13 -4.08,1.73 l -4.06,10.04 c -0.65,1.6 0.13,3.44 1.73,4.08"
   clip-path="url(#SVGID_6_)"
   id="path38"
   style="fill:#ffffff" />
</g>
<rect
   x="141.12405"
   y="210.22867"
   transform="rotate(-33.017863)"
   width="6.7199941"
   height="10.809991"
   id="rect42"
   style="fill:#ffffff" />
<rect
   x="154.97653"
   y="302.49335"
   transform="rotate(-41.98849)"
   width="6.7201877"
   height="10.810303"
   id="rect44"
   style="fill:#ffffff;stroke-width:1.00003" />
<polygon
   points="536.63,180.97 536.63,140.55 507.44,140.55 507.44,246.82 536.63,246.82 536.63,216.14 544.71,207.76 571.05,246.82 604.58,246.82 563.27,188.15 601.89,140.55 568.96,140.55 "
   id="polygon46"
   style="fill:#ffffff"
   transform="translate(-14.45,-15.08)" />
<polygon
   points="673.97,180.97 635.35,180.97 635.35,166 680.55,166 680.55,140.55 606.17,140.55 606.17,246.82 681.9,246.82 681.9,221.38 635.35,221.38 635.35,204.61 673.97,204.61 "
   id="polygon48"
   style="fill:#ffffff"
   transform="translate(-14.45,-15.08)" />
<g
   id="g60"
   style="fill:#ffffff"
   transform="translate(-14.45,-15.08)">
	<defs
   id="defs51">
		<rect
   id="SVGID_7_"
   x="14.44"
   y="15.08"
   width="766.03998"
   height="314.88" />
	</defs>
	<clipPath
   id="SVGID_8_">
		<use
   xlink:href="#SVGID_7_"
   style="overflow:visible"
   id="use53"
   x="0"
   y="0"
   width="100%"
   height="100%" />
	</clipPath>
	<path
   class="st3"
   d="m 136.72,41.27 h 11.68 c 4.99,0 9.28,1.15 12.87,3.44 3.59,2.29 6.34,5.51 8.24,9.66 1.89,4.14 2.84,8.96 2.84,14.44 0,5.29 -0.95,10.06 -2.85,14.3 -1.89,4.24 -4.61,7.56 -8.15,9.95 -3.55,2.39 -7.86,3.59 -12.95,3.59 h -11.68 z m 39.88,74.24 c 8.03,-4.39 14.27,-10.58 18.71,-18.56 4.44,-7.98 6.66,-17.36 6.66,-28.14 0,-9.78 -2.02,-18.68 -6.06,-26.72 -4.04,-8.03 -10.03,-14.42 -17.96,-19.16 -7.93,-4.74 -17.78,-7.11 -29.56,-7.11 h -40.86 v 106.27 h 40.86 c 10.78,0 20.18,-2.19 28.21,-6.58"
   clip-path="url(#SVGID_8_)"
   id="path56"
   style="fill:#ffffff" />
	<path
   class="st3"
   d="m 472.36,216.29 c -2.29,1.89 -4.84,3.27 -7.63,4.11 -2.8,0.85 -5.54,1.27 -8.23,1.27 -3.8,0 -7.21,-0.75 -10.25,-2.25 -3.05,-1.5 -5.61,-3.57 -7.71,-6.21 -2.1,-2.64 -3.69,-5.66 -4.79,-9.05 -1.1,-3.39 -1.65,-6.94 -1.65,-10.63 0,-3.29 0.47,-6.58 1.42,-9.88 0.94,-3.29 2.39,-6.29 4.34,-8.98 1.95,-2.69 4.44,-4.87 7.48,-6.51 3.04,-1.65 6.66,-2.47 10.85,-2.47 2.69,0 5.46,0.37 8.31,1.12 2.84,0.75 5.49,2.07 7.93,3.97 2.44,1.9 4.31,4.59 5.61,8.08 l 22.3,-15.87 c -3.69,-6.98 -9.33,-12.6 -16.91,-16.84 -7.59,-4.24 -16.46,-6.36 -26.64,-6.36 -8.48,0 -16.09,1.52 -22.83,4.56 -6.73,3.05 -12.45,7.11 -17.13,12.2 -4.69,5.09 -8.26,10.76 -10.7,16.99 -2.45,6.24 -3.67,12.6 -3.67,19.09 0,6.78 1.3,13.45 3.89,19.98 2.59,6.54 6.26,12.42 11,17.66 4.74,5.24 10.38,9.43 16.91,12.57 6.53,3.14 13.74,4.71 21.62,4.71 6.09,0 12.22,-0.97 18.41,-2.92 6.19,-1.95 11.73,-4.76 16.62,-8.46 4.89,-3.69 8.38,-8.13 10.48,-13.32 l -23.8,-14.22 c -1.19,3.22 -2.94,5.76 -5.23,7.66"
   clip-path="url(#SVGID_8_)"
   id="path58"
   style="fill:#ffffff" />
</g>
<polygon
   points="720.76,166 720.76,246.82 749.94,246.82 749.94,166 780.47,166 780.47,140.55 690.07,140.55 690.07,166 "
   id="polygon62"
   style="fill:#ffffff"
   transform="translate(-14.45,-15.08)" />
<g
   id="g78"
   style="fill:#ffffff"
   transform="translate(-14.45,-15.08)">
	<defs
   id="defs65">
		<rect
   id="SVGID_9_"
   x="14.44"
   y="15.08"
   width="766.03998"
   height="314.88" />
	</defs>
	<clipPath
   id="SVGID_10_">
		<use
   xlink:href="#SVGID_9_"
   style="overflow:visible"
   id="use67"
   x="0"
   y="0"
   width="100%"
   height="100%" />
	</clipPath>
	<path
   class="st4"
   d="m 372.24,195.85 c 0,0 -0.05,0.82 -0.1,1.82 l -0.11,0.9 c 0,0.01 0,0.02 0,0.03 -0.11,0.9 -0.27,1.79 -0.45,2.67 0,0 0,0 0,0.01 -0.76,3.55 -2.13,6.94 -4.04,10.01 0,0.01 -0.01,0.01 -0.01,0.02 -0.47,0.76 -0.98,1.5 -1.52,2.22 -0.01,0.02 -0.02,0.02 -0.03,0.04 l -0.54,0.72 c -0.65,0.76 -1.45,1.66 -1.78,2.02 -0.34,0.36 -1.26,1.26 -1.26,1.26 0,0 -0.56,0.49 -1.23,1.1 l -0.65,0.52 c -0.08,0.06 -0.15,0.13 -0.23,0.19 -0.62,0.49 -1.27,0.95 -1.94,1.39 -0.11,0.07 -0.23,0.15 -0.35,0.23 -0.67,0.43 -1.36,0.84 -2.07,1.22 -0.1,0.06 -0.21,0.11 -0.32,0.17 -0.75,0.39 -1.51,0.76 -2.31,1.1 v 0 c -0.79,0.34 -1.59,0.63 -2.39,0.9 -0.11,0.04 -0.24,0.08 -0.35,0.12 -0.76,0.25 -1.53,0.45 -2.3,0.63 -0.14,0.03 -0.29,0.07 -0.43,0.1 -0.77,0.17 -1.55,0.31 -2.32,0.43 -0.11,0.01 -0.22,0.03 -0.34,0.04 -0.81,0.11 -1.62,0.19 -2.43,0.23 -0.9,0.04 -1.79,0.05 -2.67,0.02 -0.9,-0.03 -1.78,-0.11 -2.67,-0.21 -0.04,0 -0.07,-0.01 -0.1,-0.01 -0.88,-0.11 -1.75,-0.25 -2.61,-0.44 -0.02,-0.01 -0.05,-0.01 -0.07,-0.02 -3.52,-0.76 -6.89,-2.12 -9.95,-4.02 -0.02,-0.01 -0.04,-0.02 -0.05,-0.03 -0.75,-0.47 -1.48,-0.97 -2.2,-1.51 -0.02,-0.01 -0.04,-0.03 -0.07,-0.04 l -0.72,-0.54 c -0.75,-0.65 -1.66,-1.45 -2.01,-1.78 -0.36,-0.33 -1.75,-1.81 -2.35,-2.48 l -0.51,-0.65 c -0.06,-0.08 -0.14,-0.16 -0.2,-0.25 -0.48,-0.62 -0.94,-1.26 -1.38,-1.93 -0.08,-0.12 -0.15,-0.24 -0.23,-0.36 -0.43,-0.67 -0.84,-1.35 -1.22,-2.06 -0.06,-0.11 -0.11,-0.22 -0.17,-0.33 -0.39,-0.74 -0.76,-1.51 -1.1,-2.3 -0.33,-0.79 -0.63,-1.59 -0.9,-2.39 -0.04,-0.12 -0.08,-0.23 -0.12,-0.35 -0.24,-0.76 -0.45,-1.53 -0.63,-2.31 -0.03,-0.14 -0.07,-0.28 -0.1,-0.42 -0.17,-0.78 -0.31,-1.56 -0.43,-2.34 -0.02,-0.11 -0.03,-0.21 -0.04,-0.32 l -0.11,-0.82 c -0.07,-0.9 -0.13,-2.04 -0.15,-2.52 -0.01,-0.49 0.05,-2.58 0.11,-3.57 l 0.11,-0.89 c 0,-0.02 0,-0.05 0.01,-0.07 0.11,-0.89 0.26,-1.76 0.44,-2.63 0,-0.02 0.01,-0.04 0.01,-0.06 0.76,-3.53 2.12,-6.9 4.02,-9.97 0.01,-0.02 0.02,-0.03 0.03,-0.05 0.47,-0.75 0.97,-1.48 1.51,-2.2 0.02,-0.02 0.03,-0.05 0.05,-0.07 0.54,-0.72 1.11,-1.41 1.71,-2.08 l 0.59,-0.65 c 0.69,-0.69 1.82,-1.74 2.5,-2.34 l 0.65,-0.51 c 0.08,-0.07 0.16,-0.13 0.24,-0.19 0.62,-0.49 1.27,-0.95 1.94,-1.39 0.11,-0.07 0.23,-0.15 0.34,-0.22 0.68,-0.43 1.37,-0.84 2.08,-1.23 0.1,-0.05 0.2,-0.1 0.3,-0.16 0.75,-0.39 1.52,-0.76 2.32,-1.1 0.8,-0.34 1.6,-0.63 2.41,-0.9 0.1,-0.04 0.21,-0.07 0.31,-0.11 0.78,-0.25 1.56,-0.46 2.34,-0.65 0.13,-0.03 0.25,-0.06 0.38,-0.09 0.79,-0.18 1.58,-0.32 2.37,-0.43 0.09,-0.01 0.18,-0.02 0.27,-0.03 l 0.83,-0.11 c 0.91,-0.07 1.66,-0.13 1.66,-0.13 0,0 0.4,-0.01 0.89,-0.02 0.49,-0.01 1.77,0.01 1.77,0.01 0,0 0.82,0.05 1.82,0.11 l 0.9,0.11 c 0.01,0 0.02,0 0.03,0 5.41,0.67 10.58,2.76 14.94,6.04 0.01,0.01 0.02,0.01 0.02,0.02 l 0.72,0.54 c 0.76,0.65 1.38,1.19 1.38,1.19 0,0 0.29,0.27 0.65,0.61 0.35,0.33 1.26,1.25 1.25,1.26 0,0 0.5,0.56 1.11,1.24 l 0.52,0.66 c 0.05,0.07 0.11,0.13 0.16,0.2 0.49,0.63 0.96,1.29 1.41,1.97 0.07,0.11 0.14,0.21 0.2,0.31 0.44,0.68 0.85,1.38 1.24,2.11 0.05,0.09 0.09,0.18 0.14,0.27 0.4,0.76 0.78,1.54 1.12,2.34 0.34,0.8 0.64,1.61 0.9,2.43 0.03,0.1 0.07,0.19 0.1,0.29 0.25,0.79 0.47,1.57 0.65,2.36 0.03,0.12 0.06,0.25 0.08,0.36 0.18,0.79 0.33,1.59 0.44,2.38 0.01,0.09 0.02,0.17 0.03,0.25 l 0.11,0.83 c 0.07,0.92 0.13,1.66 0.13,1.66 0,-0.01 0.04,1.28 0.04,1.77 -0.01,0.46 -0.02,0.86 -0.02,0.85 m 23.72,9.59 -3.42,-1.38 c -2,-0.81 -3.49,-3.22 -3.32,-5.37 l -0.09,-8.62 c -0.2,-2.14 1.26,-4.59 3.25,-5.43 l 3.38,-1.44 c 1.98,-0.84 2.92,-3.15 2.08,-5.14 l -5.29,-12.46 c -0.84,-1.98 -3.15,-2.92 -5.14,-2.07 l -3.38,1.44 c -1.98,0.84 -4.76,0.2 -6.16,-1.44 l -6.13,-6.04 c -1.66,-1.37 -2.36,-4.12 -1.55,-6.12 l 1.38,-3.41 c 0.81,-2 -0.17,-4.29 -2.16,-5.1 l -12.55,-5.07 c -2,-0.81 -4.29,0.17 -5.09,2.16 l -1.38,3.41 c -0.81,2 -3.22,3.49 -5.37,3.32 l -8.62,0.09 c -2.14,0.2 -4.59,-1.26 -5.43,-3.25 l -1.44,-3.39 c -0.84,-1.98 -3.15,-2.92 -5.14,-2.07 l -12.46,5.28 c -1.98,0.85 -2.92,3.16 -2.07,5.14 l 1.44,3.39 c 0.84,1.98 0.2,4.76 -1.44,6.16 l -6.04,6.13 c -1.37,1.66 -4.13,2.36 -6.12,1.56 l -3.42,-1.38 c -2,-0.81 -4.29,0.17 -5.09,2.17 l -5.07,12.54 c -0.81,2 0.17,4.29 2.17,5.1 l 3.41,1.38 c 2,0.81 3.49,3.22 3.32,5.37 l 0.09,8.61 c 0.2,2.14 -1.26,4.59 -3.25,5.43 l -3.39,1.44 c -1.98,0.84 -2.92,3.15 -2.07,5.14 l 5.28,12.45 c 0.84,1.98 3.16,2.92 5.14,2.07 l 3.39,-1.44 c 1.98,-0.84 4.76,-0.2 6.16,1.44 l 6.13,6.05 c 1.66,1.37 2.36,4.13 1.55,6.12 l -1.38,3.41 c -0.81,2 0.17,4.29 2.16,5.1 l 12.55,5.07 c 2,0.81 4.29,-0.16 5.1,-2.16 l 1.38,-3.41 c 0.81,-2 3.23,-3.5 5.37,-3.32 l 8.61,-0.09 c 2.15,-0.2 4.59,1.26 5.43,3.25 l 1.44,3.39 c 0.84,1.98 3.15,2.92 5.14,2.07 l 12.46,-5.29 c 1.98,-0.84 2.92,-3.15 2.07,-5.14 l -1.44,-3.39 c -0.84,-1.98 -0.2,-4.76 1.44,-6.16 l 6.04,-6.13 c 1.37,-1.66 4.13,-2.36 6.12,-1.55 l 3.41,1.38 c 2,0.81 4.29,-0.17 5.1,-2.16 l 5.07,-12.55 c 0.81,-1.99 -0.17,-4.28 -2.16,-5.09"
   clip-path="url(#SVGID_10_)"
   id="path70"
   style="fill:#ffffff" />
	<path
   class="st4"
   d="m 86.13,188.24 c -4.79,-2.57 -10.48,-4.85 -17.06,-6.83 -4.09,-1.28 -7.61,-2.37 -10.56,-3.26 -2.94,-0.89 -5.21,-1.88 -6.81,-2.97 -1.6,-1.09 -2.4,-2.52 -2.4,-4.3 0,-1.88 0.8,-3.21 2.4,-4 1.59,-0.79 3.64,-1.19 6.14,-1.19 3.19,0 6.43,0.5 9.73,1.5 3.29,1 6.33,2.12 9.13,3.37 2.79,1.25 5.89,2.87 9.28,4.87 l 12.58,-24.1 c -3.19,-1.59 -6.91,-3.29 -11.15,-5.09 -4.24,-1.8 -8.78,-3.32 -13.62,-4.56 -4.84,-1.25 -9.85,-1.87 -15.04,-1.87 -6.99,0 -13.5,1.36 -19.53,4.09 -6.04,2.72 -10.9,6.71 -14.6,11.97 -3.69,5.25 -5.54,11.79 -5.54,19.62 0,5.16 0.95,9.54 2.85,13.16 1.89,3.62 4.84,6.74 8.83,9.36 3.99,2.63 9.08,4.98 15.27,7.06 4.29,1.39 8.21,2.61 11.75,3.64 3.54,1.04 6.41,2.13 8.61,3.27 2.19,1.14 3.29,2.75 3.29,4.83 0,1.33 -0.63,2.4 -1.87,3.21 -1.25,0.81 -3.47,1.21 -6.66,1.21 -4.09,0 -8.16,-0.6 -12.2,-1.8 -4.04,-1.2 -7.71,-2.54 -11,-4.04 -3.29,-1.5 -6.94,-3.44 -10.93,-5.84 l -12.57,25.6 c 4.29,2.49 9.03,4.67 14.22,6.51 5.19,1.85 10.55,3.29 16.09,4.34 5.54,1.05 10.85,1.57 15.94,1.57 4.99,0 9.88,-0.57 14.67,-1.71 4.79,-1.14 9.13,-2.99 13.02,-5.57 3.89,-2.57 6.98,-6 9.28,-10.31 2.29,-4.3 3.44,-9.61 3.44,-15.94 0,-6.62 -1.3,-11.94 -3.89,-15.94 -2.61,-4 -6.3,-7.28 -11.09,-9.86"
   clip-path="url(#SVGID_10_)"
   id="path72"
   style="fill:#ffffff" />
	<path
   class="st4"
   d="m 248.24,183.51 c -0.75,1.7 -1.67,2.99 -2.77,3.89 -1.1,0.9 -2.25,1.35 -3.44,1.35 H 223.62 V 166 h 17.66 c 1.19,0 2.42,0.45 3.66,1.35 1.25,0.9 2.29,2.17 3.14,3.82 0.85,1.64 1.27,3.72 1.27,6.21 0.01,2.39 -0.37,4.44 -1.11,6.13 m 23.72,16.09 c 2.29,-3.14 4.04,-6.61 5.24,-10.4 1.19,-3.79 1.8,-7.73 1.8,-11.82 0,-4.49 -0.88,-8.93 -2.62,-13.32 -1.75,-4.39 -4.22,-8.35 -7.41,-11.9 -3.2,-3.54 -6.99,-6.36 -11.38,-8.46 -4.39,-2.1 -9.18,-3.14 -14.37,-3.14 h -48.79 v 106.27 h 29.19 V 214.2 h 11.82 l 18.71,32.63 h 32.03 l -22.45,-39.07 c 3.19,-2.3 5.93,-5.02 8.23,-8.16"
   clip-path="url(#SVGID_10_)"
   id="path74"
   style="fill:#ffffff" />
	<path
   class="st4"
   d="m 158.05,184.11 c -0.75,1.7 -1.67,2.9 -2.77,3.59 -1.1,0.7 -2.25,1.05 -3.44,1.05 H 136.42 V 166 h 14.67 c 1.2,0 2.42,0.32 3.67,0.97 1.24,0.65 2.29,1.8 3.14,3.44 0.85,1.64 1.27,3.97 1.27,6.96 0,2.8 -0.37,5.04 -1.12,6.74 m 20.73,-31.95 c -3.19,-3.54 -6.98,-6.36 -11.38,-8.46 -4.39,-2.1 -9.18,-3.14 -14.37,-3.14 h -45.8 v 106.27 h 29.19 V 214.2 h 17.36 c 6.98,0 13.09,-1.77 18.33,-5.31 5.24,-3.54 9.33,-8.11 12.27,-13.7 2.94,-5.59 4.42,-11.52 4.42,-17.81 0,-4.49 -0.87,-8.93 -2.62,-13.32 -1.74,-4.4 -4.21,-8.36 -7.4,-11.9"
   clip-path="url(#SVGID_10_)"
   id="path76"
   style="fill:#ffffff" />
</g>
</svg>
