<?xml version="1.0" encoding="UTF-8" standalone="no"?>
<!-- Created with Inkscape (http://www.inkscape.org/) -->

<svg
   width="335.1543mm"
   height="612.74438mm"
   viewBox="0 0 335.1543 612.74438"
   version="1.1"
   id="svg868"
   inkscape:version="1.1.2 (0a00cf5339, 2022-02-04)"
   sodipodi:docname="emu_body.svg"
   xmlns:inkscape="http://www.inkscape.org/namespaces/inkscape"
   xmlns:sodipodi="http://sodipodi.sourceforge.net/DTD/sodipodi-0.dtd"
   xmlns="http://www.w3.org/2000/svg"
   xmlns:svg="http://www.w3.org/2000/svg">
  <sodipodi:namedview
     id="namedview870"
     pagecolor="#ffffff"
     bordercolor="#666666"
     borderopacity="1.0"
     inkscape:pageshadow="2"
     inkscape:pageopacity="0.0"
     inkscape:pagecheckerboard="0"
     inkscape:document-units="mm"
     showgrid="false"
     inkscape:zoom="0.19842738"
     inkscape:cx="-561.91843"
     inkscape:cy="1617.7203"
     inkscape:window-width="1920"
     inkscape:window-height="1007"
     inkscape:window-x="1920"
     inkscape:window-y="0"
     inkscape:window-maximized="1"
     inkscape:current-layer="layer1" />
  <defs
     id="defs865" />
  <g
     inkscape:label="Layer 1"
     inkscape:groupmode="layer"
     id="layer1"
     transform="translate(-27.594053,221.98643)">
    <path
       style="fill:#000000;stroke-width:0.264583"
       d="m 168.3109,390.28931 c -1.36593,-0.70258 -2.109,-1.83454 -2.66274,-4.05633 -0.35632,-1.42965 -0.55892,-1.81057 -1.00826,-1.89555 -7.07372,-1.33821 -12.43952,-3.52462 -16.97913,-6.91854 -4.30873,-3.22127 -5.70075,-5.66671 -6.46485,-11.35716 -0.88342,-6.57908 0.12684,-26.79747 3.04074,-60.85416 1.08389,-12.66807 0.92791,-12.11274 4.43052,-15.77338 1.77618,-1.85629 2.59885,-2.48928 4.43018,-3.40868 3.37242,-1.69312 4.63189,-2.58188 7.60014,-5.36313 3.63087,-3.40214 5.33119,-4.25783 8.50278,-4.27908 1.96825,-0.0132 2.34,-0.0888 2.67721,-0.54448 5.08985,-6.87817 13.01703,-14.77071 20.32735,-20.23857 1.97793,-1.47944 2.95512,-2.37455 2.88348,-2.64128 -0.0596,-0.22193 -4.70807,-8.90026 -10.32993,-19.28521 -5.62186,-10.38495 -10.33011,-19.27485 -10.46278,-19.75533 -0.13612,-0.493 -1.30736,-2.09645 -2.68827,-3.68033 -2.14728,-2.46287 -2.49909,-2.76325 -2.87175,-2.45197 -0.23358,0.1951 -1.67484,1.4315 -3.20281,2.74751 -3.20004,2.75619 -3.5911,2.9958 -4.88942,2.9958 -1.37104,0 -2.14464,-0.86767 -2.37986,-2.66925 -0.62687,-4.80121 -4.21583,-21.07488 -4.77003,-21.62908 -0.0773,-0.0773 -1.65656,1.34827 -3.50947,3.16791 -7.0157,6.88981 -12.39035,10.7932 -28.37205,20.60554 -17.06382,10.47673 -21.686632,13.80866 -30.767251,22.17568 -5.435446,5.00833 -12.709945,12.79456 -16.356867,17.50753 -5.026826,6.49624 -8.343182,12.9988 -9.639749,18.9012 -0.545695,2.48417 -1.205169,3.3238 -2.610618,3.3238 -1.826008,0 -2.171625,-0.36531 -4.113342,-4.34766 -2.877245,-5.90108 -4.940473,-10.9489 -7.036729,-17.21588 -4.053794,-12.11921 -6.269927,-23.65142 -7.01657,-36.5125 -0.168962,-2.91041 -0.339764,-5.32799 -0.379559,-5.37239 -0.294919,-0.32901 -7.868606,10.82183 -9.938653,14.63281 -0.632351,1.16417 -1.473218,2.44409 -1.868594,2.84427 -0.989654,1.00169 -2.307645,0.99176 -3.446635,-0.0259 l -0.84333,-0.75353 0.05041,-3.94282 c 0.276178,-21.60024 1.885848,-43.60588 4.275287,-58.44699 4.334111,-26.91971 13.296928,-49.64795 26.287026,-66.659574 1.104723,-1.446715 1.972982,-2.666021 1.929466,-2.709518 -0.04352,-0.04352 -2.511081,0.632063 -5.483479,1.501298 -2.972398,0.869236 -5.782178,1.5825 -6.243956,1.58504 -1.002143,0.0056 -2.335294,-1.019308 -2.576587,-1.980698 -0.293242,-1.168373 2.68142,-7.671725 6.015195,-13.150717 5.876555,-9.658006 14.874245,-19.103022 26.240571,-27.545136 6.543865,-4.860342 15.159519,-10.258927 25.596634,-16.038914 3.00459,-1.663917 5.40912,-3.112304 5.34341,-3.218635 -0.2167,-0.350626 -4.43022,-1.855867 -7.39212,-2.640767 -1.60073,-0.42419 -4.339175,-0.962408 -6.085425,-1.196041 -1.74625,-0.233629 -3.452836,-0.600376 -3.792413,-0.814993 -1.290246,-0.815451 -1.630981,-2.964315 -0.615561,-3.882099 0.586547,-0.530151 8.637982,-4.520358 12.610059,-6.249416 20.71558,-9.017561 40.56216,-13.9552835 64.02917,-15.9301203 2.29069,-0.1927701 8.31388,-0.337132 14.24538,-0.3414289 l 10.27663,-0.00745 -1.54538,-1.3983837 c -2.6044,-2.3566675 -5.64892,-4.75878255 -8.48725,-6.6963977 -2.88628,-1.9703547 -3.24459,-2.3766515 -3.24459,-3.6791767 0,-2.2202378 0.77532,-2.5263131 7.27604,-2.8723908 16.37311,-0.8716512 29.15289,-0.4746968 41.87836,1.3007843 15.03183,2.0972674 29.28552,6.38025502 41.33488,12.4204146 3.67741,1.8434288 3.31005,2.0893379 3.55861,-2.3821416 0.18871,-3.39487927 1.04741,-9.4444951 1.84293,-12.983657 0.32474,-1.4447182 0.51322,-2.6267602 0.41886,-2.6267602 -0.0944,0 -1.11238,0.654844 -2.26225,1.455209 -2.39149,1.6645996 -3.7107,1.9048466 -4.97946,0.906838 l -0.69714,-0.54837 0.006,-8.645901 c 0.004,-4.755245 0.11907,-11.437517 0.25666,-14.849488 0.13759,-3.411974 0.20001,-6.25375 0.1387,-6.315054 -0.0613,-0.06131 -1.14612,0.795544 -2.4107,1.904109 -2.46467,2.1606 -3.11271,2.390767 -4.58607,1.628865 -0.88186,-0.456026 -1.33655,-1.4868 -2.24379,-5.086546 -1.38636,-5.500867 -1.82451,-9.264827 -1.85479,-15.933968 l -0.0221,-4.870764 -1.75737,-0.744511 c -4.49748,-1.905363 -6.36569,-2.210742 -17.42491,-2.848296 -4.04511,-0.233195 -5.43285,-0.532966 -8.0698,-1.743164 -3.83657,-1.760758 -6.73035,-4.649595 -8.74995,-8.735 -2.81845,-5.701379 -3.08707,-11.942561 -0.70456,-16.369476 1.52308,-2.830013 4.65869,-5.220798 7.88285,-6.010373 0.7189,-0.176051 1.34311,-0.348483 1.38715,-0.383178 0.044,-0.0347 -0.46322,-1.335044 -1.12724,-2.889664 -1.15903,-2.71357 -3.69142,-9.62565 -4.39471,-11.99526 -0.25526,-0.86006 -0.43834,-1.09603 -0.75485,-0.97293 -2.24238,0.87214 -6.21403,0.76525 -9.42708,-0.25373 -3.9808,-1.26246 -9.27067,-4.82863 -13.76476,-9.27955 -3.14896,-3.1187 -4.17091,-5.07363 -4.30577,-8.23671 -0.11278,-2.64505 0.33792,-4.35569 1.99458,-7.57041 1.15265,-2.23669 2.36502,-3.63975 3.14506,-3.63975 0.54919,0 0.47867,-0.18323 -0.55699,-1.44711 -1.59195,-1.94277 -3.53981,-5.4319 -4.27828,-7.66352 -0.62018,-1.87415 -0.70805,-2.56935 -0.72115,-5.70604 -0.0172,-4.128 0.34369,-5.81219 1.95622,-9.12813 1.25245,-2.57547 3.06612,-4.86574 5.2003,-6.56685 l 1.59982,-1.27519 -0.35334,-1.36216 c -0.76938,-2.96604 -0.17606,-7.18949 1.46735,-10.44506 0.43913,-0.86991 1.51669,-2.53488 2.39458,-3.69992 3.40349,-4.51677 11.1343,-10.91892 13.18109,-10.91571 0.81695,0.001 0.86005,-0.0482 0.86303,-0.99083 0.0149,-4.6943 3.80994,-9.1906 8.86965,-10.50848 2.6522,-0.69081 5.58253,-0.43871 6.98921,0.6013 0.69176,0.51144 0.70407,0.51099 2.2725,-0.0843 2.94545,-1.11789 3.23783,-1.28059 3.69649,-2.05703 0.94081,-1.59266 3.82713,-4.34465 5.48176,-5.22664 3.16755,-1.68843 7.12681,-1.33775 10.25288,0.90811 l 1.29159,0.92791 2.99483,-0.75116 c 8.00153,-2.00693 17.33033,-2.35242 21.49051,-0.7959 2.0196,0.75563 4.07972,2.69449 5.27022,4.96001 l 0.95188,1.81143 4.57445,0.3231 c 9.21054,0.65055 12.817,1.95372 15.90241,5.74621 3.01598,3.70713 4.9439,9.99107 4.9439,16.11429 v 2.20715 l 2.18281,1.05656 c 5.31873,2.57446 9.65449,6.19462 11.38499,9.50601 1.28302,2.4551 1.77237,4.26198 1.95255,7.20984 0.2943,4.81477 -0.74078,10.18059 -2.75606,14.2875 -1.02108,2.0808 -1.62245,2.90348 -3.49313,4.77846 -1.90717,1.91157 -3.77794,3.21868 -5.50395,3.84566 -0.0381,0.0138 0.5832,1.65114 1.38065,3.63846 0.79743,1.98732 2.24629,6.08365 3.21964,9.10297 0.97335,3.01931 1.79509,5.52379 1.8261,5.5655 0.031,0.0417 0.69691,-0.17741 1.47981,-0.48694 4.61749,-1.82558 10.48592,-0.37577 14.40831,3.55962 3.06816,3.07833 4.23984,6.25008 4.01648,10.87272 -0.23937,4.95388 -2.34005,9.35697 -5.96138,12.49526 -2.66448,2.30907 -5.9047,5.640985 -7.84928,8.071421 -1.48249,1.852872 -1.67093,2.201349 -1.27048,2.349484 1.14292,0.422791 6.16363,6.325182 8.86603,10.423007 1.96527,2.980044 4.87902,8.83259 5.82917,11.708479 0.65325,1.97731 0.68746,2.264605 0.36221,3.042708 -0.19754,0.472575 -0.55586,1.022347 -0.79626,1.221713 -0.24175,0.200499 -2.1131,0.585418 -4.18756,0.861349 -2.06277,0.274375 -3.79307,0.541441 -3.84511,0.593479 -0.0521,0.05204 1.02417,2.362536 2.39159,5.134432 5.42232,10.991639 8.44045,19.412924 9.82221,27.406129 0.59962,3.468748 0.97829,9.253821 0.7721,11.795895 -0.15218,1.876324 -0.28135,2.325851 -0.80885,2.814717 -0.88551,0.820669 -1.4708,0.868802 -4.45887,0.366688 -1.45073,-0.243779 -2.67067,-0.417493 -2.711,-0.386035 -0.0403,0.03146 0.56857,1.532337 1.35306,3.33528 5.88533,13.5257566 9.35698,27.526464 10.48654,42.290864 0.44853,5.862439 0.40304,6.537767 -0.50114,7.441944 -1.02714,1.027146 -2.19901,1.016849 -4.288,-0.03768 -0.88371,-0.44609 -1.65671,-0.76109 -1.71781,-0.699998 -0.0611,0.06109 0.85582,1.705997 2.03761,3.655346 3.52716,5.818097 5.61938,10.334561 7.94494,17.150731 3.35518,9.834033 4.84605,18.976445 4.83555,29.652912 -0.0111,11.368643 -1.78115,21.312155 -5.58099,31.353125 -1.46846,3.88038 -4.32213,9.92529 -4.91371,10.40868 -0.23863,0.19497 -0.91144,0.41857 -1.49519,0.49686 -0.95411,0.12798 -1.1489,0.0496 -1.9286,-0.77639 -0.47699,-0.5053 -1.39779,-1.79398 -2.04621,-2.86369 -1.20422,-1.98663 -3.57835,-5.0165 -3.93078,-5.0165 -0.1076,0 -0.79899,0.80367 -1.53641,1.78593 -0.73742,0.98227 -2.28507,2.8575 -3.43924,4.16719 -1.15416,1.30969 -2.91639,3.57188 -3.91604,5.02708 -3.85286,5.60864 -7.28856,9.7276 -12.54234,15.03672 -7.41576,7.49382 -14.96022,13.26994 -23.79546,18.2181 -6.69726,3.75076 -9.97547,5.04449 -12.89621,5.08942 l -1.32292,0.0204 -0.30602,-4.23333 c -0.16831,-2.32833 -0.31714,-4.80859 -0.33073,-5.51169 l -0.0247,-1.27834 -0.85989,0.52718 c -3.50482,2.14871 -9.30325,5.05471 -13.43883,6.73516 l -0.93726,0.38084 2.2057,6.71716 c 2.45705,7.48268 2.72972,8.88407 2.00016,10.28007 -0.81194,1.55363 -1.9235,1.99898 -4.88739,1.95818 l -2.55605,-0.0352 -0.15641,0.83376 c -0.086,0.45857 -0.38619,1.26248 -0.66702,1.78646 l -0.51062,0.95269 4.89808,11.61018 c 9.97316,23.63996 10.62786,25.77827 10.34437,33.78544 -0.10753,3.03718 -0.26806,4.20611 -0.8408,6.12214 -1.59999,5.35252 -4.65438,9.44644 -8.56194,11.47588 -2.75513,1.43089 -4.55836,1.84891 -9.35105,2.1677 -2.23599,0.14872 -5.00483,0.45368 -6.153,0.67768 -4.49181,0.87635 -8.8834,3.15005 -15.35319,7.94898 -2.02533,1.50231 -3.79502,2.76897 -3.93262,2.81482 -0.13761,0.0459 0.55375,1.68625 1.53636,3.64527 2.36551,4.7161 3.96184,8.47757 6.08352,14.33473 2.12446,5.86486 4.89044,11.60349 7.81537,16.21465 1.19997,1.89177 2.87588,4.54448 3.72423,5.89494 3.03382,4.82936 8.04886,13.80085 11.5839,20.72264 3.41233,6.68155 3.62411,7.02525 4.17673,6.77847 0.41251,-0.1842 1.56893,-0.0978 3.96875,0.29655 5.33645,0.87688 10.04058,1.19028 15.29286,1.01883 10.09195,-0.32941 15.51274,-1.49392 29.63334,-6.36596 6.44482,-2.22366 8.584,-2.65155 12.408,-2.48184 3.30068,0.14644 5.73059,0.83788 8.30091,2.36196 2.19546,1.30183 4.35094,3.56642 5.37551,5.64764 0.76957,1.56321 0.89254,2.09875 0.96438,4.19986 0.0673,1.96863 -0.0274,2.72203 -0.51866,4.12795 l -0.60098,1.71979 0.88593,1.71979 c 0.74721,1.45053 0.86863,1.93072 0.77544,3.06695 -0.27059,3.29988 -3.72954,5.05756 -6.91102,3.51189 l -1.16279,-0.56494 -1.74014,1.39449 c -0.95707,0.76695 -1.80938,1.57483 -1.89396,1.79528 -0.0846,0.22045 0.1611,1.00308 0.54599,1.73918 0.84196,1.6102 0.93197,3.32065 0.24985,4.74864 -1.17166,2.45295 -3.88142,3.19979 -7.00482,1.93061 -0.93229,-0.3788 -1.78639,-0.68876 -1.89796,-0.68876 -0.1116,0 -1.07437,0.62526 -2.1395,1.38943 -1.42852,1.02492 -4.14973,2.35746 -10.37212,5.07915 -5.32561,2.32942 -10.4458,4.79494 -13.88832,6.68764 -11.1304,6.11947 -15.3222,8.04838 -20.2695,9.32722 -5.98995,1.5484 -11.44274,1.65314 -21.43967,0.41188 -5.45561,-0.67739 -6.28181,-0.92827 -8.05462,-2.44573 -2.13719,-1.82936 -3.06914,-3.9941 -4.23039,-9.82644 -1.0265,-5.15554 -1.6367,-10.10476 -1.68772,-13.68883 -0.0399,-2.80225 -0.005,-3.00461 0.77954,-4.52638 l 0.82129,-1.59301 -0.98771,-2.74965 c -0.54324,-1.51231 -1.46462,-3.82122 -2.04751,-5.13091 -1.97093,-4.42844 -14.22322,-28.77971 -19.16995,-38.1 -7.19251,-13.55167 -13.40896,-25.08155 -13.65633,-25.3289 -0.11888,-0.11888 -0.89958,0.2332 -1.73489,0.78242 -1.11786,0.73499 -3.34757,3.09306 -8.44706,8.93334 -3.81057,4.36414 -7.25908,8.31273 -7.66336,8.77467 l -0.73506,0.83989 0.64179,0.94573 c 0.90197,1.32913 1.32393,3.33547 1.14652,5.45158 -0.0821,0.97893 -0.8187,4.19658 -1.63695,7.15031 -2.92322,10.55232 -5.07199,20.17718 -6.76149,30.28638 -0.77158,4.61679 -0.82628,5.33537 -0.67026,8.8043 0.0934,2.07748 0.27839,4.0626 0.411,4.41137 0.24525,0.64505 0.33619,0.69316 12.44054,6.57963 2.25558,1.09691 4.78927,2.54339 5.63044,3.2144 4.54539,3.62593 6.6118,9.88084 4.64595,14.063 -0.2998,0.63778 -0.71056,1.15959 -0.91282,1.15959 -0.20225,0 -0.36773,0.16859 -0.36773,0.37465 0,0.79735 -2.82399,2.57477 -5.46107,3.43715 l -1.36003,0.44476 -0.18556,1.50974 c -0.34708,2.82401 -1.68163,4.28787 -3.9091,4.28787 -1.67987,0 -2.79707,-0.83011 -3.76862,-2.80014 l -0.79375,-1.60952 -3.83646,0.022 c -2.11005,0.0122 -5.20567,-0.0375 -6.87916,-0.11027 l -3.04271,-0.1323 -0.14234,1.32292 c -0.0783,0.72761 -0.28252,1.57528 -0.45387,1.88375 -0.47939,0.863 -2.12244,1.50046 -4.16629,1.61642 -1.49189,0.0847 -2.05791,0 -2.91042,-0.43926 z m 85.3089,-42.23385 c -2.57766,-6.33598 -6.25687,-14.68623 -9.48697,-21.5314 -2.61464,-5.54087 -2.83031,-6.47348 -1.63419,-7.06643 1.27578,-0.63246 1.60663,-0.20413 4.44376,5.75328 3.65843,7.68199 10.47031,23.42166 11.81422,27.29817 0.15153,0.4371 0.25208,0.42479 1.42533,-0.17465 1.25115,-0.63923 2.98208,-2.13167 2.98208,-2.57119 0,-0.1256 -3.35244,-7.32697 -7.44987,-16.00301 -6.49285,-13.7482 -7.41844,-15.86402 -7.20518,-16.47039 0.28594,-0.81306 1.49721,-1.35355 2.13367,-0.95207 0.3455,0.21793 3.53071,6.81278 13.34547,27.63125 0.91737,1.94588 1.0983,2.18157 1.34254,1.74898 0.15525,-0.27498 0.3748,-2.06092 0.48788,-3.96875 l 0.2056,-3.46877 -1.85044,-4.10104 c -2.4878,-5.51357 -7.75135,-15.78322 -10.91646,-21.29896 -3.01504,-5.25423 -6.37188,-10.45104 -6.75076,-10.45104 -0.14578,0 -0.89254,0.4803 -1.65948,1.06736 -1.66357,1.27333 -7.32926,4.09839 -10.65485,5.31272 -1.30968,0.47824 -2.42787,0.90226 -2.48486,0.94226 -0.057,0.04 3.17561,6.5944 7.18355,14.56529 7.98574,15.8819 8.91024,17.89393 10.91403,23.75299 l 1.35731,3.96875 1.43686,0.58719 c 0.79027,0.32295 1.81684,0.59085 2.28127,0.59532 l 0.8444,0.008 -2.10491,-5.17398 z m -19.50798,-44.87304 c 3.31909,-1.32551 6.81082,-3.23596 8.66819,-4.74268 l 0.84122,-0.68239 -0.98628,-1.68283 c -1.5143,-2.58376 -3.34894,-6.62591 -4.86134,-10.7107 -4.56145,-12.31985 -4.29284,-11.76044 -19.05727,-39.6875 -4.46216,-8.44021 -10.41807,-19.72138 -13.23536,-25.06927 -3.10037,-5.88526 -5.27208,-9.72344 -5.50169,-9.72344 -0.20864,0 -2.74944,-1.49355 -5.64622,-3.31899 l -5.26687,-3.31898 -0.61534,0.73929 c -6.60553,7.93613 -7.84435,9.52215 -7.74449,9.91497 0.0621,0.24443 7.67162,14.41286 16.90998,31.48542 17.56273,32.45607 22.8906,42.38395 28.13256,52.42179 l 3.15158,6.03496 0.8545,-0.13047 c 0.46997,-0.0717 2.43055,-0.75988 4.35683,-1.52918 z m -42.29775,-14.08047 c 9.95685,-11.36983 11.26693,-12.74479 13.34006,-14.00055 0.76399,-0.46279 1.38907,-0.91448 1.38907,-1.00375 0,-0.13891 -8.4063,-15.8083 -8.62938,-16.08522 -0.044,-0.0546 -0.94667,0.54071 -2.00595,1.32292 -6.83419,5.04669 -14.5034,12.60147 -19.34871,19.06003 -1.16491,1.55278 -1.65004,2.5318 -2.4237,4.89127 -0.53199,1.62248 -0.92906,3.32028 -0.88237,3.77293 0.0815,0.79015 0.17089,0.70938 2.239,-2.02387 3.29863,-4.35952 6.77748,-8.27408 11.24373,-12.65201 4.6165,-4.52517 7.19126,-6.73134 7.85599,-6.73134 1.58716,0 2.1815,1.91288 0.90503,2.91282 -2.23899,1.7539 -8.03551,7.28636 -10.59523,10.11256 -5.61995,6.20498 -10.77921,13.09722 -10.53436,14.07279 0.1754,0.69882 1.65886,2.79974 1.97691,2.79974 0.1236,0 1.24203,-1.33945 2.48538,-2.97656 4.24863,-5.59408 7.9726,-9.85546 13.41149,-15.34686 4.45665,-4.49969 5.57,-5.49095 6.16623,-5.49011 0.79395,0 1.78594,0.81733 1.78594,1.46947 0,0.22556 -1.99676,2.39845 -4.43725,4.82865 -5.95949,5.93436 -11.52702,12.37228 -15.73345,18.19309 l -0.96773,1.33911 1.77182,0.97015 c 0.9745,0.53358 1.79278,0.97276 1.81842,0.97597 0.0256,0.003 4.15171,-4.68183 9.16906,-10.41123 z m 42.938,-33.31254 c 5.37692,-4.03588 9.84424,-6.5876 13.9161,-7.94883 2.66707,-0.89159 4.26981,-1.1552 9.11277,-1.49876 6.2281,-0.4418 8.89074,-1.35988 11.16691,-3.85037 2.74945,-3.00834 4.03746,-6.77225 4.07094,-11.89638 0.0395,-6.04886 -0.92139,-9.25553 -7.29425,-24.34167 -2.39743,-5.67531 -5.09288,-12.0609 -5.9899,-14.19021 l -1.63094,-3.87144 -1.58942,-0.31271 c -0.87418,-0.17198 -2.495,-0.78131 -3.60182,-1.35406 -1.10682,-0.57274 -2.03926,-1.04137 -2.07209,-1.04137 -0.0328,0 -1.27758,2.15569 -2.76611,4.79044 -2.36137,4.17967 -2.82381,4.83949 -3.62705,5.17509 -1.33552,0.55803 -2.11671,0.18545 -4.85744,-2.31667 -1.2952,-1.18242 -2.35491,-2.08422 -2.35491,-2.00398 0,0.0803 0.8783,2.0279 1.95177,4.32811 3.03594,6.50536 7.72169,17.49962 9.59659,22.51665 1.12486,3.01001 0.70709,5.13514 -1.33133,6.77243 -0.5989,0.48107 -6.38718,4.30205 -12.86286,8.49114 -6.47568,4.18907 -11.8729,7.70523 -11.99383,7.81371 -0.25784,0.23124 -0.0911,0.57314 4.25535,8.72683 4.5602,8.55461 4.55074,8.53871 4.91449,8.25944 0.17074,-0.1311 1.51491,-1.14242 2.98703,-2.24739 z m -2.14742,-27.52993 c 6.2574,-4.06471 11.40059,-7.40836 11.42931,-7.43032 0.11445,-0.0875 -1.52724,-4.49196 -3.2006,-8.58676 -2.23498,-5.46912 -5.42198,-12.61644 -8.24412,-18.48866 l -2.19253,-4.56213 -1.58407,0.16555 c -1.96948,0.20587 -3.54398,-0.46463 -4.95696,-2.11087 -0.94844,-1.10503 -8.84582,-16.49767 -8.84582,-17.24123 0,-0.21804 -0.18451,-0.39645 -0.41001,-0.39645 -0.34005,0 -0.38456,0.25958 -0.26086,1.52135 0.082,0.83675 0.39778,4.02167 0.70165,7.07761 0.83462,8.39345 0.47998,11.30252 -1.67747,13.75986 -1.13095,1.28818 -2.38652,1.96025 -4.12737,2.20925 -1.07455,0.15372 -1.24207,0.268 -1.41633,0.96615 -0.89126,3.57087 -1.96553,7.19548 -2.76615,9.33307 -0.72195,1.92754 -0.88489,2.64533 -0.67089,2.95542 0.15545,0.22527 3.69613,6.87301 7.86818,14.77275 l 7.58554,14.3632 0.69571,-0.45871 c 0.38264,-0.25228 5.8154,-3.78439 12.07279,-7.84908 z m 66.16142,-281.270611 c 6.36836,-1.26801 10.91793,-3.180318 12.67886,-5.329285 3.15709,-3.852828 5.44856,-9.849231 6.61855,-17.319723 1.28056,-8.176513 2.7672,-12.659775 5.90921,-17.820269 0.60711,-0.99714 1.10384,-1.870686 1.10384,-1.941213 0,-0.218189 -3.95775,1.993492 -5.91259,3.3041 -2.65618,1.780802 -5.7785,4.815838 -7.31002,7.105658 -0.72625,1.085821 -2.62977,4.616426 -4.23008,7.845785 -3.22064,6.499217 -4.86211,8.926322 -7.20185,10.648725 -2.08637,1.535898 -3.78801,2.071336 -6.5663,2.06615 -4.09168,-0.0076 -8.19855,-1.453002 -14.47535,-5.09442 -4.97668,-2.88717 -7.73287,-3.811468 -11.45381,-3.841075 -3.10271,-0.02469 -5.30579,0.424156 -8.99584,1.832766 -1.23692,0.472175 -2.78473,1.006821 -3.43958,1.188101 l -1.19062,0.329599 0.92604,0.40618 c 5.83506,2.559368 8.63668,4.236361 19.24401,11.519056 8.1834,5.618496 14.75877,6.99873 24.29553,5.099865 z m -2.89497,-16.776522 c 1.28572,-0.655913 3.03607,-2.513045 3.82681,-4.060246 0.32348,-0.632928 1.09913,-2.539034 1.72365,-4.235788 4.41722,-12.001066 11.08977,-18.159884 26.88593,-24.815973 2.14082,-0.90208 4.16488,-1.8511 4.49791,-2.10893 0.33303,-0.25782 0.90557,-0.54186 1.27233,-0.63119 2.11728,-0.51573 4.39724,-3.01056 6.16905,-6.75044 0.78873,-1.66479 0.83704,-1.94246 0.83704,-4.8095 0,-2.78396 -0.0598,-3.15611 -0.70393,-4.37625 -1.42255,-2.69492 -4.25582,-4.57954 -7.24548,-4.81952 -3.88183,-0.3116 -6.14492,1.41749 -9.09222,6.94681 -2.18699,4.10288 -3.4427,5.94124 -5.30987,7.77356 -4.51421,4.42998 -10.96468,5.92722 -18.79121,4.36169 -1.09141,-0.21831 -4.18703,-1.06191 -6.87917,-1.87465 -4.81266,-1.45293 -4.9525,-1.47816 -8.33437,-1.50354 -3.35978,-0.0252 -3.48191,-0.006 -5.26404,0.83821 -2.53345,1.19978 -4.63312,3.44199 -8.48907,9.06538 -6.18324,9.017428 -10.56582,12.188034 -17.89507,12.946308 -6.07723,0.628743 -14.59729,-1.619424 -20.67323,-5.454999 -0.5565,-0.351303 -1.124,-0.569396 -1.26111,-0.484656 -0.13712,0.08474 -0.71448,0.01471 -1.28302,-0.155633 -0.94374,-0.282752 -1.15157,-0.245562 -2.38784,0.427297 -2.9365,1.598242 -4.37223,5.114748 -3.7433,9.168341 1.37425,8.857229 7.93073,13.745877 17.04539,12.709401 3.50165,-0.39819 5.80235,-1.025843 12.05771,-3.28944 11.08283,-4.010488 15.00036,-4.598435 20.78388,-3.119263 2.40152,0.614209 4.96321,1.895128 8.83039,4.415459 6.73021,4.386244 10.33,5.415415 13.42284,3.837562 z m -28.43301,-55.217277 c 8.5446,-17.60802 15.5433,-32.1119 15.55266,-32.23085 0.009,-0.11895 -0.19133,-0.15935 -0.44599,-0.0898 -0.25466,0.0696 -2.27873,0.51504 -4.49792,0.98996 -3.46755,0.74206 -4.0349,0.93346 -4.0349,1.3612 0,0.27375 -6.61746,14.03449 -14.70547,30.57943 -8.08801,16.54494 -14.76431,30.220266 -14.83622,30.389618 -0.0829,0.195226 0.38477,0.409541 1.27787,0.58561 2.15362,0.424567 2.86236,0.496036 4.57522,0.461362 l 1.57911,-0.03197 z m 32.46534,3.77031 c 2.00282,-4.11096 5.94313,-12.2029 8.75628,-17.98209 l 5.1148,-10.50761 -1.91821,-3.5153 c -1.05502,-1.93342 -2.0049,-3.60891 -2.11084,-3.72331 -0.16682,-0.18011 -19.96123,40.09044 -20.17545,41.04573 -0.0554,0.2472 0.85278,0.62222 2.96277,1.22338 1.67349,0.4768 3.19717,0.88193 3.38595,0.90029 0.20021,0.0195 1.8606,-3.08115 3.9847,-7.44109 z m -78.13157,0.80068 c 0.0766,-0.0766 0.0162,-0.89835 -0.13432,-1.82601 -0.36248,-2.23392 -0.32638,-5.97192 0.068,-7.03926 0.76613,-2.0735 6.812,-8.69339 11.46061,-12.5487 12.86551,-10.66999 29.61697,-17.43191 53.28123,-21.50758 11.81629,-2.03511 17.00324,-2.21672 22.62188,-0.79203 3.0997,0.78597 3.1827,0.86616 5.87142,5.6728 1.34313,2.40109 2.53981,4.52963 2.65932,4.73008 0.32306,0.54187 2.74178,-0.76386 4.29835,-2.32043 1.49987,-1.49987 3.20775,-4.83184 4.01531,-7.83361 0.77526,-2.88164 0.85432,-8.84819 0.1442,-10.88279 -0.6142,-1.75981 -1.93175,-3.59509 -3.52764,-4.91384 l -1.27389,-1.05269 -0.52609,1.66953 c -1.0287,3.26452 -3.80685,5.19031 -6.4737,4.48755 -1.57286,-0.41447 -2.53664,-1.1504 -3.37092,-2.57401 -1.011,-1.72515 -1.11223,-3.94855 -0.34764,-7.63583 0.80235,-3.86929 0.80603,-8.18519 0.0103,-11.99222 -1.32246,-6.32665 -3.58878,-9.41372 -7.70879,-10.50056 -1.63439,-0.43114 -10.24009,-1.34218 -10.47348,-1.10877 -0.0861,0.0861 -0.0279,1.14543 0.12943,2.35405 0.1573,1.20862 0.3583,2.80813 0.4467,3.55445 l 0.16071,1.35696 1.65013,-0.13245 c 5.26391,-0.42254 7.43135,5.04012 5.432,13.69041 -1.54594,6.68848 -3.37273,9.85848 -6.10518,10.59426 -3.02455,0.81442 -6.20215,-2.05132 -6.33151,-5.71013 -0.0255,-0.72174 0.045,-3.93163 0.15671,-7.13309 0.13572,-3.88961 0.0989,-7.18146 -0.1109,-9.92187 -0.81892,-10.69549 -1.95729,-14.43178 -4.84609,-15.90553 -2.49524,-1.27298 -11.74482,-0.84667 -18.22276,0.83987 l -0.9524,0.24796 1.11121,2.76466 c 0.61116,1.52057 1.3894,3.96158 1.72943,5.42448 0.59034,2.53983 0.81314,2.99016 1.18316,2.39145 0.41564,-0.67253 2.3823,-1.37206 3.85738,-1.37206 2.9801,0 5.46482,2.07925 6.45029,5.39769 1.06507,3.58648 1.19689,11.02455 0.2804,15.8219 -1.28273,6.71434 -3.17401,9.525 -6.40934,9.525 -3.07454,0 -4.5714,-1.7989 -5.50397,-6.61459 -1.70129,-8.78522 -4.78316,-23.49578 -5.31663,-25.37768 -1.01593,-3.58381 -2.75124,-6.86939 -4.44642,-8.41868 -1.89727,-1.73401 -3.3706,-2.18233 -5.05624,-1.53858 -1.31323,0.50153 -2.77767,1.90044 -4.30073,4.1083 -1.09086,1.58133 -2.60665,2.48162 -6.75063,4.00948 -2.60501,0.96046 -3.60197,0.97123 -4.69593,0.0507 -0.60597,-0.50989 -1.22328,-0.73977 -2.20519,-0.8212 -2.83066,-0.23474 -5.20544,1.07586 -6.40978,3.53744 -1.05657,2.15955 -0.83985,4.78127 0.81822,9.89813 3.09385,9.54772 6.14254,16.59742 9.85896,22.79747 3.37703,5.63387 3.3565,5.58396 3.36314,8.17704 0.005,2.04322 -0.0671,2.37754 -0.73239,3.38377 -2.46381,3.7266 -7.63907,2.84377 -12.36716,-2.10967 -1.97411,-2.06819 -6.64743,-9.00451 -7.39362,-10.97388 -2.11042,-5.56963 -0.78578,-10.56048 3.61002,-13.60181 l 0.57362,-0.39688 -1.43053,-4.23333 c -0.7868,-2.32834 -1.43188,-4.44169 -1.43352,-4.69636 -0.002,-0.25466 -0.0923,-0.46044 -0.20143,-0.4573 -0.53662,0.0155 -5.25269,3.83584 -7.49194,6.06905 -5.65102,5.63579 -7.08283,9.46179 -5.40802,14.45096 1.79397,5.34413 6.93338,14.1132 12.00606,20.48519 2.77,3.47952 4.00276,5.6951 4.00276,7.19401 0,3.02318 -2.81561,5.19817 -5.76712,4.45497 -2.39016,-0.60185 -3.89882,-2.08414 -7.00948,-6.88698 -3.75331,-5.79507 -4.34263,-7.94707 -3.1156,-11.37708 0.32003,-0.89461 0.27112,-1.04098 -1.44108,-4.31194 l -1.77235,-3.3859 -0.83208,0.63242 c -0.45765,0.34782 -1.45529,1.495 -2.21699,2.54927 -1.81742,2.51552 -2.71613,5.26536 -2.71613,8.31067 0,4.87092 1.51424,7.86617 7.23957,14.32024 1.54459,1.74119 3.00579,3.58187 3.2471,4.09041 0.72593,1.52978 0.74141,2.90684 0.0476,4.23358 -0.76977,1.47199 -1.96938,2.13625 -3.85792,2.13625 -1.72516,0 -2.86019,-0.45491 -4.23574,-1.69764 l -1.0574,-0.9553 -0.46197,1.12803 c -0.25408,0.62042 -0.46547,1.78287 -0.46975,2.58324 -0.0125,2.34483 0.9071,3.67838 4.81966,6.98879 4.2904,3.63009 7.17394,5.49043 9.94239,6.41438 1.01349,0.33825 6.0335,0.36298 6.36512,0.0314 z m 28.95675,-53.02669 c -2.66955,-1.03704 -7.37912,-7.66068 -9.5251,-13.39634 -1.39794,-3.73632 -2.33608,-8.18607 -2.42398,-11.49729 -0.0606,-2.28436 0.17703,-2.639 2.54174,-3.79268 1.80488,-0.88054 2.94137,-0.96548 4.73604,-0.35398 2.66729,0.90884 4.48412,3.66935 6.01754,9.1431 0.46235,1.65044 1.42307,4.83368 2.13493,7.07386 1.43223,4.50713 1.85992,6.81446 1.55342,8.38052 -0.32039,1.63708 -1.23503,3.47902 -1.96509,3.95737 -0.71584,0.46904 -2.41853,0.73832 -3.0695,0.48544 z"
       id="path845" />
  </g>
</svg>
