<?xml version="1.0" encoding="UTF-8"?>
<!-- Created with Inkscape (http://www.inkscape.org/) -->
<svg width="7466.7" height="3733.3" version="1.1" viewBox="0 0 7466.7 3733.3" xml:space="preserve" xmlns="http://www.w3.org/2000/svg"><g transform="matrix(1.3333 0 0 -1.3333 0 3733.3)"><g transform="scale(.1)"><path d="M 56000,0 H 0 V 28000 H 56000 V 0" fill="#fff"/><g fill="#00000009"><path d="m25028 14410c-531-430.2-1310.2-348.5-1740.2 182.4-120.2 148.4-200.4 316.2-242.1 490.3l1054.4 162.9c68.3-81 189.1-92.8 271.9-25.8 83.6 67.8 96.7 190.6 28.8 274.3-67.8 83.8-190.7 96.7-274.4 28.8-26.7-21.6-46.1-48.8-58.1-78.6l-1053.2-162.6c-28 389.7 128.6 786.3 455.2 1051 265.8 215.2 592.7 302.1 907.9 269.1 315.2-33.2 616.9-186 832.3-451.7 215.2-265.8 302.1-592.6 269.1-907.9-33.2-315.2-185.9-616.9-451.6-832.2zm-4107.8 2261.7 1613.1 245.8c12.2-25.5 27.4-50 45.9-72.9 21.9-27 47-50.1 74.2-69.1l-576.7-1531.3zm162.2 721.8c409.4-121.8 866.3-59.8 1236.9 200.1l248.1-306.4c-36.9-50.8-59.3-109.6-66.6-170.2l-1615.2-246zm1109.8 356.9c-312.4-214-694.3-266.2-1038.6-167.9l372.8 989.8zm-1659.3 242.7c-430.2 530.9-348.5 1310 182.5 1740.3 265.7 215.2 592.6 302 907.9 269 315.2-33.2 616.9-185.9 832.3-451.7 215.2-265.7 302-592.6 269.1-907.8-29.9-284-156.9-557.1-376.1-765.8l-671.2 828.5c22.5 62.1 13.1 134.1-31.6 189.1-67.8 83.8-190.7 96.7-274.4 28.8-83-67.2-96.3-188.5-30.4-272.3l-375.9-998c-162.8 76.8-311.3 190.6-432.2 339.9zm2810.7-1504c-384.3-311.5-566.1-780-528-1238.2l-553.4-85.5 581.8 1545c86.2-4.3 174.3 21.9 246.7 80.5 156.1 126.6 180.1 355.5 53.7 511.6-103.1 127.1-274 166.6-418.3 108.6l-250.4 309.2c548.2 510.7 615.1 1366 136.3 1957.1-500.2 617.4-1405.9 712.4-2023.4 212.4-617.3-500.4-712.2-1406-212.2-2023.5 144.4-178 322.4-312.5 517.6-401.9l-236.3-627.5h-0.1v0.1l-542.2-80.4-145.2 179.2c-23 28.3-57.6 44.6-94.2 44-3.1-0.1-26.1-0.4-57.1-4.7-15.6-2.3-33.3-5.5-53.1-11.5-19.8-6.4-42.3-14.1-69.3-35.3-12-9.8-25.1-23.1-36-41.7-16.9-27.5-23.7-68.3-16.4-100.3 6.7-32.5 21.3-55.5 36-73.8 15.1-18.3 30.3-33 52-54 74.1-70.8 210.6-190.6 330.6-294.7 119.7-103.8 221.7-190.6 221.8-190.7 46.8-39.8 116.3-37.5 160.2 5.4s48 112.3 9.4 160l-190.2 234.8 315.9 48.2 108.7 16.5 1235.3-1524.8-269.9-41.7c-54.9-8.4-92.7-59.8-84.3-114.7 3.3-21.1 12.9-39.7 26.6-54.1l429.3-529.9c135.4-167 380.2-192.7 547.3-57.4 166.9 135.3 192.6 380.2 57.4 547.2-35.2 43.4-98.9 50.1-142.3 14.9-43.5-35.1-50.2-98.8-15-142.3 64.8-80.2 52.5-197.5-27.5-262.6-80.2-64.7-197.6-52.4-262.6 27.6l-323.6 399.3 987.1 152.4c47.2-208.2 141.6-409 285.1-586.2 500.2-617.2 1405.8-712.2 2023.3-212.1 617.3 500.2 712.3 1405.8 212.2 2023.2-500.2 617.4-1405.8 712.4-2023.3 212.3"/><path d="m11077 15812c5.4-341.9-128-652.7-348.4-880.5-220.6-227.6-527.1-370.7-869.05-376.2-341.91-5.4-652.74 127.9-880.5 348.3-205.02 198.8-341.51 467.2-370.58 768.5l1066.1 17c35.02-56 97.46-93 168.35-91.8 107.77 1.6 193.77 90.4 191.97 198.1-1.7 106.9-88.94 192.2-195.51 192l-553.47 911.6c160.95 80.7 342.11 127.4 534.17 130.4 683.31 11 1245.9-534 1256.9-1217.4zm-1963 982.3 548.94-904.1-1057.6-16.9c24.42 377.9 218.94 710.7 508.7 921zm-710.49-924.2-394.2-6.3c-17.22 60.5-49.65 114.4-92.83 157.5l802.94 1422.9 289.81-477.3c-348.47-247-581.62-644.8-605.72-1096.8zm-664.15 248.7c-27.52 6.2-56.16 9.3-85.6 8.9-34.86-0.6-68.45-6.1-100.22-15.8l-849.23 1398.7 1837 29.3zm-1038.3-376.5c5.4-342-127.95-652.8-348.43-880.6-220.58-227.5-527.01-370.7-868.99-376.2-341.96-5.4-652.75 127.9-880.51 348.4-227.58 220.6-370.76 527-376.28 868.9-10.87 683.3 534.18 1246 1217.3 1256.9 190.96 3 372.49-37.4 535.2-112.1l-522.45-930.2c-105.81-3.8-189.67-91.6-187.97-198.1 1.71-107.6 90.34-193.6 198.05-191.8 107.77 1.6 193.78 90.4 192.01 198.1-0.55 34.4-10 66.4-26.02 94.2l521.84 929.2c323.94-218.4 539.51-586.4 546.23-1006.7zm3115.9 1488.4c-229.19-3.7-444.92-60.8-635.67-159.3l-347.96 573.1 0.06 0.1h0.07l271.27 476.3 230.53 3.7c36.53 0.5 70.68 17.8 92.8 46.9 1.85 2.5 15.84 20.8 31.55 47.9 7.85 13.7 16.23 29.5 23.75 48.9 7.18 19.5 14.98 42 14.94 76.2-0.28 15.6-2.69 34.1-10.65 54.1-11.18 30.3-39.1 60.8-68.8 74.9-29.7 14.7-56.86 17.4-80.28 17.2-23.72-0.6-44.64-3.5-74.58-7.7-101.38-14.6-279.9-48.1-435.87-78.3-155.55-30.2-286.76-56.9-286.97-56.9-60.14-12.2-101.2-68.4-94.57-129.4s58.8-107.1 120.17-106.1l302.06 4.8-156.97-278.3-54.07-95.8-1962.2-31.3 133.75 238.2c27.29 48.4 10.13 109.8-38.28 137.1-18.62 10.4-39.14 14.3-58.93 12.4l-681.95-10.9c-214.89-3.5-386.18-180.3-382.81-395.2 3.48-214.9 180.33-386.2 395.22-382.8 55.89 0.9 100.44 46.9 99.55 102.8-0.88 55.8-46.89 100.4-102.78 99.5-103.07-1.4-187.83 80.7-189.65 183.7-1.47 103.1 80.63 187.9 183.7 189.7l513.92 8.2-489.07-870.8c-192.99 91.3-409.3 140.9-637.24 137.3-794.37-12.8-1427.9-666.8-1415.4-1461.3 12.76-794.4 666.84-1428 1461.3-1415.4 794.48 12.8 1428 666.8 1415.5 1461.3-8.03 494.6-264.51 926.7-648.64 1179.5l274.2 488.2 856.79-1411.1c-56.56-65.2-90.26-150.7-88.79-243.8 3.28-200.9 168.57-361.1 369.47-357.9 163.56 2.6 300.11 112.8 343.47 262.1l397.86 6.4c63.67-746.7 695.51-1327 1456.1-1314.9 794.44 12.7 1428 666.8 1415.5 1461.3-12.9 794.5-667 1428-1461.4 1415.4"/><path d="m21523 9806.1c-243.5-203-563.3-313-904-282.3-340.5 30.7-635.5 196.1-838.7 439.4-182.9 219.3-290.3 500.7-287.3 803.3l1061.9-95.7c28.9-59.4 87.1-102.8 157.7-109.1 107.3-9.8 202.2 69.5 211.9 176.7 9.6 106.5-68.2 200.5-174.2 211.6l-454.1 965c168.6 63.2 353.7 90.5 545 73.3 680.6-61.4 1182.5-662.8 1121.3-1343.4-30.8-340.6-196.3-635.6-439.5-838.8zm-2605.6 1214.4c-10.8 61.9-37.3 119-75.7 166.4l948.8 1330.1 237.7-505.3c-372.6-208.7-646.4-579.7-718.2-1026.6zm-241.5 282.1c-26.7 9-54.9 15.2-84.2 17.8-34.7 3.1-68.7 1.2-101.3-5.1l-696.7 1480.6 1829.8-165zm1888.6-430.6-1053.5 95c64.2 373.2 292.8 683.5 603.2 862zm-2960.9 165.8c-30.8-340.6-196.2-635.6-439.5-838.7-243.4-203-563.2-313-903.9-282.4-340.6 30.8-635.6 196.2-838.8 439.5-203 243.4-313 563.2-282.3 903.8 61.4 680.6 662.8 1182.6 1343.3 1121.2 190.2-17.1 366.4-76.5 520.3-167.9l-617.8-869.8c-105.6 7.4-198.3-71.1-207.8-177.2-9.7-107.2 69.3-202.1 176.7-211.7 107.3-9.7 202.2 69.5 211.8 176.8 3.1 34.2-2.9 67.1-15.9 96.4l617.1 868.8c299-251.4 474.5-640 436.8-1058.8zm4559.3-411c71.2 791.5-512.3 1490.5-1303.6 1561.9-228.3 20.6-448.9-13.5-649-91.2l-285.4 606.7 0.1 0.1v-0.1l320.1 445 229.6-20.7c36.4-3.3 72.2 10.3 97.3 36.9 2.1 2.3 17.9 19 36.4 44.3 9.2 12.8 19.3 27.6 28.8 46 9.2 18.7 19.3 40.2 22.9 74.3 1.3 15.5 0.9 34.2-4.9 54.9-7.9 31.3-32.4 64.6-60.5 81.7-28 17.8-54.7 23.4-78 25.6-23.7 1.9-44.8 1.2-75 0.3-102.3-3.8-283.4-18.3-441.7-31.9-157.9-13.5-291.1-26.2-291.4-26.2-61.1-5.8-107.8-57.3-107.7-118.7 0.2-61.4 47.2-112.7 108.3-118.2l300.9-27.1-185.5-260.3-63.9-89.4-1954.5 176.2 158.2 222.6c32.2 45.3 21.6 108.2-23.6 140.4-17.4 12.4-37.4 18.4-57.3 18.6l-679.3 61.2c-214.1 19.3-403.1-138.5-422.4-352.5-19.3-214.1 138.5-403.1 352.5-422.4 55.7-5.1 104.9 36 109.9 91.6 5 55.7-36 104.9-91.7 109.9-102.6 9.4-178.2 100-169.2 202.7 9.5 102.6 100.1 178.3 202.7 169.2l511.9-46.1-578.3-814.3c-182.3 111.2-392.1 183.4-619.2 203.9-791.2 71.2-1490.3-512.2-1561.8-1303.6-71.2-791.3 512.2-1490.5 1303.5-1561.9 791.4-71.2 1490.5 512.2 1562 1303.6 44.3 492.7-165.1 949.5-520.4 1241.4l324.3 456.5 702.9-1493.7c-63.2-58.9-105.7-140.3-114.1-233.1-18-200.1 129.5-376.8 329.6-394.9 162.9-14.6 310.3 80.5 369.2 224.4l396.3-35.8c-15.5-749.1 551.5-1393 1309.1-1461.3 791.3-71.3 1490.5 512.2 1561.9 1303.5"/><path d="m10728 9436.9c-301.1 99-563.8 312.1-718.2 617.2-189.64 375.2-170.06 801.2 15 1145.3l894.3-579.6c-1.2-32 5.3-64.8 20.8-95.5 48.6-96.1 166-134.7 262.2-86 96.2 48.5 134.6 165.9 86 262-48.1 95.1-163.2 133.7-258.6 87.8l-895.3 580.3c109.3 141.8 251.1 262 421.6 348.2 609.7 308.3 1354 63.9 1662.4-546 154.2-305.2 170.1-643 71.3-944.2-99-301.1-312.1-563.7-617.2-718.1-305.3-154.3-643.1-170.2-944.3-71.4zm-1644.7 547.7c-32.61-6.3-64.93-17-96.04-32.7-26.28-13.3-50.17-29.4-71.66-47.7l-1371.1 884.6 1639.6 829zm-287.96-431.7-351.84-177.9c-231.67 388.8-623.17 632.5-1046.5 688.9l34.39 557.3 1372.8-885.7c-18.16-58.3-21.78-121.1-8.87-182.6zm-411.53-1301.2c-99.01-301.1-312.07-563.8-617.22-718.1-305.26-154.3-643.1-170.1-944.3-71.4-301.11 99-563.78 312.1-718.15 617.2-308.3 610-63.89 1354.2 545.97 1662.5 171.42 86.7 353.49 129.7 533.51 133.1l-65.66-1064.4c-94.41-49.4-131.95-165.6-83.74-260.9 48.56-96.2 166.01-134.8 262.15-86.1 63.3 32 101.36 93.8 106.29 159.6l951.55 481.1c114.46-280.1 118.58-581.3 29.6-852.6zm-999.27 1610.7c354.36-51.3 681.37-255.3 878.84-578.4l-943.98-477.3zm5013.3 1399.1c-358.7 709-1223.8 993.1-1932.8 634.7-203.5-102.9-371.8-247.5-500.17-418.1l-838.12 543.2 458.69 231.9c92.08 46.3 204.2 9.5 250.87-82.4 46.35-92.1 9.52-204.2-82.38-250.9-49.88-25.2-69.86-86.1-44.64-135.9 25.21-49.9 86.06-69.9 135.94-44.7 191.81 97.1 268.61 331 171.71 522.8-97.05 191.8-330.97 268.6-522.8 171.7l-608.66-307.8c-18.4-7.5-34.77-20.5-46.37-38.4-30.16-46.7-16.77-109 29.9-139.2l229.23-148.5-1751.3-885.5-92.41 59.6-268.48 173.4 269.6 136.3c54.78 27.7 79.52 92.7 57 149.8-22.53 57.1-85.02 87.7-143.94 70.5-0.2 0-128.75-37.5-280.46-83.2-152.13-45.8-325.73-99.2-422.25-133.5-28.44-10.2-48.3-17.4-69.58-27.9-20.84-10.7-43.61-25.8-63.05-52.6-19.76-26.3-30.26-66.3-26.07-98.3 2.26-21.4 8.77-38.9 15.75-52.8 15.92-30.4 33.27-46.6 48.72-60.6 15.64-13.6 30.44-23.7 43.75-32.1 26.51-16.7 47.42-26.4 50.22-27.8 33.11-15.4 71.38-14.8 103.98 1.7l205.76 104 461.76-295.3h0.15l-41.29-669.2c-214.63-1.7-432.19-51.5-636.76-154.9-709.03-358.6-993.17-1223.6-634.8-1932.9 358.62-709 1223.8-993.1 1932.9-634.6 678.83 343.2 968.02 1150.9 676.92 1841.4l355.1 179.5c107.87-111.9 279.99-145.9 426.01-72.1 179.27 90.7 251.05 309.3 160.47 488.7-42.05 83.1-111.65 143.1-192.08 174.5l101.68 1647.7 469.89-304.5c-222.35-402.5-248.27-904.4-25.2-1345.9 358.62-709 1223.7-993.1 1932.9-634.6 709 358.5 993.1 1223.7 634.7 1932.8"/><path d="m5062.2 25917c448.33 515.9 1229.8 570.7 1745.6 122.4 145.01-126 253.58-278.3 324.77-443.7l-1010.4-341.2c-81.43 68.7-203.14 59.6-273.23-21-70.68-81.3-62.04-204.7 19.37-275.3 53.48-46.5 125.06-58.4 187.93-38.1l804.85-699.4c-216.19-211.8-493.45-329.3-778.29-349.4-316.19-22.1-639.88 76-898.04 300.3-258.15 224.3-400.44 531.2-422.76 847.3-22.06 316.3 76 639.9 300.23 898.1zm1930.9-1544.3-798.45 693.8 1002.1 338.4c86.31-347.5 20.96-727.3-203.65-1032.2zm394.9 1096.8 529.05 178.7-301.58-1605.7c-60.79-5.2-120.33-25.6-172.42-60.8l-297.6 258.6c272.53 361.4 350.23 815.9 242.55 1229.2zm726.97 137.2 1386.8-1205-1550.3-523.6c-18.08 27.9-40.22 53.7-66.54 76.6-22.23 19.3-46.15 35.4-71.18 48.4zm1996.4-2437.8c515.8-448.1 570.6-1229.6 122.4-1745.5-224.4-258.1-531.18-400.4-847.35-422.6-316.22-22.1-639.86 76-898.06 300.2-258.13 224.4-400.46 531.2-422.74 847.4-22.1 316.2 75.97 639.9 300.24 898.1 275.77 317.3 677.59 460.1 1066.1 418.7l-198.85-1047c-30.15-10.9-58.04-29.4-80.57-55.3-70.7-81.3-62.05-204.6 19.36-275.3 81.26-70.7 204.46-61.9 275.08 19.4 69.86 80.3 62.22 201.5-16.32 272.5l199.06 1048.2c172.59-47.6 337.51-133.6 481.66-258.8zm-5058.6 850.7c574.24-498.9 1431.3-461.6 1960.7 68.7l300.36-260.9c-62.94-142.2-29.38-314.4 94.07-421.7 151.71-131.8 381.28-115.6 513.12 36 61.09 70.3 90.33 157.4 89.05 243.7l1564.1 528.2-104.48-550.1c-456.68 53.9-931.16-111.7-1255.7-485-521.07-599.8-457.33-1508.2 142.43-2029.4 599.77-521.1 1508.2-457.4 2029.3 142.3 521.1 599.9 457.4 1508.2-142.3 2029.4-172.1 149.5-369.54 250.8-575.99 305.2l186.36 981.2 387.93-337.1c77.7-67.8 86-185.5 18.5-263.5-67.7-77.6-185.4-85.9-263.39-18.4-42.19 36.6-106.09 32.1-142.75-10.1-36.63-42.1-32.16-106 10.03-142.7 162.31-140.9 407.91-123.7 548.91 38.5 140.9 162.3 123.6 407.9-38.5 548.9l-514.86 447.3c-13.92 14.2-32.11 24.5-53.12 28.5-54.6 10.2-107.25-25.7-117.54-80.3l-50.96-268.3-1481.3 1287.1 20.25 108.1 59.09 314.1 228.05-198.2c46.33-40.3 115.9-38.6 160.25 3.8 44.36 42.5 49.1 111.9 10.95 159.9-0.14 0.2-83.38 105.1-182.98 228.3-99.89 123.6-214.92 264.1-283.1 340.6-20.24 22.4-34.39 38.1-52.13 53.8-17.79 15.3-40.33 30.7-72.53 38.5-31.76 8.4-72.77 3-100.81-12.9-18.98-10.2-32.76-22.9-42.98-34.6-22.1-26.2-30.58-48.4-37.67-67.9-6.68-19.7-10.47-37.2-13.28-52.7-5.41-30.8-6.5-53.9-6.69-57-1.8-36.5 13.21-71.7 40.79-95.7l174.03-151.2-99.03-539.1h0.06l-0.03-0.1-635.19-214.5c-82.61 198.1-210.89 380.7-383.89 531.1-599.86 521-1508.2 457.4-2029.5-142.3-521.05-599.9-457.29-1508.3 142.43-2029.5"/><path d="m14913 19029c3.2 33.1 2.1 67.1-4.3 101.4-5.3 28.9-14.1 56.4-25.5 82.2l1234.7 1066.7 334-1806.6zm-160.4 337.9c-50.8 33.9-110 55-172.7 59.9l-71.7 387.7c438.3 112.9 782.3 420 955.6 810.4l525.1-189.9zm-473.4 1686.2 994.7-359.6c-149-325.6-436.7-582-802.4-680.5zm-832.1-865.1c-261.1 179.7-453.2 458.1-515.4 794.3-62.1 336.4 17.8 665 197.3 926.2 179.7 261.1 458.1 453.2 794.4 515.5 672 124.1 1317.4-319.9 1441.6-991.8 34.9-188.9 24.9-375.7-22.4-549.4l-1003 362.5c-20.8 104.5-121.7 173.3-226.7 153.8-106-19.5-176.1-121.4-156.4-227.3 12.9-69.7 61.4-123.7 123.3-146.9l193.8-1048.5c-301.1-31-591.2 49.8-826.5 211.6zm2713.5-3059.4c124.3-671.9-319.7-1317.3-991.7-1441.5-336.3-62.1-665 17.7-926.1 197.3-261.2 179.7-453.2 458.1-515.4 794.3-62.1 336.4 17.7 665 197.2 926.2 179.8 261.1 458.1 453.2 794.4 515.4 413.4 76.5 816.7-62.2 1094.8-336.6l-807.9-695.1c-30.4 10.2-63.7 13.2-97.5 6.9-105.9-19.5-176-121.4-156.3-227.3 19.5-106 121.3-175.9 227.2-156.3 104.7 19.4 174.3 118.9 157.1 223.4l808.7 695.8c105.4-144.7 180.8-314.7 215.5-502.5zm638.4 562.6c-101.4-18.6-198.6 48.3-217.6 149.6-10.1 55-62.9 91.3-117.9 81.1-54.9-10.1-91.2-62.9-81-117.9 39.1-211.3 241.9-350.8 453.2-311.8 211.4 39.1 350.9 241.9 311.9 453.3l-124 670.7c-2 19.7-9.9 39.1-23.8 55.3-36.3 42.1-99.9 46.8-141.9 10.5l-207.1-178.2-356.8 1929.7 83.2 72 241.9 208.8 54.9-297.1c11.2-60.3 66.6-102.4 127.8-96.8 61.1 5.5 108 56.9 108.2 118.2-0.1 0.2 0.2 134.1-1 292.6-1.1 158.9-3.5 340.5-9.2 442.7-1.9 30.2-3.2 51.3-7.2 74.7-4.4 23-12.5 49.1-32.8 75.3-19.6 26.3-55 47.7-86.9 52.6-21.2 3.9-39.9 2.6-55.1-0.2-33.6-6.7-54.1-18.8-71.9-29.7-17.4-11.2-31.3-22.5-43.2-32.9-23.4-20.8-38.6-38.1-40.7-40.4-24.1-27.5-34.3-64.3-27.7-100.3l41.9-226.7-413.3-360-0.1-0.1-630.5 228c58.8 206.4 72.3 429.2 30.6 654.6-144.5 781.3-894.7 1297.4-1676.1 1153.1-781.3-144.6-1297.4-894.8-1153-1676.2 138.3-748 832-1252.8 1576.5-1167.8l72.3-391.3c-137.8-71.9-218.8-227.6-189.1-388.4 36.6-197.6 226.2-328 423.8-291.6 91.6 17 168.7 66.9 221.5 135.2l1552.5-561.3-424.5-365.2c-323.6 326.7-797.9 492.8-1284.4 403-781.3-144.6-1297.4-894.8-1153-1676.1 144.5-781.3 894.8-1297.4 1676.1-1153.1 781.3 144.6 1297.4 894.8 1153.1 1676.1-41.5 224.1-132.9 426.4-260.5 597.6l757.1 651.3 93.4-505.4c18.6-101.4-48.3-198.6-149.6-217.5"/><path d="m20497 24344c191.2 18.5 376.4-7.7 545.4-69.9l-448.1-967.8c-106-11.7-183.1-106.2-172.9-212.6 10.3-107.2 105.7-185.8 213-175.4 70.5 6.7 128.4 50.5 157 110l1061.3 102.3c4.8-302.6-100.8-584.6-282.3-805.1-201.7-244.5-495.7-411.7-836.1-444.6-340.4-32.7-660.9 75.3-905.6 276.8-244.6 201.7-411.8 495.7-444.7 836-65.5 680.3 432.8 1284.8 1113 1350.3zm728-154.7c311.4-176.6 541.9-485.5 608.4-858.3l-1052.9-101.5zm319.4 689.9 957-1324.2c-38.1-47.7-64.3-104.9-74.7-166.9l-392.4-37.8c-74.5 446.5-350.6 815.7-724.5 1022.2zm1995.1 291.2-687.6-1484.8c-32.6 6-66.6 7.8-101.3 4.4-29.3-2.8-57.5-9.1-84.1-18.3l-955.8 1322.5zm631.1-695.4 622.5-865c-12.8-29.4-18.6-62.3-15.3-96.5 10.2-107.2 105.6-185.9 212.9-175.4 107.2 10.2 185.7 105.6 175.4 212.8-10.2 106-103.4 183.9-209 175.8l-623.1 866c153.3 92.4 329.2 152.8 519.3 171.1 680.1 65.6 1284.6-432.7 1350.2-1112.9 32.7-340.4-75.3-660.9-276.8-905.5-201.7-244.6-495.6-411.8-836.1-444.7-340.4-32.7-660.9 75.3-905.6 276.8-244.5 201.7-411.8 495.7-444.6 836.1-40.3 418.4 132.7 808.2 430.2 1061.4zm-3417-2794.4c757.2 73 1320.2 720.3 1300 1469.4l396.1 38.1c59.8-143.5 207.8-237.7 370.6-222.1 200 19.4 346.4 197 327.2 397-9 92.7-52 173.9-115.5 232.4l693.7 1498 327-454.5c-353.4-294.1-560-752.2-512.7-1244.6 76.3-790.9 779-1370.1 1569.9-1293.9 790.9 76.3 1370.1 779 1293.9 1569.8-76.3 790.9-779 1370.1-1569.8 1294-226.9-21.9-436.3-95.4-617.9-207.7l-583.3 810.7 511.6 49.3c102.6 9.7 193.7-65.4 203.7-168 9.7-102.6-65.3-193.7-167.9-203.7-55.7-5.4-96.4-54.8-91-110.5 5.3-55.6 54.8-96.3 110.4-91 213.9 20.7 370.5 210.7 350 424.6-20.7 213.9-210.7 370.5-424.6 350l-678.9-65.4c-19.9-0.4-39.9-6.5-57.2-19-45.1-32.5-55.2-95.4-22.7-140.5l159.5-221.7-1953.4-188.2-64.4 89.1-187.1 259 300.7 29c61.1 5.9 107.8 57.5 107.6 118.9-0.3 61.3-47.4 112.6-108.5 118-0.2 0-133.6 11.8-291.5 24.4-158.4 12.7-339.5 26-441.9 29.2-30.2 0.7-51.3 1.3-75-0.8-23.3-2.4-50-8.1-77.8-26-28-17.3-52.3-50.8-60-82.1-5.7-20.8-6-39.5-4.6-54.9 3.8-34.1 14.1-55.5 23.4-74.2 9.6-18.3 19.7-33.1 29.1-45.8 18.6-25.2 34.5-41.8 36.7-44.1 25.2-26.5 61.1-39.8 97.4-36.3l229.5 22.1 322.8-443 0.1 0.1 0.1-0.1-281.7-608.4c-200.6 76.5-421.4 109.2-649.5 87.2-790.9-76.3-1370.1-778.9-1294.1-1569.9 76.4-790.9 779.1-1370.1 1570-1293.9"/><path d="m17969 3402.6c-130-316.3-375.3-549.2-667.7-671.4-292.6-122-630.6-132.6-946.9-2.6-316.3 130.1-549.3 375.3-671.5 667.7-122 292.6-132.6 630.6-2.6 947 159.8 388.8 494.9 652.6 876.2 737.5l146.3-1055.5c-25-20.1-45.5-46.5-58.6-78.2-41-99.7 6.6-213.8 106.3-254.6 99.6-41.1 213.6 6.6 254.5 106.2 40.5 98.5-5.5 210.9-102.6 253.1l-146.5 1056.8c178.8 10 362.5-18.7 539.1-91.3 632-259.7 933.8-982.6 674-1614.7zm-2947.2 1596.2c-26.1 20.6-55.3 38-87.6 51.3-27.2 11.2-55 18.7-82.9 23l-227.3 1615.8 1699.3-698.4zm-514.9-64.4-364.7 149.9c142.7 429.5 71 885-163.1 1242.2l444.1 338.4 227.6-1617.8c-55.9-24.4-105.8-62.7-143.9-112.7zm-551.3 226.6-978.4 402.1 841.3 641c192.9-301.6 252.4-682.4 137.1-1043.1zm-702.3-766.1c-292.5-122-630.6-132.6-946.9-2.6s-549.2 375.3-671.5 667.7c-122 292.6-132.6 630.6-2.6 947 259.9 632.1 982.7 933.8 1614.8 674 177.7-73 329.2-182.7 449.6-316.6l-848.3-646.4c-99.1 39.1-211.5-8.4-252.2-107.2-40.9-99.6 6.7-213.7 106.4-254.6 65.5-27 137.2-15.4 190.2 23.9l986.2-405.3c-137.1-269.8-362.2-469.8-625.7-579.9zm4118.3 808.6c-210.9 86.6-430.4 119.4-643.4 105l-137.1 989.2 475.4-195.3c95.3-39.4 140.7-148.3 101.7-243.7-39.4-95.3-148.3-140.7-243.7-101.7-51.7 21.2-110.8-3.5-132-55.2-21.3-51.6 3.4-110.7 55.1-132 198.8-81.6 426 13.2 507.8 211.9 81.6 198.8-13.2 426.1-212 507.8l-630.8 259.3c-17.8 9-38.3 12.9-59.4 9.9-55.1-7.7-93.5-58.6-85.8-113.6l37.5-270.5-1815.1 746-15.3 108.9-44.4 316.4 279.4-114.8c56.8-23.4 122.1 0.5 150.6 54.8 28.5 54.4 10.8 121.7-40.7 155.1-0.2 0.1-112.6 72.8-246.4 157.7-134.1 85.2-288.1 181.6-377.1 232.2-26.4 14.8-44.8 25.1-66.6 34.4-21.8 8.7-48 16.1-81.1 13.3-32.7-2.2-69.9-20.4-91.4-44.5-14.7-15.8-23.7-32.1-29.6-46.5-12.6-31.9-13.5-55.6-14-76.5 0-20.7 2-38.5 4.3-54.1 4.7-31 11-53.1 11.8-56.1 10-35.2 35.5-63.7 69.3-77.6l213.2-87.7 78.5-542.4h0.1v-0.2l-533.2-406.3c-141.7 161.3-321.6 293.3-533.6 380.5-735 301.9-1575.2-48.8-1877.5-783.7-301.9-735 48.9-1575.3 783.8-1877.4 703.6-289.1 1503.8 20.2 1835.8 692l368.1-151.3c-14.2-154.8 72.6-307.2 223.9-369.5 185.9-76.3 398.2 12.4 474.7 198.2 35.4 86.2 35.3 178 6.4 259.4l1313.1 1000.6 76.9-554.7c-449.9-95-846.5-403.5-1034.7-861-302-735 48.8-1575.3 783.8-1877.4 734.8-302 1575.2 48.8 1877.3 783.7 301.9 735-48.9 1575.3-783.6 1877.4"/><path d="m9637.8 3213.2c-143.14-668.3-800.73-1093.9-1468.9-950.9-187.84 40.2-356.52 121.1-498.78 231.5l719.58 787.1c104.51-20.8 206.66 46 229.03 150.5 22.59 105.3-44.58 209.1-149.99 231.5-69.31 14.9-137.73-9.2-182.94-57.4l-1042.6 223.2c86.88 289.9 272.79 526.8 512.43 682.1 266.15 172.1 596.91 242.7 931.3 171.2 334.45-71.6 607.32-271.5 779.69-537.5 172.15-266.1 242.76-596.9 171.24-931.3zm-2116.1-583.4c-243.53 262.5-369.91 626.6-320.65 1002.1l1034.3-221.5zm-512.99-561.1-512.1 1551.4c50.71 34 92.97 80.6 121.57 136.6l385.52-82.6c-63.91-448.1 87.76-883.5 381.8-1193.3zm-1989.8 325.2 1104.1 1207.7c29.29-15.6 61.17-27.6 95.27-34.9 28.79-6.2 57.49-8.6 85.69-7.9l511.46-1549.5zm-723.51 1866.3c21.1 24.1 36.6 53.8 43.79 87.4 22.59 105.3-44.58 209.1-149.99 231.5-105.33 22.7-208.93-44.5-231.48-149.8-22.29-104.2 42.97-206.6 146.05-230.8l332.36-1013.8c-174.1-41.7-360.02-46.2-546.77-6.2-668.1 143-1093.8 800.6-950.8 1468.9 71.67 334.4 271.48 607.2 537.49 779.5 266.15 172.2 596.88 242.8 931.32 171.3 334.43-71.7 607.33-271.5 779.65-537.5 172.18-266.1 242.79-596.9 171.25-931.3-88.03-411.1-370.78-730.3-730.9-881.9zm4433.6 618.6c-743.84 159.2-1476.1-287.7-1683.2-1007.8l-389.09 83.2c-13.62 154.9-126.25 289.5-286.19 323.8-196.49 41.9-389.66-83.1-431.8-279.6-19.48-91.1-2.98-181.5 39.87-256.4l-1113.9-1218.4-174.43 532.1c425.82 173.5 761.17 547.8 864.85 1031.5 166.22 777-328.64 1541.4-1105.6 1707.8-776.93 166.2-1541.4-328.6-1707.8-1105.5-166.19-777 328.65-1541.4 1105.5-1707.8 222.93-47.7 444.76-40.9 651.78 11.2l311.11-949-502.59 107.6c-100.76 21.8-164.88 120.8-143.48 221.7 21.76 100.7 120.81 164.8 221.65 143.5 54.66-11.7 108.42 23.1 120.12 77.7 11.69 54.6-23.1 108.4-77.76 120.1-210.17 45-416.85-88.8-461.89-299-44.94-210.1 88.85-416.8 299-461.9l666.92-142.7c19.04-5.7 39.93-5.9 60.23 0.8 52.78 17.3 81.5 74.2 64.11 127l-85.09 259.6 1919-410.8 34.5-104.4 100.08-303.5-295.41 63.2c-60.02 12.8-120.12-22.2-138.44-80.8-18.33-58.6 11.07-121.6 67.7-145.3 0.21-0.1 123.76-51.6 270.51-111.4 147.17-59.8 315.81-127.3 412.44-161.3 28.57-9.801 48.54-16.699 71.69-21.898 22.94-4.801 50.11-7.403 82.1 1.3 31.85 7.996 65.16 32.598 81.99 60.098 11.69 18.1 17.64 35.8 20.93 51 6.67 33.6 3.37 57.2 0.12 77.7-3.64 20.4-8.79 37.6-13.85 52.6-10.16 29.6-20.33 50.2-21.67 53.1-16.06 32.8-46.22 56.3-81.94 64l-225.45 48.3-173.88 519.8-0.06-0.1-0.04 0.2 452.37 494.8c168.08-133.5 368.66-231.4 592.79-279.4 776.98-166.2 1541.4 328.5 1707.9 1105.5 166.17 777-328.68 1541.4-1105.6 1707.8"/><path d="m2232.8 26946c140.78 351.9 132.83 726.2 6.1 1053.7h-218.43c137.62-298.1 157.1-649.9 25.44-978.9-127.19-317.4-370.31-552.5-661.65-677.4-291.45-124.6-629.4-138.2-946.93-11.1-171.19 68.6-318.39 170.9-437.32 296.3v-272.5c107.25-85.5 228.6-157 362.49-210.7 737.65-295.3 1574.8 63.1 1870.3 800.6"/><path d="m824.73 27300c100.02-40.2 213.66 8.5 253.66 108.5 39.73 99.2-7.79 211.6-106.15 252.6l-50.797 338.8h-203.55l54.011-360.2-771.9 309.1v-216.8l704.94-282.3c10.649-65.2 53.95-123.4 119.79-149.7"/><path d="m14830 27418c30.8-12.4 63.8-20.9 98.5-24.5 29.3-3 58.1-2.4 86 1.3l674.9-1485.5-1827.4 189.4zm475.7 207.3 392.2-40.6c-15.5-452.4 182.1-869 507.7-1145.4l-330.4-450.2-675.7 1487.4c46.8 39.2 83.8 90.1 106.2 148.8zm592.9-61.5 1052.1-109-625.7-852.8c-270.3 234.8-435 583.3-426.4 961.8zm-3264.6-1006.6c226.8-23.5 446.6 7.1 646.8 81.2l411.2-910.1-511.2 53c-102.5 10.8-176.9 102.4-166.5 205 10.8 102.5 102.4 176.9 205 166.4 55.6-5.7 105.3 34.7 111.1 90.3 5.7 55.5-34.6 105.2-90.2 111-213.8 22.1-404.9-133.1-427.2-346.9-22.1-213.7 133.1-404.8 346.9-427.1l678.4-70.3c19.6-3.6 40.3-1.6 59.8 7.3 50.6 22.9 73.1 82.6 50.1 133.2l-112.5 248.9 1952-202.4 45.5-100.1 132.1-291-300.5 31.2c-61 6.3-117-35-128.9-95.2-12-60.2 24-119.8 82.9-137.2 0.2 0 128.6-38.1 280.9-81.7 152.7-43.7 327.6-92.7 427.4-116.1 29.4-6.7 50-11.4 73.6-14.1 23.3-2.3 50.6-1.9 81.5 10.2 30.8 11.4 61.3 39.3 75 68.5 9.7 19.2 13.7 37.5 15.4 53 3 34.1-2.8 57.2-8.3 77.3-5.8 19.9-12.7 36.4-19.4 50.7-13.3 28.3-25.6 47.8-27.2 50.4-19.5 31-52 51.2-88.4 54.9l-229.3 23.8-228.7 498.1h-0.1v0.1l396.6 540.6c181.5-114.7 391.4-190.5 619.4-214.2 790.3-81.8 1497.2 492.2 1579.3 1282.6 22.1 213.6-3.8 421-68.8 611.7h-214.7c73.4-181.3 104.8-382.5 83.3-590.9-70.6-679.8-678.7-1173.6-1358.4-1103.1-191 19.8-367.4 82.1-520.7 176.5l630.9 859.9c106.1-9.5 200.5 67.8 211.5 174.1 11.2 107.2-66.7 203.1-174 214.2-70.5 7.3-135.9-24-175.7-76.8l-1060.5 110c15.2 82.1 38.4 161.1 68.7 236.1h-214.5c-23.5-69.4-42.1-141.2-55-215.3l-395.8 41c-13 65.8-44 125.9-88.1 174.3h-537.5c-50.6-55.5-84.6-127-93-207.5-9.6-92.6 16.6-180.7 67.2-250.7l-976.6-1330.9-230.6 510.2c404.7 218.3 697.9 626.5 749.1 1118.5 5.6 53.9 8 107.4 7.6 160.4h-201.3c0.4-46.1-1.7-92.7-6.5-139.6-43.4-418.2-290.3-765.9-632-955.3l-438.8 971.2c18.4 26.3 30.6 57.4 34.1 91.6 1.2 10.8 1.2 21.5 0.5 32.1h-388.9c-6.4-102.6 68-192.9 170.4-205.6l439.3-972.2c-168.6-60.2-353-84.6-542.9-64.9-640.9 66.3-1116.5 610.9-1109.6 1242.7h-201.3c-6.9-733.8 545.6-1365.7 1290.1-1443"/><path d="m1432 816.6c-212.81 85.199-433.87 115.9-647.84 98.8l-99.418 663.1h0.145l434.27 334.4 214.04-85.7c33.91-13.6 72.1-10.8 103.73 7.4 2.68 1.6 22.66 13.1 47.61 32 12.53 9.6 26.39 21 40.79 35.9 14.17 15.2 30.05 32.9 43.26 64.6 5.74 14.4 10.7 32.4 11.09 54 1.38 32.2-12.57 71.2-34.54 95.6-21.7 25-45.7 38-67.39 46.9-22.11 8.6-42.52 14-71.75 21.7-99.14 25.8-276.73 63.9-432.27 96.3-155.12 32.2-286.44 58.4-286.64 58.4-60.195 12-119.77-24-137.25-82.8-17.465-58.8 12.844-121.5 69.828-144.3l280.46-112.3-252.37-196.1-86.871-67.4-560.91 224.7v-216.8l375.01-150.2-375.01-291.2v-255.9l502.31 390 82.808-552.3c-213.15-47.601-413.65-143.3-585.12-279.9v-272.3c167.23 176 382.04 297.8 615.06 352.6l102.84-685.8h203.55l-107.34 715.9c179.64 12.2 364.76-14.699 543.08-86.101 305.54-122.4 535.4-352.9 663.27-629.8h218.43c-139.04 359.2-421.02 662.1-806.86 816.6"/><path d="m17284 967.5c-680.7 70.5-1299.4-345.7-1510.3-967.5h214.5c79.3 196.8 207.1 366.7 367.5 497 246.1 199.8 567.4 305.5 907.5 270.3 340.2-35.403 633-204.7 832.9-450.7 77.4-95.301 140.6-202 187-316.6h214.7c-175.6 515-637.1 907.6-1213.8 967.5"/><path d="m15003 116.8c-119.4 12.301-231.2-34.5-306.3-116.8h537.5c-58 63.703-138.7 107.2-231.2 116.8"/><path d="m12930 1418.8c-790.3 81.8-1497.2-492.3-1579.2-1282.5-4.7-45.801-7.2-91.199-7.6-136.3h201.3c0.4 38.203 2.5 76.699 6.5 115.5 35.4 340.2 204.7 632.9 450.7 832.8 246.1 199.8 567.3 305.4 907.5 270.2 340.2-35.3 633-204.6 832.9-450.6 172.2-212.1 274.4-480.1 276.8-767.9h201.3c-5.2 723.5-553.8 1342.4-1290.2 1418.8"/><path d="m12802 182c-107.1 11.203-202.9-66.801-214-173.9-0.3-2.6992-0.3-5.4023-0.4-8.1016h388.9c-5.7 93.602-78.1 172.1-174.5 182"/><path d="m2502.6 7957.8c-277.07-200.4-608.17-269.4-921.14-219.3-312.98 50.2-605.92 219.2-806.49 496.2-200.47 277.1-269.46 608.2-219.41 921.2 50.234 312.9 219.2 605.9 496.21 806.5 340.59 246.5 764.32 294.3 1133.3 165.8l-431.26-974.5c-31.84-3.8-63.19-15.5-91.03-35.6-87.29-63.1-106.86-185.2-43.59-272.4 63.09-87.4 185.05-106.8 272.28-43.6 86.28 62.4 106.34 182.2 45.97 269.1l431.72 975.7c157.29-85.6 298.4-206.7 410.37-361.4 400.62-553.5 276.66-1327-276.92-1727.7zm-1665.7 2908.6c-11.301 31.2-26.989 61.4-47.426 89.7-17.27 23.8-36.938 44.9-58.356 63.2l657.25 1493.5 1077.2-1488.3zm-289.98 236.3c-60.387 8.7-122.98 2.4-181.7-20l-231.16 319.3c347.42 290.1 526.24 715.1 515.16 1142.1l555.79 54zm2395.6-1299.2c-133.68 184.7-303.03 328.1-491.76 427.9l404.16 913.3 301.35-416.3c60.29-83.7 41.6-200.2-41.79-260.8-83.61-60.3-200.12-41.6-260.72 41.8-32.77 45.3-96.01 55.4-141.29 22.7-45.25-32.8-55.39-96-22.62-141.3 126.06-174.1 369.14-213.1 543.27-87.1 174.07 126.1 213.03 369.2 87.07 543.3l-399.88 552.5c-10.33 17-25.72 31.1-45.27 39.7-50.85 22.4-110.28-0.6-132.69-51.4l-110.54-249.8-1150.6 1589.7 44.26 100.7 128.81 292.4 177.13-244.7c35.99-49.7 104.12-63.9 156.94-32.6 52.83 31.2 73.2 97.7 46.96 153.2-0.11 0.2-57.37 121.2-126.41 263.8-69.25 143-149.38 306-198.44 396-14.61 26.4-24.83 44.9-38.55 64.3-13.86 18.8-32.31 39-61.89 53.9-29.03 15.4-70.19 19.5-101.13 10.3-20.79-5.6-37.08-14.8-49.69-23.9-27.46-20.5-40.77-40.2-52.12-57.7-10.96-17.6-18.62-33.8-24.87-48.3-12.27-28.8-18.56-50.9-19.45-53.9-10.04-35.2-3.41-72.9 18-102.5l135.19-186.7-218.79-502.6h0.06l-0.05-0.1-667.31-64.8c-35.496 211.7-118.99 418.7-253.35 604.4-105.84 146.2-234.08 266.5-376.55 359.8v-249.7c78.785-65.3 150.71-141.4 213.47-228.2 112.63-155.6 183.8-328.6 215.6-505.8l-429.07-41.7v-202.2l448.3 43.5c5.211-358-144.63-713.1-432.57-959.1l-15.727 21.8v-343.4l204.31-282.2c-93.559-124.2-99.942-299.5-4.079-432.1 117.86-162.7 345.1-199.1 507.91-81.4 75.453 54.7 123.7 132.8 142.04 217.2l1643.1 159.5-226.59-512c-432.54 156.1-932.2 102.5-1333-187.4-643.6-466-787.66-1365.1-321.84-2008.8 465.89-643.6 1365-787.7 2008.7-322 643.6 466 787.68 1365.2 321.97 2008.8"/><path d="m28000 26356c107.3-85.5 228.6-157 362.5-210.7 737.6-295.3 1574.8 63.1 1870.3 800.6 140.8 351.9 132.8 726.2 6.1 1053.7h-218.4c137.6-298.1 157.1-649.9 25.4-978.9-127.2-317.4-370.3-552.5-661.7-677.4-291.4-124.6-629.3-138.2-946.9-11.1-171.2 68.6-318.4 170.9-437.3 296.3-101.6 107.1-182.6 231.1-240.1 365.3-112.3 262.5-134.4 562.9-44.8 852l284.9-114.1 704.9-282.3c10.7-65.2 54-123.4 119.8-149.7 100.1-40.2 213.7 8.5 253.7 108.5 39.7 99.2-7.8 211.6-106.2 252.6l-50.8 338.8h-203.5l54-360.2-899.5 360.2h-541.5l196.8-78.8c-186.2-578 13.9-1199.4 472.3-1564.8"/><path d="m25752 28000h-367.6c-20.8-10.3-41.9-20.2-63.3-29.3-291.4-124.7-629.3-138.2-946.8-11.2-31 12.4-61.1 26-90.5 40.5h-367.3c112.2-92.9 240.4-170.3 382.9-227.3 506.5-202.8 1059.8-97.4 1452.6 227.3"/><path d="m27084 28000h-417.7c22.5-15.7 47.1-29.2 73.6-39.9 118.4-47.3 246.9-28.1 344.1 39.9"/><path d="m21855 6581 1467.6 1105.2 188.5-1620.8c-25.9-11.2-50.9-25.5-74.4-43.2-27.8-21-51.7-45.3-71.7-71.8zm2183.2 917.6c-136.2-404.8-90.5-863.6 156.2-1243.2l-315-237.1c-49.5 38.7-107.4 63.2-167.7 72.6l-188.8 1622.8zm186.3-77.8 976-407.6-844.9-636.3c-202.8 319.8-241.5 703.3-131.1 1043.9zm432.3 605.8c545.9 411.1 1321.5 301.9 1732.8-244 205.6-273.2 280.8-602.9 236.8-916.8-44.4-313.9-207.7-610-480.9-815.8-273.2-205.7-603-280.9-916.8-236.9-282.8 40-551.2 176.6-752 403l851.7 641.4c61.3-24.6 133.5-17.8 190.1 24.9 86.2 64.8 103.4 187.2 38.5 273.2-64.2 85.4-185 103-271 40.1l-984.1 410.9c82.5 160 201.5 304.4 354.9 420zm-2872-3467.8c-83.3-65.4-99.4-185.7-35.3-270.8 64.8-86 187-103.4 273-38.5 86.2 64.8 103.4 187.2 38.6 273.2-20.7 27.5-47.2 47.8-76.5 60.9l-125.3 1058.3c390.5 14.1 781.3-156.3 1034.3-492.2 205.7-273.2 280.9-602.9 236.7-916.8-44.3-313.9-207.7-610-480.8-815.8-273.3-205.7-602.9-280.9-916.9-236.8-313.8 44.3-609.9 207.6-815.7 480.8-411.1 545.9-301.9 1321.6 243.9 1732.6 152.6 114.9 323.1 189.1 498.6 224.6zm1580.1 954.1c121-160.4 348.8-192.6 509.4-71.7 130.6 98.4 176.1 267.9 123.3 414.1l317.8 239.4c491.1-566.1 1343.5-663.1 1951.2-205.5 634.6 478 761.6 1379.8 283.7 2014.5-478.2 634.7-1379.8 761.6-2014.6 283.7-183.1-137.9-323.8-311.2-420-503l-618.7 258.3v0.2h0.1l-61.2 544.7 184.2 138.7c29.2 22 46.6 56 47.3 92.6 0.1 3.1 0.6 26.1-2.7 57.3-1.7 15.6-4.2 33.4-9.5 53.4-5.7 20-12.6 42.8-32.8 70.5-9.4 12.4-22.3 25.9-40.5 37.4-26.9 17.9-67.4 26.1-99.7 20-32.6-5.6-56.2-19.4-75-33.3-18.8-14.5-34-29.2-55.8-50.2-73.3-71.4-197.9-203.6-306.2-319.9-107.9-116-198.3-214.8-198.4-214.9-41.4-45.3-41.6-114.9-0.3-160.3s110.6-51.9 159.6-15l241.3 181.7 37.1-317.4 12.6-109.2-1567.6-1180.6-32.1 271.2c-6.4 55.2-56.5 94.8-111.6 88.3-21.3-2.5-40.1-11.4-55-24.6l-544.8-410.3c-171.7-129.4-206-373.2-76.7-544.9 129.3-171.6 373.1-206 544.8-76.7 44.6 33.6 53.6 97 20 141.7-33.7 44.6-97.1 53.5-141.7 19.9-82.5-61.8-199.3-45.4-261.5 36.8-61.9 82.5-45.4 199.4 36.8 261.5l410.6 309.2 117.4-991.8c-209.8-39.8-413.8-127-596-264.2-634.5-478-761.5-1379.7-283.6-2014.5 478-634.6 1379.8-761.6 2014.5-283.7 634.7 478.1 761.7 1379.8 283.7 2014.5-297.7 395.1-759.4 593.4-1218.7 571.6l-65.8 556 1523.3-636.1c-7.3-86 15.8-175 71.8-249.4"/><path d="m52897 14938c-503.6-462-1286.3-428.3-1748.2 75.1-129.1 140.7-219.5 303.2-271.7 474.5l1042.4 227.4c73.1-76.6 194.4-81 272.9-9 79.3 72.8 84.8 196.2 11.8 275.5-72.8 79.5-196.3 84.8-275.6 11.9-25.3-23.2-43-51.6-53.2-82l-1041.1-227.1c-51.9 387.2 79.9 792.7 389.7 1077 252 231.2 572.9 338 889.6 324.4 316.6-13.7 627.2-147.7 858.5-399.6 231.1-252 338-572.9 324.4-889.6-13.7-316.7-147.6-627.2-399.5-858.5zm-4239.2 2004.8 1595 344.5c13.6-24.7 30.3-48.2 50.2-69.9 23.6-25.6 50.1-47.1 78.4-64.4l-481.4-1563.9zm117.5 730.4c416.1-96.4 868.4-6.5 1222.2 275.7l266.6-290.4c-33.8-53.1-52.6-113.1-56.1-174l-1596.9-345zm1085.8 424.4c-298.7-232.7-676.7-308.3-1026.4-231.5l311.2 1010.9zm-1671.2 140.2c-462 503.5-428.4 1286.1 75.1 1748.2 252 231.2 573 337.9 889.6 324.4 316.7-13.7 627.3-147.6 858.5-399.6s338-572.9 324.5-889.6c-12.4-285.3-122.3-565.6-328.2-787.5l-720.9 785.7c18.6 63.4 4.8 134.6-43.2 186.8-72.8 79.5-196.3 84.8-275.7 11.9-78.7-72.3-84.5-194.2-13.6-273.7l-313.7-1019.2c-167.3 66.6-322.5 171.1-452.4 312.6zm2897.9-1328.2c-364.3-334.5-517-813.3-450.8-1268.4l-547.1-119.3 485.7 1577.8c86.3 1 172.6 32.6 241.3 95.6 147.9 135.9 157.8 365.8 22.1 513.9-110.7 120.5-283.7 149.4-424.1 82.6l-269.1 293.2c515.9 543.6 529.9 1401.3 15.7 1961.9-537.3 585.4-1447.1 624.5-2032.6 87.4-585.4-537.4-624.4-1447.1-87.3-2032.6 155-168.9 341-292.2 541.3-369.4l-197.3-640.8h-0.1v0.1l-536.2-113.6-155.9 169.9c-24.7 26.9-60.3 40.9-96.7 38.1-3.1-0.2-26.1-1.9-56.8-8.2-15.4-3.2-32.9-7.5-52.3-14.7-19.4-7.6-41.3-16.7-66.9-39.5-11.4-10.5-23.7-24.6-33.4-43.9-15.2-28.4-19.5-69.6-10.2-101.1 8.7-32 24.7-54.1 40.4-71.5 16.3-17.3 32.3-31 55.3-50.6 78.3-66.1 221.9-177.3 348.1-273.8 125.9-96.2 233-176.6 233.1-176.7 49.1-36.9 118.4-30.2 159.6 15.2 41.2 45.5 41 115.1-0.5 160.3l-204.3 222.6 312.4 67.6 107.4 23.2 1326.9-1446-266.9-58.2c-54.3-11.7-88.8-65.3-77.1-119.6 4.6-20.9 15.3-38.8 29.9-52.4l461.1-502.5c145.4-158.3 391.3-168.9 549.7-23.6 158.3 145.3 168.9 391.3 23.6 549.7-37.8 41.2-101.7 43.9-142.9 6.1-41.2-37.7-43.9-101.7-6.2-142.9 69.6-76.1 64.5-194-11.3-263.8-76.1-69.6-194-64.5-263.8 11.3l-347.5 378.7 975.8 212.9c59.9-204.9 166.5-399.6 320.6-567.6 537.2-585.3 1447-624.4 2032.6-87.3 585.3 537.2 624.4 1447 87.3 2032.5-537.3 585.4-1447 624.5-2032.6 87.4"/><path d="m39077 15812c5.4-341.9-128-652.7-348.4-880.5-220.6-227.6-527.1-370.7-869-376.2-342-5.4-652.8 127.9-880.5 348.3-205.1 198.8-341.6 467.2-370.6 768.5l1066.1 17c35-56 97.4-93 168.3-91.8 107.8 1.6 193.8 90.4 192 198.1-1.7 106.9-88.9 192.2-195.5 192l-553.5 911.6c161 80.7 342.1 127.4 534.2 130.4 683.3 11 1245.9-534 1256.9-1217.4zm-1963 982.3 548.9-904.1-1057.6-16.9c24.4 377.9 218.9 710.7 508.7 921zm-710.5-924.2-394.2-6.3c-17.2 60.5-49.7 114.4-92.9 157.5l803 1422.9 289.8-477.3c-348.5-247-581.6-644.8-605.7-1096.8zm-664.2 248.7c-27.5 6.2-56.1 9.3-85.6 8.9-34.8-0.6-68.4-6.1-100.2-15.8l-849.2 1398.7 1837 29.3zm-1038.3-376.5c5.4-342-127.9-652.8-348.4-880.6-220.6-227.5-527-370.7-869-376.2-342-5.4-652.8 127.9-880.5 348.4-227.6 220.6-370.8 527-376.3 868.9-10.9 683.3 534.2 1246 1217.3 1256.9 191 3 372.5-37.4 535.2-112.1l-522.4-930.2c-105.8-3.8-189.7-91.6-188-198.1 1.7-107.6 90.3-193.6 198.1-191.8 107.7 1.6 193.7 90.4 192 198.1-0.6 34.4-10 66.4-26.1 94.2l521.9 929.2c323.9-218.4 539.5-586.4 546.2-1006.7zm3115.9 1488.4c-229.2-3.7-444.9-60.8-635.7-159.3l-347.9 573.1v0.1h0.1l271.3 476.3 230.5 3.7c36.5 0.5 70.7 17.8 92.8 46.9 1.8 2.5 15.8 20.8 31.5 47.9 7.9 13.7 16.3 29.5 23.8 48.9 7.2 19.5 15 42 14.9 76.2-0.3 15.6-2.7 34.1-10.6 54.1-11.2 30.3-39.1 60.8-68.8 74.9-29.7 14.7-56.9 17.4-80.3 17.2-23.7-0.6-44.7-3.5-74.6-7.7-101.4-14.6-279.9-48.1-435.9-78.3-155.5-30.2-286.7-56.9-286.9-56.9-60.2-12.2-101.2-68.4-94.6-129.4s58.8-107.1 120.2-106.1l302 4.8-156.9-278.3-54.1-95.8-1962.2-31.3 133.8 238.2c27.2 48.4 10.1 109.8-38.3 137.1-18.7 10.4-39.2 14.3-59 12.4l-681.9-10.9c-214.9-3.5-386.2-180.3-382.8-395.2 3.5-214.9 180.3-386.2 395.2-382.8 55.9 0.9 100.4 46.9 99.6 102.8-0.9 55.8-46.9 100.4-102.8 99.5-103.1-1.4-187.9 80.7-189.7 183.7-1.4 103.1 80.7 187.9 183.7 189.7l513.9 8.2-489-870.8c-193 91.3-409.3 140.9-637.3 137.3-794.3-12.8-1427.9-666.8-1415.4-1461.3 12.8-794.4 666.9-1428 1461.3-1415.4 794.5 12.8 1428.1 666.8 1415.5 1461.3-8 494.6-264.5 926.7-648.6 1179.5l274.2 488.2 856.8-1411.1c-56.6-65.2-90.3-150.7-88.8-243.8 3.2-200.9 168.5-361.1 369.4-357.9 163.6 2.6 300.1 112.8 343.5 262.1l397.9 6.4c63.6-746.7 695.5-1327 1456.1-1314.9 794.4 12.7 1428 666.8 1415.5 1461.3-12.9 794.5-667 1428-1461.4 1415.4"/><path d="m49413 10160c-243.5-203-563.3-313-904-282.4-340.5 30.8-635.5 196.2-838.7 439.5-182.9 219.3-290.3 500.6-287.4 803.3l1062-95.8c28.9-59.4 87.1-102.7 157.7-109 107.3-9.8 202.2 69.4 211.9 176.7 9.6 106.4-68.2 200.5-174.2 211.6l-454.1 964.9c168.6 63.3 353.7 90.6 545 73.3 680.6-61.3 1182.5-662.7 1121.3-1343.4-30.8-340.6-196.3-635.6-439.5-838.7zm-2605.6 1214.4c-10.8 61.9-37.3 118.9-75.7 166.4l948.8 1330 237.7-505.2c-372.6-208.8-646.5-579.7-718.2-1026.6zm-241.5 282c-26.7 9.1-54.9 15.2-84.2 17.9-34.7 3.1-68.7 1.1-101.3-5.1l-696.7 1480.6 1829.8-165zm1888.6-430.5-1053.5 94.9c64.2 373.3 292.8 683.6 603.2 862.1zm-2960.9 165.8c-30.8-340.6-196.2-635.6-439.5-838.8-243.4-203-563.3-313-903.9-282.3-340.6 30.8-635.6 196.2-838.8 439.5-203 243.4-313 563.2-282.3 903.8 61.3 680.6 662.8 1182.6 1343.3 1121.2 190.2-17.2 366.4-76.5 520.3-168l-617.8-869.8c-105.6 7.5-198.3-71-207.8-177.1-9.7-107.2 69.3-202.1 176.7-211.7 107.3-9.8 202.2 69.4 211.8 176.7 3.1 34.2-2.9 67.2-15.9 96.5l617.1 868.8c299-251.4 474.5-640.1 436.8-1058.8zm4559.3-411c71.2 791.4-512.3 1490.4-1303.6 1561.9-228.3 20.6-448.9-13.5-649-91.2l-285.4 606.6 0.1 0.1 320.1 444.9 229.6-20.7c36.4-3.2 72.2 10.3 97.3 36.9 2.1 2.3 17.9 19.1 36.4 44.3 9.2 12.8 19.2 27.7 28.8 46.1 9.2 18.7 19.3 40.2 22.9 74.3 1.3 15.4 0.9 34.1-4.9 54.9-7.9 31.3-32.4 64.6-60.5 81.7-28 17.7-54.7 23.3-78 25.6-23.7 1.9-44.8 1.2-75 0.2-102.3-3.8-283.4-18.2-441.7-31.8-157.9-13.6-291.1-26.2-291.4-26.2-61.1-5.9-107.8-57.4-107.7-118.8 0.2-61.3 47.2-112.6 108.3-118.1l300.9-27.2-185.5-260.2-63.9-89.5-1954.5 176.2 158.2 222.7c32.2 45.3 21.6 108.1-23.6 140.4-17.4 12.4-37.4 18.4-57.3 18.6l-679.3 61.2c-214.1 19.2-403.1-138.5-422.4-352.6-19.3-214 138.5-403 352.5-422.4 55.7-5 104.9 36 109.9 91.7 5 55.6-36 104.8-91.7 109.8-102.6 9.5-178.3 100.1-169.2 202.8 9.5 102.6 100.1 178.2 202.7 169.2l511.9-46.2-578.3-814.2c-182.3 111.1-392.1 183.4-619.2 203.9-791.2 71.2-1490.3-512.3-1561.8-1303.6-71.3-791.4 512.2-1490.5 1303.5-1561.9 791.4-71.3 1490.5 512.2 1562 1303.5 44.3 492.7-165.1 949.5-520.4 1241.5l324.2 456.5 703-1493.7c-63.2-58.9-105.7-140.4-114.1-233.1-18-200.1 129.5-376.8 329.6-395 162.9-14.6 310.3 80.5 369.2 224.4l396.3-35.7c-15.5-749.2 551.4-1393 1309.1-1461.4 791.3-71.2 1490.5 512.2 1561.9 1303.6"/><path d="m38728 9436.9c-301.1 99-563.8 312.1-718.2 617.2-189.6 375.2-170.1 801.2 15 1145.3l894.3-579.6c-1.2-32 5.3-64.8 20.8-95.5 48.6-96.1 166-134.7 262.2-86 96.2 48.5 134.6 165.9 86 262-48.1 95.1-163.2 133.7-258.6 87.8l-895.3 580.3c109.3 141.8 251.1 262 421.6 348.2 609.7 308.3 1354 63.9 1662.4-546 154.2-305.2 170.1-643 71.3-944.2-99-301.1-312.1-563.7-617.2-718.1-305.3-154.3-643.1-170.2-944.3-71.4zm-1644.7 547.7c-32.6-6.3-65-17-96.1-32.7-26.2-13.3-50.1-29.4-71.6-47.7l-1371.1 884.6 1639.5 829zm-288-431.7-351.8-177.9c-231.7 388.8-623.2 632.5-1046.6 688.9l34.4 557.3 1372.9-885.7c-18.2-58.3-21.8-121.1-8.9-182.6zm-411.5-1301.2c-99-301.1-312.1-563.8-617.2-718.1-305.3-154.3-643.1-170.1-944.3-71.4-301.1 99-563.8 312.1-718.2 617.2-308.3 610-63.9 1354.2 546 1662.5 171.4 86.7 353.5 129.7 533.5 133.1l-65.7-1064.4c-94.4-49.4-131.9-165.6-83.7-260.9 48.6-96.2 166-134.8 262.2-86.1 63.2 32 101.3 93.8 106.2 159.6l951.6 481.1c114.5-280.1 118.6-581.3 29.6-852.6zm-999.3 1610.7c354.4-51.3 681.4-255.3 878.9-578.4l-944-477.3zm5013.3 1399.1c-358.7 709-1223.8 993.1-1932.8 634.7-203.5-102.9-371.8-247.5-500.2-418.1l-838.1 543.2 458.7 231.9c92.1 46.3 204.2 9.5 250.9-82.4 46.3-92.1 9.5-204.2-82.4-250.9-49.9-25.2-69.9-86.1-44.6-135.9 25.2-49.9 86-69.9 135.9-44.7 191.8 97.1 268.6 331 171.7 522.8-97.1 191.8-331 268.6-522.8 171.7l-608.7-307.8c-18.4-7.5-34.7-20.5-46.3-38.4-30.2-46.7-16.8-109 29.9-139.2l229.2-148.5-1751.3-885.5-92.4 59.6-268.5 173.4 269.6 136.3c54.8 27.7 79.5 92.7 57 149.8-22.6 57.1-85.1 87.7-144 70.5-0.2 0-128.7-37.5-280.4-83.2-152.2-45.8-325.8-99.2-422.3-133.5-28.4-10.2-48.3-17.4-69.6-27.9-20.8-10.7-43.6-25.8-63-52.6-19.8-26.3-30.3-66.3-26.1-98.3 2.3-21.4 8.8-38.9 15.8-52.8 15.9-30.4 33.2-46.6 48.7-60.6 15.6-13.6 30.4-23.7 43.7-32.1 26.5-16.7 47.5-26.4 50.3-27.8 33.1-15.4 71.3-14.8 103.9 1.7l205.8 104 461.8-295.3h0.1l-41.3-669.2c-214.6-1.7-432.2-51.5-636.7-154.9-709.1-358.6-993.2-1223.6-634.8-1932.9 358.6-709 1223.8-993.1 1932.9-634.6 678.8 343.2 968 1150.9 676.9 1841.4l355.1 179.5c107.9-111.9 280-145.9 426-72.1 179.3 90.7 251.1 309.3 160.5 488.7-42.1 83.1-111.7 143.1-192.1 174.5l101.7 1647.7 469.9-304.5c-222.4-402.5-248.3-904.4-25.2-1345.9 358.6-709 1223.7-993.1 1932.9-634.6 709 358.5 993.1 1223.7 634.7 1932.8"/><path d="m33062 25917c448.3 515.9 1229.7 570.7 1745.5 122.4 145-126 253.6-278.3 324.8-443.7l-1010.4-341.2c-81.4 68.7-203.1 59.6-273.2-21-70.7-81.3-62.1-204.7 19.3-275.3 53.5-46.5 125.1-58.4 188-38.1l804.8-699.4c-216.2-211.8-493.4-329.3-778.3-349.4-316.2-22.1-639.9 76-898 300.3-258.2 224.3-400.5 531.2-422.8 847.3-22 316.3 76 639.9 300.3 898.1zm1930.8-1544.3-798.4 693.8 1002.1 338.4c86.3-347.5 20.9-727.3-203.7-1032.2zm394.9 1096.8 529.1 178.7-301.6-1605.7c-60.8-5.2-120.3-25.6-172.4-60.8l-297.6 258.6c272.5 361.4 350.2 815.9 242.5 1229.2zm727 137.2 1386.8-1205-1550.3-523.6c-18.1 27.9-40.2 53.7-66.5 76.6-22.2 19.3-46.2 35.4-71.2 48.4zm1996.4-2437.8c515.8-448.1 570.6-1229.6 122.4-1745.5-224.4-258.1-531.2-400.4-847.3-422.6-316.3-22.1-639.9 76-898.1 300.2-258.1 224.4-400.5 531.2-422.7 847.4-22.1 316.2 75.9 639.9 300.2 898.1 275.8 317.3 677.6 460.1 1066.1 418.7l-198.9-1047c-30.1-10.9-58-29.4-80.5-55.3-70.7-81.3-62.1-204.6 19.3-275.3 81.3-70.7 204.5-61.9 275.1 19.4 69.9 80.3 62.2 201.5-16.3 272.5l199 1048.2c172.6-47.6 337.6-133.6 481.7-258.8zm-5058.6 850.7c574.2-498.9 1431.3-461.6 1960.7 68.7l300.3-260.9c-62.9-142.2-29.3-314.4 94.1-421.7 151.7-131.8 381.3-115.6 513.1 36 61.1 70.3 90.3 157.4 89.1 243.7l1564 528.2-104.4-550.1c-456.7 53.9-931.2-111.7-1255.8-485-521-599.8-457.3-1508.2 142.5-2029.4 599.7-521.1 1508.1-457.4 2029.3 142.3 521.1 599.9 457.4 1508.2-142.3 2029.4-172.1 149.5-369.5 250.8-576 305.2l186.4 981.2 387.9-337.1c77.7-67.8 86-185.5 18.5-263.5-67.7-77.6-185.5-85.9-263.4-18.4-42.2 36.6-106.1 32.1-142.7-10.1-36.7-42.1-32.2-106 10-142.7 162.3-140.9 407.9-123.7 548.9 38.5 140.9 162.3 123.7 407.9-38.5 548.9l-514.9 447.3c-13.9 14.2-32.1 24.5-53.1 28.5-54.6 10.2-107.2-25.7-117.5-80.3l-51-268.3-1481.3 1287.1 20.2 108.1 59.1 314.1 228.1-198.2c46.3-40.3 115.9-38.6 160.2 3.8 44.4 42.5 49.1 111.9 11 159.9-0.2 0.2-83.4 105.1-183 228.3-99.9 123.6-214.9 264.1-283.1 340.6-20.2 22.4-34.4 38.1-52.1 53.8-17.8 15.3-40.4 30.7-72.6 38.5-31.7 8.4-72.7 3-100.8-12.9-19-10.2-32.7-22.9-43-34.6-22.1-26.2-30.5-48.4-37.6-67.9-6.7-19.7-10.5-37.2-13.3-52.7-5.4-30.8-6.5-53.9-6.7-57-1.8-36.5 13.2-71.7 40.8-95.7l174-151.2-99-539.1h0.1l-0.1-0.1-635.2-214.5c-82.6 198.1-210.9 380.7-383.9 531.1-599.8 521-1508.1 457.4-2029.5-142.3-521-599.9-457.3-1508.3 142.5-2029.5"/><path d="m42913 19029c3.2 33.1 2.1 67.1-4.3 101.4-5.3 28.9-14.1 56.4-25.5 82.2l1234.7 1066.7 334-1806.6zm-160.4 337.9c-50.8 33.9-110 55-172.7 59.9l-71.7 387.7c438.3 112.9 782.3 420 955.6 810.4l525.1-189.9zm-473.4 1686.2 994.7-359.6c-149-325.6-436.7-582-802.4-680.5zm-832.1-865.1c-261.1 179.7-453.2 458.1-515.4 794.3-62.1 336.4 17.8 665 197.3 926.2 179.7 261.1 458.1 453.2 794.4 515.5 672 124.1 1317.4-319.9 1441.6-991.8 34.9-188.9 24.9-375.7-22.4-549.4l-1002.9 362.5c-20.9 104.5-121.8 173.3-226.8 153.8-106-19.5-176.1-121.4-156.4-227.3 12.9-69.7 61.4-123.7 123.3-146.9l193.8-1048.5c-301.1-31-591.2 49.8-826.5 211.6zm2713.5-3059.4c124.3-671.9-319.7-1317.3-991.7-1441.5-336.3-62.1-665 17.7-926.1 197.3-261.2 179.7-453.2 458.1-515.4 794.3-62.1 336.4 17.7 665 197.2 926.2 179.8 261.1 458.1 453.2 794.4 515.4 413.4 76.5 816.7-62.2 1094.8-336.6l-807.8-695.1c-30.5 10.2-63.8 13.2-97.6 6.9-105.9-19.5-176-121.4-156.3-227.3 19.5-106 121.3-175.9 227.2-156.3 104.7 19.4 174.3 118.9 157.1 223.4l808.7 695.8c105.4-144.7 180.8-314.7 215.5-502.5zm638.4 562.6c-101.4-18.6-198.6 48.3-217.6 149.6-10.1 55-62.9 91.3-117.9 81.1-54.9-10.1-91.2-62.9-81-117.9 39.1-211.3 241.9-350.8 453.3-311.8 211.3 39.1 350.8 241.9 311.8 453.3l-124 670.7c-2 19.7-9.9 39.1-23.8 55.3-36.3 42.1-99.9 46.8-141.9 10.5l-207.1-178.2-356.8 1929.7 83.2 72 241.9 208.8 54.9-297.1c11.2-60.3 66.6-102.4 127.8-96.8 61.1 5.5 108 56.9 108.2 118.2 0 0.2 0.2 134.1-0.9 292.6-1.2 158.9-3.6 340.5-9.3 442.7-1.9 30.2-3.2 51.3-7.2 74.7-4.4 23-12.5 49.1-32.8 75.3-19.6 26.3-55 47.7-86.9 52.6-21.2 3.9-39.9 2.6-55.1-0.2-33.6-6.7-54.1-18.8-71.9-29.7-17.4-11.2-31.3-22.5-43.2-32.9-23.4-20.8-38.6-38.1-40.7-40.4-24.1-27.5-34.3-64.3-27.7-100.3l41.9-226.7-413.3-360-0.1-0.1-630.5 228c58.8 206.4 72.3 429.2 30.6 654.6-144.5 781.3-894.7 1297.4-1676.1 1153.1-781.3-144.6-1297.4-894.8-1153-1676.2 138.3-748 832-1252.8 1576.5-1167.8l72.3-391.3c-137.8-71.9-218.8-227.6-189.1-388.4 36.6-197.6 226.2-328 423.8-291.6 91.6 17 168.7 66.9 221.5 135.2l1552.5-561.3-424.5-365.2c-323.6 326.7-797.9 492.8-1284.4 403-781.3-144.6-1297.4-894.8-1153-1676.1 144.5-781.3 894.8-1297.4 1676.1-1153.1 781.3 144.6 1297.4 894.8 1153.1 1676.1-41.5 224.1-132.9 426.4-260.5 597.6l757.1 651.3 93.4-505.4c18.6-101.4-48.3-198.6-149.6-217.5"/><path d="m48497 24344c191.2 18.5 376.4-7.7 545.4-69.9l-448.1-967.8c-106-11.7-183.1-106.2-172.9-212.6 10.3-107.2 105.7-185.8 213-175.4 70.5 6.7 128.4 50.5 157 110l1061.3 102.3c4.8-302.6-100.8-584.6-282.4-805.1-201.6-244.5-495.6-411.7-836-444.6-340.4-32.7-660.9 75.3-905.6 276.8-244.6 201.7-411.8 495.7-444.7 836-65.5 680.3 432.8 1284.8 1113 1350.3zm728-154.7c311.4-176.6 541.9-485.5 608.4-858.3l-1052.9-101.5zm319.4 689.9 957-1324.2c-38.1-47.7-64.3-104.9-74.7-166.9l-392.4-37.8c-74.5 446.5-350.6 815.7-724.5 1022.2zm1995.1 291.2-687.6-1484.8c-32.6 6-66.6 7.8-101.3 4.4-29.4-2.8-57.5-9.1-84.1-18.3l-955.8 1322.5zm631.1-695.4 622.5-865c-12.8-29.4-18.6-62.3-15.3-96.5 10.2-107.2 105.6-185.9 212.9-175.4 107.2 10.2 185.7 105.6 175.4 212.8-10.2 106-103.4 183.9-209 175.8l-623.1 866c153.3 92.4 329.2 152.8 519.3 171.1 680.1 65.6 1284.6-432.7 1350.2-1112.9 32.7-340.4-75.3-660.9-276.8-905.5-201.7-244.6-495.6-411.8-836.1-444.7-340.4-32.7-660.9 75.3-905.6 276.8-244.5 201.7-411.8 495.7-444.6 836.1-40.3 418.4 132.8 808.2 430.2 1061.4zm-3417-2794.4c757.2 73 1320.2 720.3 1300 1469.4l396.1 38.1c59.8-143.5 207.8-237.7 370.6-222.1 200 19.4 346.4 197 327.2 397-9 92.7-52 173.9-115.5 232.4l693.7 1498 327-454.5c-353.4-294.1-560-752.2-512.7-1244.6 76.3-790.9 779-1370.1 1569.9-1293.9 790.9 76.3 1370.1 779 1293.9 1569.8-76.3 790.9-779 1370.1-1569.8 1294-226.9-21.9-436.3-95.4-617.9-207.7l-583.3 810.7 511.6 49.3c102.6 9.7 193.7-65.4 203.7-168 9.7-102.6-65.3-193.7-167.9-203.7-55.7-5.4-96.4-54.8-91-110.5 5.3-55.6 54.8-96.3 110.4-91 213.9 20.7 370.5 210.7 349.9 424.6s-210.6 370.5-424.5 350l-678.9-65.4c-19.9-0.4-39.9-6.5-57.2-19-45.1-32.5-55.2-95.4-22.7-140.5l159.5-221.7-1953.4-188.2-64.4 89.1-187.1 259 300.7 29c61.1 5.9 107.8 57.5 107.6 118.9-0.3 61.3-47.4 112.6-108.5 118-0.2 0-133.6 11.8-291.5 24.4-158.4 12.7-339.5 26-441.9 29.2-30.2 0.7-51.3 1.3-75-0.8-23.3-2.4-50-8.1-77.8-26-28-17.3-52.3-50.8-60-82.1-5.7-20.8-6-39.5-4.6-54.9 3.8-34.1 14.1-55.5 23.4-74.2 9.6-18.3 19.7-33.1 29.1-45.8 18.6-25.2 34.5-41.8 36.7-44.1 25.2-26.5 61.1-39.8 97.4-36.3l229.5 22.1 322.8-443 0.1 0.1 0.1-0.1-281.7-608.4c-200.6 76.5-421.4 109.2-649.5 87.2-790.9-76.3-1370.1-778.9-1294.1-1569.9 76.4-790.9 779.1-1370.1 1570-1293.9"/><path d="m45969 3402.6c-130-316.3-375.3-549.2-667.7-671.4-292.6-122-630.6-132.6-946.9-2.6-316.3 130.1-549.3 375.3-671.5 667.7-122 292.6-132.6 630.6-2.6 947 159.8 388.8 494.9 652.5 876.2 737.5l146.3-1055.5c-25-20.1-45.5-46.5-58.6-78.2-41-99.7 6.6-213.8 106.3-254.6 99.6-41.1 213.6 6.6 254.5 106.2 40.5 98.5-5.5 210.9-102.6 253.1l-146.5 1056.8c178.8 10 362.5-18.7 539.1-91.3 632-259.7 933.8-982.6 674-1614.7zm-2947.2 1596.2c-26.1 20.6-55.3 38-87.6 51.3-27.2 11.2-55 18.7-82.9 23l-227.3 1615.8 1699.3-698.4zm-514.9-64.4-364.7 149.9c142.7 429.5 71 885-163.1 1242.2l444.1 338.4 227.6-1617.8c-55.9-24.4-105.8-62.7-143.9-112.7zm-551.3 226.6-978.4 402.1 841.3 641c192.9-301.6 252.4-682.4 137.1-1043.1zm-702.3-766.1c-292.5-122-630.6-132.6-946.9-2.6s-549.2 375.3-671.5 667.7c-122 292.6-132.6 630.6-2.6 947 259.9 632.1 982.7 933.8 1614.8 674 177.7-73 329.2-182.7 449.6-316.6l-848.3-646.4c-99.1 39.1-211.5-8.4-252.2-107.2-40.9-99.6 6.7-213.7 106.4-254.6 65.5-27 137.2-15.4 190.2 23.9l986.2-405.3c-137.1-269.8-362.2-469.8-625.7-579.9zm4118.3 808.6c-210.9 86.6-430.4 119.4-643.4 105l-137.1 989.2 475.4-195.3c95.2-39.4 140.7-148.3 101.7-243.7-39.4-95.3-148.3-140.7-243.7-101.7-51.7 21.2-110.8-3.5-132-55.2-21.3-51.6 3.4-110.7 55.1-132 198.8-81.6 426 13.2 507.8 211.9 81.6 198.8-13.2 426.1-212 507.8l-630.8 259.3c-17.7 9-38.3 12.9-59.4 9.9-55.1-7.7-93.5-58.6-85.8-113.6l37.5-270.5-1815.1 746-15.3 108.9-44.4 316.4 279.4-114.8c56.8-23.4 122.1 0.5 150.6 54.8 28.5 54.4 10.8 121.7-40.7 155.1-0.2 0.1-112.6 72.8-246.4 157.7-134.1 85.2-288.1 181.6-377.1 232.2-26.4 14.8-44.8 25.1-66.6 34.4-21.8 8.7-48 16.1-81.1 13.3-32.7-2.2-69.9-20.4-91.4-44.5-14.7-15.8-23.7-32.1-29.6-46.5-12.6-31.9-13.5-55.6-14-76.5 0-20.7 2-38.5 4.3-54.1 4.7-31 11-53.1 11.8-56.1 10-35.2 35.5-63.7 69.3-77.6l213.2-87.7 78.5-542.4h0.1v-0.2l-533.2-406.3c-141.7 161.3-321.6 293.3-533.6 380.5-735 301.9-1575.2-48.8-1877.5-783.7-301.9-735 48.9-1575.3 783.8-1877.4 703.6-289.1 1503.8 20.2 1835.8 692l368.1-151.3c-14.2-154.8 72.6-307.2 223.9-369.5 185.9-76.3 398.2 12.4 474.7 198.2 35.4 86.2 35.3 178 6.4 259.4l1313.2 1000.6 76.8-554.7c-449.9-95-846.5-403.5-1034.7-861-302-735 48.8-1575.3 783.8-1877.4 734.9-302 1575.2 48.8 1877.3 783.7 301.9 735-48.9 1575.3-783.6 1877.4"/><path d="m37638 3213.2c-143.1-668.3-800.7-1093.9-1468.9-950.9-187.9 40.2-356.6 121.1-498.8 231.5l719.6 787.1c104.5-20.8 206.6 46 229 150.5 22.6 105.3-44.6 209.1-150 231.5-69.3 14.9-137.7-9.2-182.9-57.4l-1042.7 223.2c86.9 289.9 272.8 526.8 512.5 682.1 266.1 172.1 596.9 242.7 931.3 171.2 334.4-71.6 607.3-271.5 779.6-537.5 172.2-266.1 242.8-596.9 171.3-931.3zm-2116.1-583.4c-243.6 262.5-370 626.6-320.7 1002.1l1034.3-221.5zm-513-561.1-512.1 1551.4c50.7 34 92.9 80.6 121.5 136.6l385.6-82.6c-64-448.1 87.7-883.5 381.7-1193.3zm-1989.8 325.2 1104 1207.7c29.3-15.6 61.2-27.6 95.3-34.9 28.8-6.2 57.5-8.6 85.7-7.9l511.5-1549.5zm-723.5 1866.3c21.1 24.1 36.5 53.8 43.7 87.4 22.6 105.3-44.5 209.1-150 231.5-105.3 22.7-208.9-44.5-231.4-149.8-22.3-104.2 42.9-206.6 146-230.8l332.4-1013.8c-174.1-41.7-360-46.2-546.8-6.2-668.1 143-1093.8 800.6-950.8 1468.9 71.7 334.4 271.5 607.2 537.5 779.5 266.2 172.2 596.9 242.8 931.3 171.3 334.4-71.7 607.3-271.5 779.7-537.5 172.2-266.1 242.8-596.9 171.2-931.3-88-411.1-370.8-730.3-730.9-881.9zm4433.6 618.6c-743.8 159.2-1476.1-287.7-1683.2-1007.8l-389.1 83.2c-13.6 154.9-126.3 289.5-286.2 323.8-196.5 41.9-389.7-83.1-431.8-279.6-19.5-91.1-3-181.5 39.9-256.4l-1114-1218.4-174.4 532.1c425.8 173.5 761.2 547.8 864.9 1031.5 166.2 777-328.7 1541.4-1105.6 1707.8-777 166.2-1541.4-328.6-1707.8-1105.5-166.2-777 328.6-1541.4 1105.5-1707.8 222.9-47.7 444.7-40.9 651.8 11.2l311.1-949-502.6 107.6c-100.8 21.8-164.9 120.8-143.5 221.7 21.7 100.7 120.8 164.8 221.6 143.5 54.7-11.7 108.5 23.1 120.2 77.7s-23.1 108.4-77.8 120.1c-210.2 45-416.8-88.8-461.9-299-44.9-210.1 88.9-416.8 299-461.9l666.9-142.7c19.1-5.7 40-5.9 60.3 0.8 52.7 17.3 81.5 74.2 64.1 127l-85.1 259.6 1918.9-410.8 34.5-104.4 100.1-303.5-295.4 63.2c-60 12.8-120.1-22.2-138.4-80.8-18.4-58.6 11-121.6 67.7-145.3 0.2-0.1 123.7-51.6 270.5-111.4 147.1-59.8 315.8-127.3 412.4-161.3 28.6-9.801 48.6-16.699 71.7-21.898 23-4.801 50.1-7.403 82.1 1.3 31.9 7.996 65.2 32.598 82 60.098 11.7 18.1 17.6 35.8 20.9 51 6.7 33.6 3.4 57.2 0.1 77.7-3.6 20.4-8.7 37.6-13.8 52.6-10.2 29.6-20.3 50.2-21.7 53.1-16 32.8-46.2 56.3-81.9 64l-225.5 48.3-173.8 519.8-0.1-0.1v0.2l452.3 494.8c168.1-133.5 368.7-231.4 592.8-279.4 777-166.2 1541.4 328.5 1707.9 1105.5 166.2 777-328.7 1541.4-1105.6 1707.8"/><path d="m54954 2634.6c43.9 34.1 51.8 97.4 17.7 141.2-13.1 16.9-30.6 28.4-49.5 34.3l-633.2 253.5c-199.5 79.9-425.9-17-505.8-216.5-79.9-199.6 17-425.9 216.5-505.8 51.9-20.8 110.8 4.4 131.6 56.3 20.7 51.9-4.5 110.7-56.4 131.5-95.6 38.5-142 147-103.9 242.7 38.5 95.7 147 142.1 242.8 104l477.1-191.1-787.6-614.1c-142.7 158.8-323 288.2-534.6 373-737.6 295.2-1574.7-63.2-1870.2-800.8-238.3-595.1-50.9-1254.9 417.7-1642.8h367.3c-271.8 134.6-474.3 358.2-587 621.2-124.6 291.4-138.2 629.3-11.2 946.8 254.1 634.4 974.3 942.7 1608.5 688.7 177.3-71 329.1-178.4 450.3-310.2l-841.3-656c-99.1 37.4-210.4-11.1-250-110-40-100 8.5-213.6 108.5-253.5 100.1-40.199 213.7 8.5 253.7 108.5 12.8 31.9 16.5 65.1 12.4 97l840.4 655.2c214.4-326.6 271-749.3 114.7-1139.6-117.8-294.2-335.3-517.6-598.4-648.1h367.6c179.3 148.2 325.1 342.1 417.7 573.3 183.8 459.3 114.2 957-142.4 1338.6l441.6 344.3 244.9-1632.6c-77.4-38.301-141.5-104.2-176.2-190.6-64-160-6.4-338.3 128.8-433h417.7c27.5 19.301 52.5 42.402 74 69.102l172.6-69.102h541.5l-82.5 33c55.9 112.4 127.2 212.9 210.1 300.2v272.3c-163.9-130.5-301.2-298.3-397.4-497.5l-366 146.6c7.5 62.398-1.6 124.7-24.8 181.1l788.2 612v255.9l-913.8-709.5c-23 16.3-48.2 30.296-75.6 41.199-32.3 13-65.5 20.902-98.5 24.199l-242.6 1618.2 1330.5-532.7v216.8l-1260.9 504.9 215.4 167.9"/><path d="m42830 27418c30.8-12.4 63.8-20.9 98.5-24.5 29.3-3 58.1-2.4 86 1.3l674.9-1485.5-1827.4 189.4zm475.7 207.3 392.2-40.6c-15.5-452.4 182.1-869 507.7-1145.4l-330.4-450.2-675.7 1487.4c46.8 39.2 83.8 90.1 106.2 148.8zm592.9-61.5 1052.1-109-625.7-852.8c-270.3 234.8-435 583.3-426.4 961.8zm-3264.6-1006.6c226.8-23.5 446.6 7.1 646.8 81.2l411.2-910.1-511.2 53c-102.5 10.8-176.9 102.4-166.5 205 10.8 102.5 102.4 176.9 205 166.4 55.6-5.7 105.3 34.7 111.1 90.3 5.7 55.5-34.6 105.2-90.2 111-213.8 22.1-404.9-133.1-427.2-346.9-22.1-213.7 133.1-404.8 346.9-427.1l678.4-70.3c19.6-3.6 40.3-1.6 59.8 7.3 50.6 22.9 73.1 82.6 50.1 133.2l-112.5 248.9 1952-202.4 45.5-100.1 132.1-291-300.5 31.2c-61 6.3-117-35-128.9-95.2-12-60.2 24-119.8 82.9-137.2 0.2 0 128.6-38.1 280.9-81.7 152.7-43.7 327.6-92.7 427.4-116.1 29.4-6.7 50-11.4 73.6-14.1 23.3-2.3 50.6-1.9 81.5 10.2 30.8 11.4 61.3 39.3 75 68.5 9.7 19.2 13.7 37.5 15.4 53 3 34.1-2.8 57.2-8.3 77.3-5.8 19.9-12.7 36.4-19.4 50.7-13.3 28.3-25.6 47.8-27.2 50.4-19.5 31-52 51.2-88.4 54.9l-229.3 23.8-228.7 498.1h-0.1v0.1l396.6 540.6c181.5-114.7 391.4-190.5 619.4-214.2 790.3-81.8 1497.2 492.2 1579.3 1282.6 22.1 213.6-3.8 421-68.8 611.7h-214.7c73.4-181.3 104.8-382.5 83.3-590.9-70.6-679.8-678.7-1173.6-1358.4-1103.1-191 19.8-367.4 82.1-520.7 176.5l630.9 859.9c106.1-9.5 200.5 67.8 211.5 174.1 11.2 107.2-66.8 203.1-174 214.2-70.5 7.3-135.9-24-175.7-76.8l-1060.5 110c15.2 82.1 38.4 161.1 68.7 236.1h-214.5c-23.5-69.4-42.1-141.2-55-215.3l-395.8 41c-13 65.8-44 125.9-88.1 174.3h-537.5c-50.6-55.5-84.6-127-93-207.5-9.6-92.6 16.6-180.7 67.2-250.7l-976.6-1330.9-230.6 510.2c404.7 218.3 697.9 626.5 749.1 1118.5 5.6 53.9 8 107.4 7.6 160.4h-201.3c0.4-46.1-1.7-92.7-6.5-139.6-43.4-418.2-290.3-765.9-632-955.3l-438.8 971.2c18.4 26.3 30.6 57.4 34.1 91.6 1.2 10.8 1.2 21.5 0.5 32.1h-388.9c-6.4-102.6 68-192.9 170.4-205.6l439.3-972.2c-168.6-60.2-353-84.6-542.9-64.9-640.9 66.3-1116.5 610.9-1109.6 1242.7h-201.3c-6.9-733.8 545.6-1365.7 1290.1-1443"/><path d="m28000 605.5c-163.9-130.5-301.2-298.3-397.4-497.5l-366 146.6c7.5 62.398-1.6 124.7-24.8 181.1l1290.5 1002 82.8-552.3c-213.1-47.601-413.6-143.3-585.1-279.9zm-913.8-11.398c-23 16.3-48.2 30.296-75.6 41.199-32.3 13-65.5 20.902-98.5 24.199l-242.6 1618.2 1330.5-532.7 375-150.2-375-291.2zm2345.8 222.5c-212.8 85.199-433.8 115.9-647.8 98.8l-99.4 663.1h0.1l434.3 334.4 214-85.7c33.9-13.6 72.1-10.8 103.8 7.4 2.6 1.6 22.6 13.1 47.6 32 12.5 9.6 26.4 21 40.8 35.9 14.1 15.2 30 32.9 43.2 64.6 5.8 14.4 10.7 32.4 11.1 54 1.4 32.2-12.6 71.2-34.5 95.6-21.7 25-45.7 38-67.4 46.9-22.1 8.6-42.5 14-71.8 21.7-99.1 25.8-276.7 63.9-432.2 96.3-155.2 32.2-286.5 58.4-286.7 58.4-60.2 12-119.8-24-137.2-82.8-17.5-58.8 12.8-121.5 69.8-144.3l280.5-112.3-252.4-196.1-86.9-67.4-560.9 224.7-1260.9 504.9 215.4 167.9c43.9 34.1 51.8 97.4 17.7 141.2-13.1 16.9-30.6 28.4-49.5 34.3l-633.2 253.5c-199.5 79.9-425.9-17-505.8-216.5-79.9-199.6 17-425.9 216.5-505.8 51.9-20.8 110.8 4.4 131.6 56.3 20.7 51.9-4.5 110.7-56.3 131.5-95.7 38.5-142.1 147-104 242.7 38.5 95.7 147 142.1 242.8 104l477.1-191.1-787.6-614.1c-142.7 158.8-323 288.2-534.6 373-737.6 295.2-1574.7-63.2-1870.2-800.8-238.3-595.1-50.9-1254.9 417.7-1642.8h367.3c-271.8 134.6-474.3 358.2-587 621.2-124.6 291.4-138.2 629.3-11.2 946.8 254.1 634.4 974.3 942.7 1608.5 688.7 177.3-71 329.1-178.4 450.3-310.2l-841.3-656c-99.1 37.4-210.4-11.1-250-110-40-100 8.5-213.6 108.5-253.5 100.1-40.199 213.7 8.5 253.7 108.5 12.8 31.9 16.5 65.1 12.4 97l840.4 655.2c214.4-326.6 271-749.3 114.7-1139.6-117.8-294.2-335.3-517.6-598.4-648.1h367.6c179.3 148.2 325.1 342.1 417.7 573.3 183.8 459.3 114.2 957-142.3 1338.6l441.5 344.3 244.9-1632.6c-77.4-38.301-141.5-104.2-176.2-190.6-64-160-6.4-338.3 128.8-433h417.7c27.5 19.301 52.5 42.402 74 69.102l172.6-69.102h541.5l-82.5 33c55.9 112.4 127.2 212.9 210.1 300.2 167.2 176 382 297.8 615.1 352.6l102.8-685.8h203.5l-107.3 715.9c179.7 12.2 364.8-14.699 543.1-86.101 305.5-122.4 535.4-352.9 663.3-629.8h218.4c-139 359.2-421 662.1-806.9 816.6"/><path d="m45284 967.5c-680.7 70.5-1299.4-345.7-1510.3-967.5h214.5c79.3 196.8 207.1 366.7 367.5 497 246.1 199.8 567.4 305.5 907.5 270.3 340.2-35.403 633-204.7 832.9-450.7 77.4-95.301 140.6-202 187-316.6h214.7c-175.6 515-637.1 907.6-1213.8 967.5"/><path d="m43003 116.8c-119.4 12.301-231.2-34.5-306.3-116.8h537.5c-58 63.703-138.7 107.2-231.2 116.8"/><path d="m40930 1418.8c-790.3 81.8-1497.2-492.3-1579.2-1282.5-4.7-45.801-7.2-91.199-7.6-136.3h201.3c0.4 38.203 2.5 76.699 6.5 115.5 35.4 340.2 204.7 632.9 450.7 832.8 246.1 199.8 567.3 305.4 907.5 270.2 340.2-35.3 633-204.6 832.9-450.6 172.2-212.1 274.4-480.1 276.8-767.9h201.3c-5.2 723.5-553.8 1342.4-1290.2 1418.8"/><path d="m40802 182c-107.1 11.203-202.9-66.801-214-173.9-0.3-2.6992-0.3-5.4023-0.4-8.1016h388.9c-5.7 93.602-78.1 172.1-174.5 182"/><path d="m30924 7957.8c-277.1-200.4-608.2-269.4-921.2-219.3-312.9 50.2-605.9 219.2-806.5 496.2-200.4 277.1-269.4 608.2-219.4 921.2 50.3 312.9 219.2 605.9 496.2 806.5 340.6 246.5 764.4 294.3 1133.3 165.8l-431.2-974.5c-31.9-3.8-63.2-15.5-91.1-35.6-87.2-63.1-106.8-185.2-43.5-272.4 63-87.4 185-106.8 272.2-43.6 86.3 62.4 106.4 182.2 46 269.1l431.7 975.7c157.3-85.6 298.4-206.7 410.4-361.4 400.6-553.5 276.7-1327-276.9-1727.7zm-1665.7 2908.6c-11.3 31.2-27 61.4-47.4 89.7-17.3 23.8-37 44.9-58.4 63.2l657.3 1493.5 1077.1-1488.3zm-290 236.3c-60.4 8.7-123 2.4-181.7-20l-231.1 319.3c347.4 290.1 526.2 715.1 515.1 1142.1l555.8 54zm-531.2 462.8-15.7 21.8-604.4 835.1 604.4 58.7 448.3 43.5c5.2-358-144.6-713.1-432.6-959.1zm-1000.3-281.7c-312.9 50.3-605.9 219.2-806.5 496.2-200.5 277.1-269.4 608.2-219.4 921.2 50.3 313 219.2 606 496.2 806.5 467 337.9 1090.2 302.7 1514.3-48.7 78.8-65.3 150.7-141.4 213.5-228.2 112.6-155.6 183.8-328.6 215.6-505.8l-429.1-41.7-632.4-61.4c-63.7 85.5-184.3 104.2-270.8 41.6-87.3-63.1-106.9-185.2-43.6-272.5 41.5-57.4 108.5-85.3 174.3-79.7l625.2-863.8c-258.6-157.2-555.3-208.8-837.3-163.7zm3927.2-1480.3c-133.7 184.7-303.1 328.1-491.8 427.9l404.2 913.3 301.3-416.3c60.3-83.7 41.6-200.2-41.8-260.8-83.6-60.3-200.1-41.6-260.7 41.8-32.8 45.3-96 55.4-141.3 22.7-45.2-32.8-55.4-96-22.6-141.3 126-174.1 369.1-213.1 543.3-87.1 174 126.1 213 369.2 87 543.3l-399.8 552.5c-10.4 17-25.8 31.1-45.3 39.7-50.9 22.4-110.3-0.6-132.7-51.4l-110.5-249.8-1150.6 1589.7 44.2 100.7 128.8 292.4 177.2-244.7c35.9-49.7 104.1-63.9 156.9-32.6 52.8 31.2 73.2 97.7 47 153.2-0.1 0.2-57.4 121.2-126.4 263.8-69.3 143-149.4 306-198.5 396-14.6 26.4-24.8 44.9-38.5 64.3-13.9 18.8-32.3 39-61.9 53.9-29.1 15.4-70.2 19.5-101.2 10.3-20.7-5.6-37-14.8-49.6-23.9-27.5-20.5-40.8-40.2-52.2-57.7-10.9-17.6-18.6-33.8-24.8-48.3-12.3-28.8-18.6-50.9-19.5-53.9-10-35.2-3.4-72.9 18-102.5l135.2-186.7-218.8-502.6h0.1l-0.1-0.1-667.3-64.8c-35.5 211.7-119 418.7-253.3 604.4-105.9 146.2-234.1 266.5-376.6 359.8-484.7 317.7-1134.7 322.1-1632.3-37.9-643.6-465.9-787.6-1365.1-321.8-2008.8 446-616.2 1289.2-774.4 1925.1-378l29-40.1 204.3-282.2c-93.5-124.2-99.9-299.5-4.1-432.1 117.9-162.7 345.1-199.1 508-81.4 75.4 54.7 123.6 132.8 142 217.2l1643.1 159.5-226.6-512c-432.5 156.1-932.2 102.5-1333-187.4-643.6-466-787.6-1365.1-321.8-2008.8 465.9-643.6 1365-787.7 2008.7-322 643.6 466 787.7 1365.2 322 2008.8"/><path d="m56000 26356v272.5c-101.6 107.1-182.6 231.1-240.1 365.3-112.3 262.5-134.4 562.9-44.8 852l284.9-114.1v216.8l-127.6 51.1h-541.5l196.8-78.8c-186.2-578 13.9-1199.4 472.3-1564.8"/><path d="m53752 28000h-367.6c-20.8-10.3-41.9-20.2-63.3-29.3-291.4-124.7-629.3-138.2-946.8-11.2-31 12.4-61.1 26-90.5 40.5h-367.3c112.2-92.9 240.4-170.3 382.9-227.3 506.5-202.8 1059.8-97.4 1452.6 227.3"/><path d="m55084 28000h-417.7c22.5-15.7 47.1-29.2 73.6-39.9 118.4-47.3 246.9-28.1 344.1 39.9"/><path d="m54368 13671c-643.6-465.9-787.7-1365.1-321.9-2008.8 446.1-616.2 1289.3-774.4 1925.2-378l29-40.1v343.4l-604.5 835.1 604.5 58.7v202.2l-632.4-61.4c-63.7 85.5-184.3 104.2-270.8 41.6-87.3-63.1-106.9-185.2-43.6-272.5 41.5-57.4 108.5-85.3 174.3-79.7l625.2-863.8c-258.6-157.2-555.3-208.8-837.3-163.7-313 50.3-605.9 219.2-806.5 496.2-200.5 277.1-269.4 608.2-219.4 921.2 50.3 313 219.2 606 496.2 806.5 466.9 337.9 1090.2 302.7 1514.3-48.7v249.7c-484.7 317.7-1134.7 322.1-1632.3-37.9"/><path d="m49855 6581 1467.6 1105.2 188.5-1620.8c-25.9-11.2-50.9-25.5-74.4-43.2-27.8-21-51.7-45.3-71.7-71.8zm2183.2 917.6c-136.3-404.8-90.5-863.6 156.2-1243.2l-315-237.1c-49.5 38.7-107.4 63.2-167.7 72.6l-188.8 1622.8zm186.3-77.8 976-407.6-844.9-636.3c-202.8 319.8-241.5 703.3-131.1 1043.9zm432.3 605.8c545.9 411.1 1321.5 301.9 1732.8-244 205.6-273.2 280.8-602.9 236.8-916.8-44.4-313.9-207.8-610-481-815.8-273.1-205.7-602.9-280.9-916.8-236.9-282.7 40-551.1 176.6-752 403l851.8 641.4c61.3-24.6 133.5-17.8 190.1 24.9 86.1 64.8 103.4 187.2 38.5 273.2-64.2 85.4-185 103-271 40.1l-984.1 410.9c82.5 160 201.5 304.4 354.9 420zm-2872-3467.8c-83.3-65.4-99.4-185.7-35.3-270.8 64.8-86 187-103.4 273-38.5 86.2 64.8 103.4 187.2 38.6 273.2-20.7 27.5-47.2 47.8-76.5 60.9l-125.3 1058.3c390.4 14.1 781.3-156.3 1034.3-492.2 205.6-273.2 280.9-602.9 236.7-916.8-44.3-313.9-207.7-610-480.8-815.8-273.3-205.7-603-280.9-916.9-236.8-313.8 44.3-609.9 207.6-815.7 480.8-411.1 545.9-301.9 1321.6 243.9 1732.6 152.6 114.9 323.1 189.1 498.6 224.6zm1580.1 954.1c121-160.4 348.8-192.6 509.4-71.7 130.6 98.4 176.1 267.9 123.3 414.1l317.8 239.4c491.1-566.1 1343.5-663.1 1951.2-205.5 634.6 478 761.6 1379.8 283.7 2014.5-478.2 634.7-1379.8 761.6-2014.6 283.7-183.1-137.9-323.8-311.2-420-503l-618.7 258.3v0.2h0.1l-61.2 544.7 184.2 138.7c29.2 22 46.6 56 47.3 92.6 0.1 3.1 0.6 26.1-2.7 57.3-1.7 15.6-4.2 33.4-9.5 53.4-5.7 20-12.6 42.8-32.8 70.5-9.4 12.4-22.3 25.9-40.5 37.4-26.9 17.9-67.4 26.1-99.7 20-32.6-5.6-56.2-19.4-75-33.3-18.8-14.5-34-29.2-55.8-50.2-73.3-71.4-197.9-203.6-306.2-319.9-107.9-116-198.3-214.8-198.4-214.9-41.5-45.3-41.6-114.9-0.3-160.3s110.6-51.9 159.6-15l241.3 181.7 37.1-317.4 12.6-109.2-1567.6-1180.6-32.1 271.2c-6.4 55.2-56.5 94.8-111.7 88.3-21.2-2.5-40-11.4-54.9-24.6l-544.8-410.3c-171.7-129.4-206-373.2-76.7-544.9 129.3-171.6 373.1-206 544.8-76.7 44.6 33.6 53.6 97 20 141.7-33.7 44.6-97.1 53.5-141.7 19.9-82.5-61.8-199.3-45.4-261.5 36.8-61.9 82.5-45.4 199.4 36.8 261.5l410.6 309.2 117.4-991.8c-209.8-39.8-413.8-127-596-264.2-634.5-478-761.5-1379.7-283.6-2014.5 478-634.6 1379.8-761.6 2014.5-283.7 634.7 478.1 761.7 1379.8 283.7 2014.5-297.7 395.1-759.4 593.4-1218.7 571.6l-65.8 556 1523.3-636.1c-7.3-86 15.8-175 71.8-249.4"/><path d="m56.356 21114c-13.047 23.7-33.145 41.3-56.356 51.5v-220.1l18.836 12.8c50.82 34.4 67.102 102.1 37.52 155.8"/><path d="m1439.4 19216c-257.5 328.6-634.24 517.3-1026.4 546.4-32.957 2.4-66.011 3.8-99.128 4l-36.629 557.2 250.24-119.5 1223.9-584.8c-10.61-60.1-6.23-122.8 14.38-182.2zm-1042.9-706.4-62.367 948.5-7.027 106.9c11.496-0.2 22.984-0.6 34.461-1.1 345.92-15.3 681.41-175.2 910.7-461.1zm259.25 2189.4 1233.5 835.6 107.35-1632.8c-31.56-10.3-62.25-25.1-91.12-44.6-24.37-16.5-46.02-35.5-65.03-56.4l-1472.3 703.4zm2120.6 527.3 960.63-461.4c2.83-31.9 13.51-63.6 32.77-92.1 60.38-89.2 181.77-112.5 270.96-52 89.24 60.3 112.44 181.6 52.05 270.8-59.72 88.2-178.8 112-267.62 54.3l-961.72 461.9c90.38 154.5 215.84 291.8 373.96 398.9 565.66 383.2 1335 235.2 1718.2-330.5 191.73-283.2 250.35-616.3 190.59-927.6-59.97-311.2-237.97-598.8-521.07-790.6-283.22-191.8-616.31-250.4-927.57-190.7-311.26 60-598.86 238-790.69 521.1-235.77 348.1-270.42 773.1-130.53 1137.9zm-1661.8-4089.4c629.77 426.6 814.1 1264.5 437.71 1912.4l329.44 223.2c121.21-97.4 296.25-109.2 431.73-17.5 166.3 112.7 209.75 338.7 97.14 505.1-52.26 77.1-128.91 127.8-212.68 148.7l-108.29 1647.3 504.75-242.4c-169.47-427.5-131.48-928.6 145.84-1338.2 445.71-657.8 1339.9-829.7 1997.8-384.2 657.76 445.7 829.74 1339.9 384.24 1997.8-445.75 657.7-1339.9 829.7-1997.8 384.3-188.73-127.9-337.37-292.7-443.01-478.2l-900.28 432.3 425.54 288.3c85.46 57.6 201.34 35.3 259.3-49.9 57.66-85.4 35.37-201.3-49.87-259.3-46.27-31.3-58.37-94.2-27.02-140.5 31.32-46.2 94.22-58.4 140.5-27 177.9 120.6 224.43 362.3 103.94 540.3-120.58 177.9-362.35 224.4-540.33 103.9l-564.68-382.5c-17.3-9.8-31.89-24.7-41.12-44-23.98-50.1-2.79-110.2 47.33-134.2l246.22-118.3-1624.8-1100.5-99.231 47.3-57.027 27.3v-223.5l68.875-32.6 0.0273 0.1 0.1133-0.1 43.988-669c-37.801-5.1-75.496-11.8-113-20v-206.8c41.805 10.7 83.938 19.3 126.25 25.5l46.996-714.8 22.977-349.4c-87.379-61-109.88-180.9-49.946-269.4 60.375-89.2 181.77-112.6 270.95-52 58.734 39.7 88.648 105.8 85.172 171.8l882.8 597.9c149.09-263.3 191.4-561.5 137.58-842-59.99-311.2-237.99-598.8-521.09-790.6-283.2-191.8-616.3-250.4-927.59-190.6-24.875 4.7-49.562 10.4-74.09 16.7v-206.9c371.65-81.3 774.66-16.1 1114.6 214.2"/><path d="m28173 18837 22.9-349.4c-87.4-61-109.9-180.9-49.9-269.4 60.4-89.2 181.7-112.6 270.9-52 58.8 39.7 88.7 105.8 85.2 171.8l882.8 597.9c149.1-263.3 191.4-561.5 137.6-842-60-311.2-238-598.8-521.1-790.6-283.2-191.8-616.3-250.4-927.6-190.6-24.9 4.7-49.6 10.4-74.1 16.7-84.6 21.7-167 52.3-245.6 91.5-183.9 91.6-347.3 230.4-471 412.8-383.2 565.9-235.2 1335.1 330.5 1718.4 121.3 82.1 251.9 139.8 386.1 174.2 41.8 10.7 83.9 19.3 126.3 25.5zm1099 265.6-875.8-593.2-62.3 948.5-7.1 106.9c11.5-0.2 23-0.6 34.5-1.1 345.9-15.3 681.4-175.2 910.7-461.1zm-744.8 1101.3 1223.9-584.8c-10.6-60.1-6.2-122.8 14.4-182.2l-326.4-221.1c-257.5 328.6-634.2 517.3-1026.4 546.4-32.9 2.4-66 3.8-99.1 4l-36.6 557.2zm128.3 494.9 1233.5 835.6 107.4-1632.8c-31.6-10.3-62.3-25.1-91.2-44.6-24.3-16.5-46-35.5-65-56.4l-1261.3 602.6-211 100.8zm2120.6 527.3 960.6-461.4c2.8-31.9 13.5-63.6 32.8-92.1 60.3-89.2 181.7-112.5 270.9-52 89.3 60.3 112.5 181.6 52.1 270.8-59.7 88.2-178.8 112-267.6 54.3l-961.8 461.9c90.4 154.5 215.9 291.8 374 398.9 565.7 383.2 1335 235.2 1718.2-330.5 191.8-283.2 250.4-616.3 190.6-927.6-59.9-311.2-237.9-598.8-521-790.6-283.3-191.8-616.4-250.4-927.6-190.7-311.3 60-598.9 238-790.7 521.1-235.8 348.1-270.4 773.1-130.5 1137.9zm-3653.7-612.4c19.7-28.1 38.9-42 56-53.9 17.3-11.5 33.2-19.7 47.5-26.4 28.4-13.1 50.4-20.1 53.3-21.1 34.8-11.1 72.7-5.6 103 14.9l190.9 129.2 426.6-201.7 68.9-32.6v0.1l0.1-0.1 44-669c-37.8-5.1-75.5-11.8-113-20-173.5-37.9-342.9-108.7-499-214.4-657.7-445.7-829.8-1339.8-384.3-1997.9 152.2-224.6 356.7-392.5 586.2-498.5 95.4-44.1 195.1-77.4 297.1-99.8 371.7-81.3 774.7-16.1 1114.6 214.2 629.7 426.6 814.1 1264.5 437.7 1912.4l329.4 223.2c121.2-97.4 296.3-109.2 431.8-17.5 166.3 112.7 209.7 338.7 97.1 505.1-52.3 77.1-128.9 127.8-212.7 148.7l-108.3 1647.3 504.8-242.4c-169.5-427.5-131.5-928.6 145.8-1338.2 445.7-657.8 1339.9-829.7 1997.8-384.2 657.8 445.7 829.8 1339.9 384.3 1997.8-445.8 657.7-1339.9 829.7-1997.8 384.3-188.7-127.9-337.4-292.7-443-478.2l-900.3 432.3 425.6 288.3c85.4 57.6 201.3 35.3 259.3-49.9 57.6-85.4 35.3-201.3-49.9-259.3-46.3-31.3-58.4-94.2-27-140.5 31.3-46.2 94.2-58.4 140.5-27 177.9 120.6 224.4 362.3 103.9 540.3-120.6 177.9-362.3 224.4-540.3 103.9l-564.7-382.5c-17.3-9.8-31.9-24.7-41.1-44-24-50.1-2.8-110.2 47.3-134.2l246.2-118.3-1048.8-710.4-575.9-390.1-99.3 47.3-57 27.3-231.3 110.6 231.3 156.6 18.8 12.8c50.9 34.4 67.1 102.1 37.6 155.8-13.1 23.7-33.2 41.3-56.4 51.5-29.4 12.9-63.9 14-95.4 0.3-0.2-0.1-122.9-53.6-267.6-118.2-145.1-64.7-310.5-139.8-401.9-186-26.9-13.8-45.7-23.4-65.5-36.5-19.3-13.3-40-31.1-55.8-60.2-16.3-28.5-21.6-69.6-13.4-100.8 5-20.9 13.6-37.5 22.3-50.4"/><path d="m56000 21166c-29.4 12.9-63.9 14-95.4 0.3-0.2-0.1-122.9-53.6-267.6-118.2-145.1-64.7-310.5-139.8-401.9-186-26.9-13.8-45.7-23.4-65.5-36.5-19.3-13.3-40-31.1-55.8-60.2-16.3-28.5-21.6-69.6-13.4-100.8 5-20.9 13.6-37.5 22.3-50.4 19.7-28.1 38.9-42 56-53.9 17.3-11.5 33.2-19.7 47.5-26.4 28.4-13.1 50.4-20.1 53.3-21.1 34.8-11.1 72.7-5.6 103 14.9l190.9 129.2 426.6-201.7v223.5l-231.3 110.6 231.3 156.6v220.1"/><path d="m55117 17521c152.2-224.6 356.7-392.5 586.2-498.5 95.4-44.1 195.1-77.4 297.1-99.8v206.9c-84.6 21.7-167 52.3-245.6 91.5-183.9 91.6-347.3 230.4-471 412.8-383.2 565.9-235.2 1335.1 330.5 1718.4 121.3 82.1 251.9 139.8 386.1 174.2v206.8c-173.5-37.9-342.9-108.7-499-214.4-657.7-445.7-829.8-1339.8-384.3-1997.9"/></g></g></g></svg>
